<svg width="16" height="16" viewBox="0 0 16 16" fill="none" xmlns="http://www.w3.org/2000/svg">
<path d="M7.43476 15.0156L6.9449 15.3621L6.94548 15.3629L7.43476 15.0156ZM5.5164 12.3321L6.00338 11.9816V11.9816L5.5164 12.3321ZM8.56524 15.0156L9.05452 15.3629L9.0551 15.3621L8.56524 15.0156ZM10.4836 12.3321L9.99662 11.9816V11.9816L10.4836 12.3321ZM7.43476 15.0156L7.92462 14.6692C7.18072 13.6174 6.54491 12.734 6.00338 11.9816L5.5164 12.3321L5.02942 12.6826C5.57095 13.435 6.20416 14.3148 6.9449 15.3621L7.43476 15.0156ZM8.56524 15.0156L8.07596 14.6683C8.06126 14.6891 8.03665 14.7042 8 14.7042C7.96334 14.7042 7.93874 14.6891 7.92405 14.6684L7.43476 15.0156L6.94548 15.3629C7.45774 16.0846 8.5422 16.0847 9.05452 15.3629L8.56524 15.0156ZM10.4836 12.3321L9.99662 11.9816C9.45509 12.734 8.81928 13.6174 8.07538 14.6692L8.56524 15.0156L9.0551 15.3621C9.79584 14.3148 10.4291 13.435 10.9706 12.6826L10.4836 12.3321ZM13.5 6.36409H12.9C12.9 7.16427 12.7893 7.69198 12.3969 8.4342C11.979 9.22478 11.2566 10.231 9.99662 11.9816L10.4836 12.3321L10.9706 12.6826C12.2055 10.9668 12.9912 9.87761 13.4578 8.99502C13.9499 8.06408 14.1 7.34094 14.1 6.36409H13.5ZM8 1V1.6C10.7204 1.6 12.9 3.74701 12.9 6.36409H13.5H14.1C14.1 3.05614 11.3547 0.4 8 0.4V1ZM2.5 6.36409H3.1C3.1 3.74701 5.27955 1.6 8 1.6V1V0.4C4.64529 0.4 1.9 3.05614 1.9 6.36409H2.5ZM5.5164 12.3321L6.00338 11.9816C4.74344 10.231 4.02101 9.22478 3.60308 8.4342C3.21072 7.69198 3.1 7.16427 3.1 6.36409H2.5H1.9C1.9 7.34094 2.05007 8.06408 2.5422 8.99502C3.00876 9.87761 3.79453 10.9668 5.02942 12.6826L5.5164 12.3321ZM9.83321 6.36396H9.23321C9.23321 7.00603 8.69526 7.55199 7.99987 7.55199V8.15199V8.75199C9.32952 8.75199 10.4332 7.6969 10.4332 6.36396H9.83321ZM7.99987 4.57593V5.17593C8.69526 5.17593 9.23321 5.7219 9.23321 6.36396H9.83321H10.4332C10.4332 5.03103 9.32952 3.97593 7.99987 3.97593V4.57593ZM6.16654 6.36396H6.76654C6.76654 5.7219 7.30448 5.17593 7.99987 5.17593V4.57593V3.97593C6.67022 3.97593 5.56654 5.03103 5.56654 6.36396H6.16654ZM7.99987 8.15199V7.55199C7.30448 7.55199 6.76654 7.00603 6.76654 6.36396H6.16654H5.56654C5.56654 7.6969 6.67022 8.75199 7.99987 8.75199V8.15199Z" fill="#1E222D"/>
</svg>
