<svg width="16" height="16" viewBox="0 0 16 16" fill="none" xmlns="http://www.w3.org/2000/svg">
<path d="M3.33672 3H1.93575C1.41549 3 0.974811 3.40123 1.02755 3.9188C1.16682 5.28566 1.87272 7 4.00001 7" stroke="black" stroke-width="1.5" stroke-linecap="round"/>
<path d="M12.6633 3H14.0642C14.5845 3 15.0252 3.40123 14.9725 3.9188C14.8332 5.28566 14.1273 7 12 7" stroke="black" stroke-width="1.5" stroke-linecap="round"/>
<path d="M7.09668 9.50781L6.59473 9.33203C4.93713 8.75132 3.75027 7.17489 3.75 5.32227V1.84766C3.75 1.79386 3.79386 1.75 3.84766 1.75H12.1523C12.2053 1.7501 12.249 1.79323 12.249 1.84766V5.32227C12.2488 7.05657 11.2093 8.54859 9.71582 9.20898L9.26855 9.40723V11.8496C9.26874 12.6781 9.83933 13.3055 10.4893 13.5645C11.0953 13.806 11.3336 14.0787 11.4336 14.2627C11.5209 14.4234 11.5392 14.5886 11.5254 14.7451C11.5154 14.7466 11.5042 14.75 11.4922 14.75H5.10156C5.07104 14.75 5.04142 14.7447 5.01562 14.7354L4.96289 14.7061C4.98076 14.3638 5.09124 14.1494 5.22949 13.9941C5.38284 13.8219 5.60773 13.6811 5.89941 13.5625C6.54038 13.3019 7.09652 12.6833 7.09668 11.8652V9.50781Z" stroke="black" stroke-width="1.5"/>
</svg>
