<svg width="16" height="16" viewBox="0 0 16 16" fill="none" xmlns="http://www.w3.org/2000/svg">
<path d="M5.96751 13.4675C5.96751 12.5764 6.64253 11.9823 6.98004 11.7966C6.98004 11.7348 6.98004 11.3882 6.98004 10.4971C6.98004 9.60591 6.57503 9.78819 5.5625 9.19747C3.33492 7.89789 3.13242 5.67004 3.13242 3.81349V1.89659C3.13242 1.62232 3.35475 1.39998 3.62902 1.39998H7.62131" stroke="#1E222D" stroke-width="1.2"/>
<path d="M10.0363 13.4675C10.0363 12.5764 9.33898 11.9823 8.9903 11.7966C8.9903 11.7347 8.9903 11.3882 8.9903 10.497C8.9903 9.6059 9.40872 9.78818 10.4548 9.19746C12.7561 7.89788 12.9653 5.67002 12.9653 3.81347L12.9653 1.89657C12.9653 1.6223 12.7429 1.39996 12.4687 1.39996H7.40759" stroke="#1E222D" stroke-width="1.2"/>
<path d="M9.512 13.4675H10.1843C10.7328 13.4675 11.1775 13.9122 11.1775 14.4607V14.8083H4.92023V14.4607C4.92023 13.9122 5.3649 13.4675 5.91344 13.4675H6.56" stroke="#1E222D" stroke-width="1.2" stroke-linecap="round"/>
<path d="M7.92022 3.40787C7.97773 3.30945 8.11997 3.30945 8.17748 3.40787L8.73962 4.36984C8.76064 4.40582 8.79579 4.43136 8.83651 4.44024L9.92511 4.67759C10.0365 4.70188 10.0804 4.83715 10.0046 4.92226L9.26343 5.75415C9.2357 5.78527 9.22228 5.82658 9.22642 5.86806L9.33707 6.97672C9.34839 7.09015 9.23332 7.17376 9.12894 7.12794L8.10873 6.6801C8.07057 6.66335 8.02713 6.66335 7.98897 6.6801L6.96876 7.12794C6.86438 7.17376 6.74931 7.09015 6.76063 6.97672L6.87128 5.86805C6.87542 5.82658 6.862 5.78527 6.83427 5.75415L6.09309 4.92226C6.01726 4.83715 6.06121 4.70188 6.17259 4.67759L7.26119 4.44024C7.30191 4.43136 7.33705 4.40582 7.35808 4.36984L7.92022 3.40787Z" stroke="#1E222D" stroke-width="1.2"/>
<path d="M3.21352 2.7408H1.72731C1.21764 2.7408 0.785059 3.12738 0.805636 3.63663C0.872058 5.28052 1.54541 7.50825 3.92861 7.65721" stroke="#1E222D" stroke-width="1.2"/>
<path d="M12.7865 2.7408H14.2727C14.7824 2.7408 15.2149 3.12738 15.1944 3.63663C15.1279 5.28052 14.4546 7.50825 12.0714 7.65721" stroke="#1E222D" stroke-width="1.2"/>
</svg>
