<svg width="16" height="16" viewBox="0 0 16 16" fill="none" xmlns="http://www.w3.org/2000/svg">
<circle cx="7.99999" cy="7.99999" r="7.2" stroke="#1E222D" stroke-width="1.2"/>
<path d="M2.29999 3.72452C3.72354 5.24782 5.75057 6.20001 7.99999 6.20001C10.2494 6.20001 12.2764 5.24782 13.7 3.72452" stroke="#1E222D" stroke-width="1.2"/>
<path d="M2.09818 12.5C3.52844 10.8463 5.64205 9.80002 8.00004 9.80002C10.358 9.80002 12.4716 10.8463 13.9019 12.5" stroke="#1E222D" stroke-width="1.2"/>
<path d="M7.4 15.2C5.93006 13.4552 5 10.8767 5 8.00004C5 5.12341 5.93006 2.5449 7.4 0.800043" stroke="#1E222D" stroke-width="1.2"/>
<path d="M8.60006 15.2C10.07 13.4552 11.0001 10.8767 11.0001 8.00004C11.0001 5.12341 10.07 2.5449 8.60006 0.800043" stroke="#1E222D" stroke-width="1.2"/>
</svg>
