<svg width="32" height="32" viewBox="0 0 32 32" fill="none" xmlns="http://www.w3.org/2000/svg">
<g clip-path="url(#clip0_3234_6977)">
<path d="M21.4133 15.6595C21.4245 15.5088 21.43 15.36 21.43 15.2122C21.43 11.9883 18.8068 9.3623 15.583 9.3623C13.2703 9.3623 11.2255 10.7097 10.2817 12.748C9.52198 12.1882 8.59675 11.8786 7.62875 11.8786C5.27987 11.8786 3.3485 13.6918 3.15602 15.9886C1.2758 16.7623 0 18.6276 0 20.6883C0 23.49 2.28007 25.7673 5.07901 25.7673H20.7047C23.5065 25.7673 25.7837 23.49 25.7837 20.6883C25.7837 18.1283 23.8794 16.0044 21.4124 15.6585L21.4133 15.6595Z" fill="#D0D3F2"/>
<path d="M30.2916 11.2323C29.2455 10.3936 27.9018 10.0374 26.2504 10.5414C25.7733 6.9465 23.2059 5.23273 20.4265 5.23273C18.3148 5.23273 16.4745 6.38857 15.5 8.10048C15.5279 8.10048 15.5549 8.09769 15.5828 8.09769C19.3181 8.09769 22.3895 10.9933 22.6722 14.658C24.9327 15.3991 26.6149 17.3788 26.9747 19.7398C27.0435 19.7426 27.1124 19.7454 27.1821 19.7454C29.7886 19.7454 31.9998 17.6401 31.9998 15.0337C31.9998 13.4557 31.4651 12.1724 30.2916 11.2314V11.2323Z" fill="#D0D3F2"/>
</g>
<defs>
<clipPath id="clip0_3234_6977">
<rect width="32" height="20.5346" fill="white" transform="translate(0 5.23273)"/>
</clipPath>
</defs>
</svg>
