<svg width="32" height="32" viewBox="0 0 32 32" fill="none" xmlns="http://www.w3.org/2000/svg">
<path d="M10.6091 9.08084C11.2456 9.08084 11.8633 9.16464 12.4506 9.32142L10.6091 5.59924L8.76758 9.32209C9.35483 9.16599 9.97249 9.08151 10.6091 9.08151V9.08084Z" fill="#FCBB61"/>
<path d="M5.56927 11.1683C6.02001 10.7175 6.51536 10.3411 7.04179 10.0363L3.10742 8.70642L4.43735 12.6408C4.74212 12.1144 5.11853 11.619 5.56927 11.1683Z" fill="#FCBB61"/>
<path d="M3.4816 16.2082C3.4816 15.5717 3.56539 14.954 3.72217 14.3668L0 16.2082L3.72285 18.0497C3.56674 17.4625 3.48227 16.8448 3.48227 16.2082H3.4816Z" fill="#FCBB61"/>
<path d="M5.56927 21.2488C5.11853 20.7981 4.74212 20.3027 4.43735 19.7763L3.10742 23.7107L7.04179 22.3807C6.51536 22.076 6.02001 21.6996 5.56927 21.2488Z" fill="#FCBB61"/>
<path d="M15.6498 11.1683C16.1005 11.619 16.4769 12.1144 16.7817 12.6408L18.1116 8.70642L14.1772 10.0363C14.7037 10.3411 15.199 10.7175 15.6498 11.1683Z" fill="#FCBB61"/>
<path d="M27.932 17.2057C27.9421 17.0651 27.9475 16.9266 27.9475 16.7894C27.9475 13.7883 25.5053 11.3433 22.5041 11.3433C20.3511 11.3433 18.4475 12.5976 17.5689 14.4951C16.8614 13.9741 16.0005 13.6856 15.099 13.6856C12.9122 13.6856 11.1139 15.3736 10.9349 17.5118C9.1846 18.2322 7.99658 19.9689 7.99658 21.8868C7.99658 24.4953 10.1192 26.6152 12.725 26.6152H27.2717C29.8802 26.6152 32.0001 24.4953 32.0001 21.8868C32.0001 19.5033 30.2276 17.526 27.9306 17.2043H27.9313L27.932 17.2057Z" fill="#D0D3F2"/>
<path d="M8.03004 18.7478C8.55715 17.9673 9.26198 17.3415 10.0858 16.9185C10.275 15.8636 10.8034 14.8966 11.6008 14.1586C12.5199 13.3085 13.714 12.8408 14.9635 12.8408C15.2487 12.8408 15.5298 12.8645 15.8055 12.9118C14.7141 11.1947 12.7949 10.0553 10.6095 10.0553C7.211 10.0553 4.45654 12.8104 4.45654 16.2082C4.45654 18.3079 5.50805 20.1608 7.11302 21.2711C7.20357 20.373 7.51578 19.5101 8.03004 18.7478Z" fill="#FCBB61"/>
</svg>
