<svg width="32" height="32" viewBox="0 0 32 32" fill="none" xmlns="http://www.w3.org/2000/svg">
<g clip-path="url(#clip0_3234_6969)">
<path d="M25.5184 10.4375C25.5309 10.2643 25.5371 10.0933 25.5371 9.92335C25.5371 6.21765 22.607 3.19922 19.006 3.19922C16.4228 3.19922 14.1388 4.74798 13.0846 7.0909C12.236 6.44745 11.2025 6.09152 10.1213 6.09152C7.49762 6.09152 5.34032 8.17578 5.12531 10.8158C3.02514 11.7051 1.6001 13.8503 1.6001 16.2189C1.6001 19.4393 4.14689 22.0569 7.27327 22.0569H24.7269C27.8564 22.0569 30.4001 19.4393 30.4001 16.2189C30.4001 13.2763 28.2729 10.8351 25.5174 10.4375H25.5184Z" fill="#D0D3F2"/>
</g>
<path d="M24.559 27.7826C24.147 28.6797 23.3792 29.0846 22.4743 28.6753C21.5694 28.2668 21.3744 27.427 21.7865 26.53C22.5173 24.9408 24.7058 23.8211 24.6976 23.8387C24.6769 23.8835 25.2898 26.1927 24.559 27.7826Z" fill="#5668F1"/>
<path d="M16.6391 27.7826C16.2271 28.6797 15.4593 29.0846 14.5543 28.6753C13.6494 28.2668 13.4545 27.427 13.8666 26.53C14.5973 24.9408 16.7859 23.8211 16.7777 23.8387C16.757 23.8835 17.3699 26.1927 16.6391 27.7826Z" fill="#5668F1"/>
<path d="M8.50338 27.7826C8.09132 28.6797 7.32351 29.0846 6.4186 28.6753C5.51369 28.2668 5.31878 27.427 5.73084 26.53C6.46159 24.9408 8.65012 23.8211 8.64197 23.8387C8.62122 23.8835 9.23413 26.1927 8.50338 27.7826Z" fill="#5668F1"/>
<defs>
<clipPath id="clip0_3234_6969">
<rect width="28.8" height="25.6" fill="white" transform="translate(1.6001 3.19922)"/>
</clipPath>
</defs>
</svg>
