<svg width="32" height="32" viewBox="0 0 32 32" fill="none" xmlns="http://www.w3.org/2000/svg">
<g clip-path="url(#clip0_3234_6958)">
<path d="M15.9998 25.2796C21.1248 25.2796 25.2794 21.125 25.2794 16C25.2794 10.875 21.1248 6.7204 15.9998 6.7204C10.8748 6.7204 6.72021 10.875 6.72021 16C6.72021 21.125 10.8748 25.2796 15.9998 25.2796Z" fill="#FCBB61"/>
<path d="M15.9999 5.25051C16.9603 5.25051 17.8913 5.37737 18.7772 5.61326L15.9999 0L13.2227 5.61431C14.1086 5.37842 15.0396 5.25156 15.9999 5.25156V5.25051Z" fill="#FCBB61"/>
<path d="M15.9999 26.7495C15.0396 26.7495 14.1086 26.6226 13.2227 26.3867L15.9999 32.001L18.7772 26.3867C17.8913 26.6226 16.9603 26.7495 15.9999 26.7495Z" fill="#FCBB61"/>
<path d="M8.39899 8.39893C9.07837 7.71955 9.8259 7.15131 10.6196 6.6921L4.68652 4.68646L6.69216 10.6195C7.15137 9.82584 7.71961 9.07831 8.39899 8.39893Z" fill="#FCBB61"/>
<path d="M23.6009 23.6011C22.9216 24.2804 22.174 24.8487 21.3804 25.3079L27.3134 27.3135L25.3078 21.3805C24.8486 22.1742 24.2803 22.9217 23.6009 23.6011Z" fill="#FCBB61"/>
<path d="M5.25051 16C5.25051 15.0396 5.37737 14.1086 5.61326 13.2227L0 16L5.61431 18.7773C5.37842 17.8914 5.25156 16.9603 5.25156 16H5.25051Z" fill="#FCBB61"/>
<path d="M26.7495 16C26.7495 16.9603 26.6226 17.8914 26.3867 18.7773L32.001 16L26.3867 13.2227C26.6226 14.1086 26.7495 15.0396 26.7495 16Z" fill="#FCBB61"/>
<path d="M8.39899 23.6011C7.71961 22.9217 7.15137 22.1742 6.69216 21.3805L4.68652 27.3135L10.6196 25.3079C9.8259 24.8487 9.07837 24.2804 8.39899 23.6011Z" fill="#FCBB61"/>
<path d="M23.6009 8.39893C24.2803 9.07831 24.8486 9.82584 25.3078 10.6195L27.3134 4.68646L21.3804 6.6921C22.174 7.15131 22.9216 7.71955 23.6009 8.39893Z" fill="#FCBB61"/>
</g>
<defs>
<clipPath id="clip0_3234_6958">
<rect width="32" height="32" fill="white"/>
</clipPath>
</defs>
</svg>
