<svg preserveAspectRatio="none" width="100%" height="100%" overflow="visible" style="display: block;" viewBox="0 0 212 47.4792" fill="none" xmlns="http://www.w3.org/2000/svg">
<g id="logo" clip-path="url(#clip0_0_75)">
<path id="Vector" fill-rule="evenodd" clip-rule="evenodd" d="M0.512364 42.1432C1.02639 41.4054 1.87087 40.9258 3.00907 40.7413C35.0991 35.4659 67.6298 35.429 99.7199 40.5938C100.601 40.7413 101.152 40.9996 101.446 41.2947C101.703 41.553 101.813 41.885 101.739 42.3646C101.666 42.7704 101.482 43.0286 101.189 43.1762C100.821 43.3606 100.234 43.4344 99.3527 43.3237C67.5564 39.4501 35.5397 40.7045 4.184 47.0867C3.89027 47.1236 3.59653 47.1604 3.33952 47.1604H3.08251C2.31146 47.1236 1.76072 46.8653 1.43027 46.644C0.695946 46.1644 0.218633 45.3897 0.0350518 44.5043C-0.0750972 43.6189 0.0717681 42.7704 0.512364 42.1432Z" fill="url(#paint0_linear_0_75)"/>
<path id="Union" d="M122.449 9.18555C124.432 9.18561 126.194 9.66535 127.736 10.6982C129.278 11.7311 130.453 13.133 131.334 14.9404C132.215 16.785 132.656 18.9253 132.656 21.3232C132.656 23.7209 132.215 25.8233 131.334 27.6309C130.453 29.4384 129.278 30.8406 127.736 31.7998C126.194 32.7958 124.432 33.2753 122.449 33.2754C120.577 33.2754 118.924 32.8326 117.529 31.9473C116.538 31.3201 115.804 30.5087 115.253 29.5127V43.1631H108.387V16.416C108.387 15.3094 108.35 14.2023 108.313 13.0957C108.277 11.9893 108.166 10.8828 108.02 9.77637H114.481L114.922 13.7236C115.436 12.4324 116.281 11.3624 117.529 10.5508C118.924 9.62861 120.577 9.18555 122.449 9.18555ZM172.751 9.18555C174.623 9.18562 176.275 9.66568 177.707 10.5879C178.735 11.2519 179.543 12.0635 180.094 13.0596V9.77637H186.923V31.8369C186.923 35.5629 185.858 38.3668 183.766 40.2852C181.673 42.2035 178.552 43.1621 174.477 43.1621C170.842 43.1621 167.647 42.4612 164.93 41.0225L165.958 35.8945C167.353 36.5955 168.712 37.1123 170.107 37.4443C171.502 37.7763 172.898 37.9609 174.256 37.9609C176.239 37.9609 177.707 37.518 178.662 36.5957C179.653 35.6735 180.131 34.2718 180.131 32.3906V28.332C179.8 28.8116 179.433 29.2917 178.992 29.7344C178.221 30.509 177.303 31.0996 176.238 31.5791C175.137 32.0585 173.999 32.2792 172.751 32.2793C170.732 32.2793 168.969 31.8 167.427 30.8408C165.885 29.8816 164.673 28.5532 163.792 26.8193C162.911 25.0855 162.47 23.0565 162.47 20.7324C162.47 18.4084 162.911 16.4164 163.792 14.6826C164.673 12.9856 165.885 11.6203 167.427 10.6611C168.969 9.66512 170.768 9.18555 172.751 9.18555ZM13.5479 0C15.0899 0 16.5958 0.147207 18.0645 0.442383C19.533 0.774448 20.8913 1.18095 22.1396 1.73438C23.3512 2.25092 24.4163 2.95175 25.2607 3.72656L22.9844 8.85547C21.5158 7.74857 20.0104 6.90014 18.4316 6.34668C16.8529 5.79325 15.2742 5.53519 13.6221 5.53516C11.7863 5.53516 10.3173 5.90365 9.21582 6.6416C8.1144 7.37951 7.56354 8.37568 7.56348 9.66699C7.56348 10.368 7.74693 10.9588 8.1875 11.4385C8.6281 11.9181 9.32604 12.3605 10.3174 12.7295C11.3087 13.1353 12.667 13.5043 14.3926 13.9102C16.412 14.3529 18.1749 14.8325 19.6436 15.4229C21.1488 16.0132 22.3599 16.6781 23.3145 17.416C24.2691 18.154 24.9672 19.0397 25.3711 19.999C25.8483 20.9952 26.0684 22.1023 26.0684 23.3936C26.0683 25.4228 25.5549 27.1941 24.4902 28.6699C23.4255 30.1458 21.8831 31.2898 19.9004 32.1016C17.881 32.9133 15.4941 33.3184 12.667 33.3184C11.0515 33.3184 9.4356 33.1712 7.89355 32.876C6.35163 32.5808 4.88279 32.1384 3.52441 31.585C2.16597 31.0315 0.991305 30.3295 0 29.5547L2.31348 24.4268C3.92886 25.5335 5.58113 26.3821 7.30664 26.9355C9.03217 27.489 10.8312 27.747 12.7402 27.7471C14.7961 27.7471 16.3751 27.415 17.4766 26.751C18.5781 26.0868 19.1289 25.1641 19.1289 23.9834C19.1289 23.2825 18.8721 22.6925 18.4316 22.2129C17.9911 21.6964 17.2569 21.2899 16.2656 20.9209C15.2744 20.552 13.9157 20.1834 12.2637 19.8145C10.1708 19.3717 8.371 18.8921 6.90234 18.3018C5.43376 17.7483 4.22257 17.0834 3.30469 16.3086C2.38683 15.5707 1.72575 14.6854 1.28516 13.6523C0.881313 12.6193 0.661172 11.4385 0.661133 10.1104C0.661133 8.19168 1.21161 6.49403 2.27637 4.94434C3.37786 3.43153 4.88372 2.21367 6.79297 1.32812C8.73871 0.442767 10.9781 5.35353e-05 13.5479 0ZM54.707 9.18555C56.5795 9.18555 58.1951 9.6286 59.627 10.5508C60.655 11.2148 61.4268 12.0264 61.9775 13.0225H62.0137V9.77637H68.7695V32.9434H62.0137V29.5127C61.4629 30.5087 60.6921 31.3572 59.6641 31.9844C58.2321 32.8698 56.5799 33.3125 54.7441 33.3125C52.7247 33.3125 50.962 32.7961 49.4199 31.8369C47.878 30.8409 46.6667 29.4755 45.8223 27.668C44.9778 25.8603 44.5371 23.7573 44.5371 21.3594C44.5372 18.9247 44.9411 16.822 45.8223 14.9775C46.7034 13.1331 47.878 11.7312 49.4199 10.6982C50.9619 9.70224 52.7245 9.18561 54.707 9.18555ZM145.103 9.18555C146.975 9.18555 148.591 9.6286 150.022 10.5508C151.051 11.2148 151.822 12.0264 152.373 13.0225V9.77637H159.165V32.9434H152.409V29.5127C151.858 30.5087 151.088 31.3572 150.06 31.9844C148.628 32.8698 146.975 33.3125 145.14 33.3125C143.12 33.3125 141.358 32.7961 139.815 31.8369C138.273 30.8409 137.062 29.4756 136.218 27.668C135.373 25.8603 134.933 23.7573 134.933 21.3594C134.933 18.9247 135.337 16.822 136.218 14.9775C137.099 13.1331 138.273 11.7312 139.815 10.6982C141.357 9.70223 143.12 9.18561 145.103 9.18555ZM98.9873 9.73926H104.861V14.9043H98.9873V23.9424C98.9873 24.8278 99.1705 25.5658 99.501 26.1191C99.8314 26.6725 100.272 27.0785 100.823 27.2998C101.374 27.521 101.961 27.6318 102.585 27.6318C102.952 27.6318 103.32 27.5945 103.65 27.5576C104.017 27.4839 104.421 27.4106 104.861 27.3369V32.6123C104.237 32.8705 103.576 33.0551 102.952 33.1289C102.291 33.2395 101.631 33.2764 100.896 33.2764C98.0693 33.2764 95.9028 32.464 94.3975 30.8408C92.8922 29.2176 92.1582 26.9301 92.1582 24.0527V4.35352L98.9873 2.11426V9.73926ZM201.499 9.0752C203.628 9.0752 205.501 9.55461 207.08 10.5137C208.659 11.4728 209.87 12.8015 210.715 14.5723C211.559 16.343 212 18.4087 212 20.8066L211.927 23.0938H196.91C197.13 24.4587 197.571 25.529 198.231 26.3037C199.259 27.4473 200.802 28.0371 202.895 28.0371C204.106 28.0371 205.318 27.8531 206.493 27.4473C207.668 27.0415 208.769 26.4878 209.761 25.75L211.56 30.3984C210.458 31.2838 209.1 31.9484 207.484 32.4648C205.906 32.9444 204.29 33.2021 202.638 33.2021C200.068 33.2021 197.865 32.6857 195.992 31.7266C194.12 30.7305 192.688 29.3653 191.696 27.5576C190.705 25.7869 190.19 23.6474 190.19 21.1758C190.19 18.7779 190.705 16.6748 191.659 14.8672C192.614 13.0226 193.936 11.6208 195.625 10.5879C197.314 9.59193 199.26 9.07525 201.499 9.0752ZM87.5684 9.22266C88.0455 9.22266 88.4494 9.25929 88.8164 9.33301V15.4941C88.0823 15.2729 87.3483 15.1621 86.6143 15.1621C85.4026 15.1621 84.3742 15.4206 83.5664 15.8633C82.7587 16.3428 82.1349 16.97 81.6943 17.8184C81.2537 18.6669 81.0332 19.663 81.0332 20.8066V32.9072H74.167V16.3799C74.167 15.2732 74.1305 14.1662 74.0938 13.0596C74.057 11.9529 73.9467 10.8459 73.7998 9.73926H80.2617L80.7393 13.7598C81.2166 12.5425 81.9146 11.5463 82.8691 10.8086C84.2275 9.73896 85.8062 9.22269 87.5684 9.22266ZM56.6904 14.498C55.0383 14.498 53.7163 15.0884 52.7617 16.3057C51.8072 17.523 51.3292 19.183 51.3291 21.3594C51.3291 23.4991 51.8067 25.1601 52.7246 26.3037C53.6425 27.4472 54.9649 28 56.6904 28C58.3791 27.9999 59.6642 27.4101 60.582 26.2666C61.4999 25.123 61.9775 23.4628 61.9775 21.3232C61.9775 19.1098 61.4999 17.4491 60.582 16.2686C59.6642 15.0882 58.3424 14.4981 56.6904 14.498ZM120.503 14.4238C118.777 14.4238 117.455 15.0148 116.537 16.1953C115.619 17.3758 115.179 19.0727 115.179 21.249C115.179 23.4256 115.619 25.123 116.537 26.2666C117.455 27.4102 118.777 28 120.503 28C122.192 28 123.477 27.4471 124.395 26.3037C125.312 25.1601 125.753 23.4996 125.79 21.2861C125.79 19.1464 125.312 17.4489 124.395 16.2314C123.477 15.0512 122.155 14.4238 120.503 14.4238ZM147.122 14.498C145.47 14.4981 144.148 15.0883 143.193 16.3057C142.239 17.523 141.762 19.2199 141.762 21.3594C141.762 23.4991 142.239 25.1601 143.157 26.3037C144.075 27.447 145.397 28 147.122 28C148.811 28 150.097 27.4102 151.015 26.2666C151.932 25.123 152.372 23.4627 152.409 21.3232C152.409 19.1098 151.933 17.4491 151.015 16.2686C150.097 15.088 148.774 14.498 147.122 14.498ZM174.77 14.4609C173.081 14.461 171.722 15.0144 170.768 16.1211C169.776 17.2277 169.299 18.7403 169.299 20.6953C169.299 22.6506 169.776 24.2009 170.768 25.3076C171.759 26.4512 173.081 27.0039 174.733 27.0039C176.386 27.0039 177.708 26.4504 178.662 25.3438C179.617 24.237 180.094 22.6875 180.131 20.7324C180.131 18.8142 179.69 17.2649 178.735 16.1582C177.781 15.0146 176.458 14.4609 174.77 14.4609ZM201.683 13.9453C200.104 13.9454 198.893 14.4983 198.012 15.6416C197.498 16.3794 197.13 17.2655 196.91 18.4092H206.089C205.942 17.1551 205.612 16.1587 205.024 15.4209C204.253 14.4248 203.151 13.9453 201.683 13.9453ZM98.9873 2.11426V2.10254H99.0234L98.9873 2.11426Z" fill="var(--fill-0, #1E222D)"/>
</g>
<defs>
<linearGradient id="paint0_linear_0_75" x1="10.4551" y1="37.2321" x2="101.592" y2="47.1534" gradientUnits="userSpaceOnUse">
<stop stop-color="#5668F1"/>
<stop offset="1" stop-color="#5AECDE"/>
</linearGradient>
<clipPath id="clip0_0_75">
<rect width="212" height="47.4792" fill="white"/>
</clipPath>
</defs>
</svg>
