<svg preserveAspectRatio="none" width="100%" height="100%" overflow="visible" style="display: block;" viewBox="0 0 20 20" fill="none" xmlns="http://www.w3.org/2000/svg">
<g id="_1" clip-path="url(#clip0_0_25)">
<path id="Vector" d="M6.79893 7.47008L6.97836 8.08918C6.4688 8.14902 5.83434 8.24741 5.50656 8.68412C4.89204 9.5046 4.89967 10.5972 5.22334 11.5432C5.46376 12.2457 5.86308 12.8216 6.35856 13.3671C7.03758 14.1145 7.88078 14.6623 8.86061 14.9327C10.1014 15.2756 11.5527 14.9879 11.8499 13.7486C12.0898 13.6703 12.3108 13.6933 12.5489 13.7957L12.3179 14.4545C12.0651 15.1381 11.5661 15.6692 10.8689 15.9632L7.64682 17.3228L5.67075 18.1461L2.86261 19.3487C2.14313 19.6565 0.866595 20.2284 0.430334 19.9028C0.143597 19.6893 0.361728 18.7238 0.564026 18.172L2.18476 13.7491L3.29183 10.9333C3.55511 10.2629 3.83423 9.63291 4.20775 9.01611C4.82813 7.99195 5.60038 7.6168 6.79834 7.46951L6.79893 7.47008Z" fill="var(--fill-0, #FDB22B)"/>
<path id="Vector_2" d="M11.7479 10.0173C11.4764 9.92923 11.1621 10.0351 11.0155 10.2514C10.8496 10.2595 10.768 10.3694 10.6631 10.4735C10.2679 10.8654 10.0175 11.347 9.79994 11.8717L8.75385 11.8527C8.89458 11.0604 9.18953 10.34 9.59882 9.65708L9.99521 9.11335C10.2268 9.06444 10.3447 8.79689 10.5353 8.74338L11.6242 8.43613L12.5031 8.25432C12.455 7.33487 11.8822 6.68182 12.044 5.66628C12.1337 5.10127 12.5453 4.63636 13.1053 4.42635C14.0353 4.07768 15.0632 4.29056 15.8924 4.81588C16.1527 4.98101 16.362 5.17261 16.6781 5.25029C17.0094 5.33199 17.4621 5.16974 17.6456 4.87112C18.0766 4.16974 17.1501 2.4695 16.7573 1.55293L18.6671 0.791714C19.1227 1.7641 19.4165 2.74166 19.5883 3.77158C19.5906 4.23936 19.634 4.68757 19.5572 5.12428C19.3795 6.13866 18.5985 6.80955 17.5799 6.87227C17.3354 6.88723 17.1325 6.92693 16.8886 6.8878C15.3494 6.64384 14.8093 5.56674 13.9245 5.81128C13.7673 5.85443 13.8107 6.17319 13.8483 6.28999L14.1491 7.22209C14.3555 7.86191 14.4856 8.64787 14.0336 9.07595C13.7451 9.34925 13.3891 9.55466 12.9986 9.65995L12.0845 9.90564C11.9543 9.94074 11.8253 9.92348 11.7473 10.0173H11.7479Z" fill="var(--fill-0, #24C5B6)"/>
<path id="Vector_3" d="M8.27132 7.57477L8.39504 8.22954C8.62725 9.46027 7.77349 10.7595 6.8394 11.6219C6.55677 11.3089 6.19497 11.1289 6.16566 10.9821C6.12695 10.7888 7.47151 9.78708 6.97837 8.08858L6.79894 7.46947C6.67111 7.02874 6.55383 6.55636 6.56556 6.09433C6.57084 5.8987 6.6154 5.82563 6.48757 5.65072C6.06011 5.06614 5.6819 4.36361 5.69363 3.60584C5.71063 2.55348 6.25713 1.62598 7.01003 0.921718C7.70019 0.367633 8.49121 0.0586572 9.40126 -0.000606336L10.0686 1.75083C9.39129 1.74508 8.73631 1.81182 8.10303 2.03737C7.26569 2.33599 6.8136 3.38374 7.19826 4.22149C7.6269 3.71228 8.12121 3.34347 8.7586 3.15302C9.80703 2.84059 10.8027 3.35095 11.1709 4.39755C11.4049 5.06269 11.2219 5.81125 10.6649 6.28593C9.94072 6.90273 8.94917 7.07937 8.04733 6.84577C8.07078 7.14611 8.22851 7.3498 8.27073 7.57419L8.27132 7.57477ZM9.86274 5.12655C10.0181 4.90503 9.7783 4.58397 9.62349 4.47983C9.20541 4.19847 8.30181 4.78363 8.09893 5.3895C8.62783 5.76061 9.47045 5.68582 9.86274 5.12713V5.12655Z" fill="var(--fill-0, #BA6FD7)"/>
<path id="Vector_4" d="M12.5496 13.7952C12.3116 13.6933 12.0905 13.6697 11.8507 13.748L11.1476 13.9776C10.4106 14.2186 9.66821 14.1956 8.92059 14.023L8.28613 13.8769L8.74468 12.8285C9.44715 13.0995 10.1379 13.0414 10.7565 12.6749C11.15 12.4419 11.537 12.2664 12.009 12.1945C12.2183 12.1623 12.4335 12.2296 12.6511 12.2756C13.1149 12.374 13.5095 12.6421 13.8778 12.9384C14.5404 13.4724 15.4674 14.0328 15.8767 13.3366C16.0122 13.1064 16.1535 12.8389 16.1805 12.5598C16.3165 11.1519 16.649 10.0708 17.98 9.48849C18.4949 9.26295 19.0273 9.09666 19.6195 9.08458L19.823 11.076C18.9857 10.9839 18.2427 11.2952 18.1038 12.0846L17.844 13.5633C17.5936 14.9879 16.2338 15.6047 14.9151 15.2336C13.815 14.9241 13.2322 14.0875 12.5496 13.7946V13.7952Z" fill="var(--fill-0, #5668F1)"/>
<path id="Vector_5" d="M4.49108 7.45224L2.739 6.60299L3.60625 5.35616L5.00533 6.25662L4.49108 7.45224Z" fill="var(--fill-0, #FDB22B)"/>
<path id="Vector_6" d="M13.2649 3.3435L11.9069 3.62428L11.5216 1.8855L12.8726 1.59609L13.2649 3.3435Z" fill="var(--fill-0, #FDB22B)"/>
<path id="Vector_7" d="M15.7108 18.164L14.3416 18.0408C14.3598 17.5955 14.195 17.2365 13.9376 16.8446L15.0312 16.027C15.5009 16.6433 15.7618 17.3556 15.7108 18.164Z" fill="var(--fill-0, #BA6FD7)"/>
<path id="Vector_8" d="M3.49586 2.8855L2.1947 2.48562C2.28734 2.02647 2.37706 1.57768 2.27444 1.09379L3.6659 0.863061C3.75445 1.54891 3.73862 2.22094 3.49527 2.8855H3.49586Z" fill="var(--fill-0, #5668F1)"/>
<path id="Vector_9" d="M1.93034 5.08343C1.34514 5.10184 0.554709 4.62083 0 4.17549L0.875455 3.13176C1.26129 3.40622 1.61546 3.66744 2.09042 3.78021L1.93093 5.08343H1.93034Z" fill="var(--fill-0, #FDB22B)"/>
<path id="Vector_10" d="M19.0613 19.5898L17.7431 18.3067L18.703 17.3585L20.0001 18.6421L19.0613 19.5898Z" fill="var(--fill-0, #24C5B6)"/>
<path id="Vector_11" d="M14.8498 2.31818L13.8723 1.35213C14.1749 1.04143 14.3631 0.732453 14.4892 0.287688L15.8484 0.4977C15.7124 1.19448 15.3746 1.77791 14.8492 2.31818H14.8498Z" fill="var(--fill-0, #FDB22B)"/>
<path id="Vector_12" d="M19.7714 15.1726L19.5696 16.4776C19.0607 16.416 18.5898 16.389 18.0416 16.4108C17.9806 15.9597 17.9671 15.5207 17.9753 15.0598C18.2831 15.0098 18.5681 15.0604 18.8783 15.0782C19.178 15.0949 19.4594 15.0667 19.7714 15.1726Z" fill="var(--fill-0, #FDB22B)"/>
<path id="Vector_13" d="M15.9376 10.9879L14.7989 11.9626L13.8132 10.8493L14.9297 9.88262L15.9376 10.9879Z" fill="var(--fill-0, #BA6FD7)"/>
<path id="Vector_14" d="M16.9626 8.35616L15.7371 8.70138L15.3495 7.43498L16.5334 7.06559L16.9626 8.35616Z" fill="var(--fill-0, #FDB22B)"/>
<path id="Vector_15" d="M11.748 10.0173C12.247 10.6749 12.5906 11.4528 12.6504 12.2756C12.4335 12.2296 12.2177 12.1623 12.0084 12.1945C11.7908 11.4845 11.4953 10.8193 11.0156 10.2514C11.1622 10.0351 11.4765 9.92923 11.748 10.0173Z" fill="var(--fill-0, #FDB22B)"/>
<path id="Vector_16" d="M10.5353 8.74339C10.3447 8.79747 10.2274 9.06444 9.99524 9.11335C9.52027 8.73878 8.99195 8.39931 8.39444 8.22958L8.27071 7.5748C9.1145 7.74914 9.88558 8.16053 10.5347 8.74339H10.5353Z" fill="var(--fill-0, #FDB22B)"/>
<path id="Vector_17" d="M6.97896 8.08861C7.4721 9.78711 6.12755 10.7894 6.16625 10.9822C6.19557 11.1289 6.55736 11.309 6.83999 11.622C7.7735 10.7601 8.62784 9.4603 8.39564 8.22957C8.99257 8.39931 9.52148 8.73878 9.99644 9.11335L9.60005 9.65708C9.19018 10.34 8.89582 11.0604 8.75509 11.8527L9.80118 11.8717C10.0187 11.347 10.2691 10.8654 10.6643 10.4735C10.7693 10.3694 10.8508 10.2595 11.0167 10.2514C11.4958 10.8193 11.7919 11.4845 12.0095 12.1945C11.5374 12.267 11.151 12.4419 10.757 12.6749C10.1383 13.0414 9.44759 13.1001 8.74512 12.8285L8.28658 13.8769L8.92103 14.023C9.66866 14.1956 10.411 14.2186 11.1481 13.9776L11.8511 13.748C11.5538 14.9879 10.1032 15.275 8.86181 14.9321C7.88198 14.6611 7.03877 14.1139 6.35976 13.3665C5.86427 12.8211 5.46495 12.2451 5.22454 11.5426C4.90086 10.5967 4.89265 9.50403 5.50776 8.68354C5.83554 8.24626 6.46999 8.14787 6.97955 8.08861H6.97896Z" fill="var(--fill-0, #1E222D)"/>
</g>
<defs>
<clipPath id="clip0_0_25">
<rect width="20" height="20" fill="white"/>
</clipPath>
</defs>
</svg>
