<svg viewBox="0 0 13.124 15.969" fill="none" xmlns="http://www.w3.org/2000/svg">
<g id="Group 1171277714">
<path id="Union" d="M6.15527 0.0745424C6.41743 -0.0248475 6.7066 -0.0248475 6.96875 0.0745424L12.3721 2.12337C12.824 2.29473 13.124 2.73203 13.124 3.22005V8.00032C13.124 10.5717 11.4465 12.576 10.0264 13.8324C9.29212 14.4819 8.56352 14.9882 8.02051 15.3314C7.74789 15.5036 7.51886 15.6374 7.35547 15.7288C7.27383 15.7745 7.20782 15.8095 7.16113 15.8343C7.13787 15.8467 7.11908 15.8566 7.10547 15.8636L7.08887 15.8724L7.08105 15.8763H7.08008C6.75025 15.9998 6.49955 16.0001 6.04297 15.8763L6.03516 15.8724L6.01855 15.8636C6.00494 15.8566 5.9862 15.8467 5.96289 15.8343C5.91619 15.8095 5.85024 15.7746 5.76855 15.7288C5.60516 15.6374 5.37618 15.5037 5.10352 15.3314C4.5605 14.9882 3.83193 14.4819 3.09766 13.8324C1.67749 12.576 4.49124e-05 10.5717 0 8.00032V3.22005C0 2.73215 0.299194 2.29481 0.750977 2.12337L6.15527 0.0745424Z" fill="currentColor"/>
<path id="Vector 327" d="M4 8.25024L5.55608 10.0286C5.65767 10.1447 5.83914 10.142 5.93721 10.0229L9.25 6.00024" stroke="var(--color-whisper-0)" stroke-width="1.5" stroke-linecap="round"/>
</g>
</svg>
