<svg preserveAspectRatio="none" width="100%" height="100%" overflow="visible" style="display: block;" viewBox="0 0 16 16" fill="none" xmlns="http://www.w3.org/2000/svg">
<g id="settings" clip-path="url(#clip0_0_139)">
<path id="Vector" d="M8 10C9.10457 10 10 9.10457 10 8C10 6.89543 9.10457 6 8 6C6.89543 6 6 6.89543 6 8C6 9.10457 6.89543 10 8 10Z" stroke="var(--stroke-0, #2E39B3)" stroke-linecap="round" stroke-linejoin="round"/>
<path id="Vector_2" d="M12.9346 10.0003C12.8459 10.2014 12.8194 10.4245 12.8586 10.6407C12.8978 10.857 13.0009 11.0565 13.1546 11.2137L13.1946 11.2537C13.3186 11.3775 13.417 11.5245 13.484 11.6864C13.5511 11.8483 13.5857 12.0218 13.5857 12.197C13.5857 12.3722 13.5511 12.5457 13.484 12.7076C13.417 12.8694 13.3186 13.0165 13.1946 13.1403C13.0708 13.2643 12.9238 13.3626 12.7619 13.4297C12.6 13.4968 12.4265 13.5314 12.2513 13.5314C12.0761 13.5314 11.9026 13.4968 11.7407 13.4297C11.5789 13.3626 11.4318 13.2643 11.308 13.1403L11.268 13.1003C11.1109 12.9466 10.9113 12.8435 10.695 12.8043C10.4788 12.7651 10.2557 12.7916 10.0546 12.8803C9.85746 12.9648 9.68929 13.1052 9.57084 13.284C9.45239 13.4629 9.38883 13.6725 9.38797 13.887V14.0003C9.38797 14.3539 9.24749 14.6931 8.99745 14.9431C8.7474 15.1932 8.40826 15.3337 8.05464 15.3337C7.70101 15.3337 7.36188 15.1932 7.11183 14.9431C6.86178 14.6931 6.7213 14.3539 6.7213 14.0003V13.9403C6.71614 13.7197 6.64472 13.5057 6.51631 13.3261C6.3879 13.1466 6.20846 13.0098 6.0013 12.9337C5.80023 12.8449 5.57717 12.8184 5.36091 12.8577C5.14465 12.8969 4.94509 13 4.78797 13.1537L4.74797 13.1937C4.62414 13.3176 4.47709 13.416 4.31522 13.4831C4.15336 13.5502 3.97986 13.5847 3.80464 13.5847C3.62942 13.5847 3.45591 13.5502 3.29405 13.4831C3.13218 13.416 2.98513 13.3176 2.8613 13.1937C2.73733 13.0698 2.63899 12.9228 2.57189 12.7609C2.50479 12.599 2.47025 12.4255 2.47025 12.2503C2.47025 12.0751 2.50479 11.9016 2.57189 11.7397C2.63899 11.5779 2.73733 11.4308 2.8613 11.307L2.9013 11.267C3.05499 11.1099 3.15809 10.9103 3.19731 10.6941C3.23652 10.4778 3.21005 10.2547 3.1213 10.0537C3.03679 9.85648 2.89647 9.68831 2.71761 9.56986C2.53875 9.45141 2.32916 9.38785 2.11464 9.38699H2.0013C1.64768 9.38699 1.30854 9.24652 1.05849 8.99647C0.808445 8.74642 0.667969 8.40728 0.667969 8.05366C0.667969 7.70004 0.808445 7.3609 1.05849 7.11085C1.30854 6.8608 1.64768 6.72033 2.0013 6.72033H2.0613C2.28197 6.71516 2.49597 6.64374 2.6755 6.51533C2.85503 6.38693 2.99178 6.20748 3.06797 6.00033C3.15671 5.79925 3.18318 5.5762 3.14397 5.35993C3.10476 5.14367 3.00166 4.94411 2.84797 4.78699L2.80797 4.74699C2.684 4.62316 2.58566 4.47611 2.51856 4.31425C2.45146 4.15238 2.41692 3.97888 2.41692 3.80366C2.41692 3.62844 2.45146 3.45494 2.51856 3.29307C2.58566 3.13121 2.684 2.98416 2.80797 2.86033C2.9318 2.73636 3.07885 2.63801 3.24072 2.57091C3.40258 2.50381 3.57608 2.46928 3.7513 2.46928C3.92652 2.46928 4.10003 2.50381 4.26189 2.57091C4.42375 2.63801 4.57081 2.73636 4.69464 2.86033L4.73464 2.90033C4.89176 3.05402 5.09131 3.15712 5.30758 3.19633C5.52384 3.23554 5.74689 3.20907 5.94797 3.12033H6.0013C6.19848 3.03582 6.36665 2.8955 6.4851 2.71664C6.60355 2.53778 6.66711 2.32818 6.66797 2.11366V2.00033C6.66797 1.6467 6.80845 1.30757 7.05849 1.05752C7.30854 0.807468 7.64768 0.666992 8.0013 0.666992C8.35492 0.666992 8.69406 0.807468 8.94411 1.05752C9.19416 1.30757 9.33464 1.6467 9.33464 2.00033V2.06033C9.33549 2.27485 9.39906 2.48444 9.51751 2.6633C9.63596 2.84216 9.80412 2.98248 10.0013 3.06699C10.2024 3.15574 10.4254 3.18221 10.6417 3.143C10.858 3.10378 11.0575 3.00068 11.2146 2.84699L11.2546 2.80699C11.3785 2.68302 11.5255 2.58468 11.6874 2.51758C11.8492 2.45048 12.0227 2.41594 12.198 2.41594C12.3732 2.41594 12.5467 2.45048 12.7086 2.51758C12.8704 2.58468 13.0175 2.68302 13.1413 2.80699C13.2653 2.93082 13.3636 3.07787 13.4307 3.23974C13.4978 3.4016 13.5324 3.5751 13.5324 3.75033C13.5324 3.92555 13.4978 4.09905 13.4307 4.26091C13.3636 4.42278 13.2653 4.56983 13.1413 4.69366L13.1013 4.73366C12.9476 4.89078 12.8445 5.09034 12.8053 5.3066C12.7661 5.52286 12.7926 5.74592 12.8813 5.94699V6.00033C12.9658 6.19751 13.1061 6.36567 13.285 6.48412C13.4639 6.60257 13.6734 6.66614 13.888 6.66699H14.0013C14.3549 6.66699 14.6941 6.80747 14.9441 7.05752C15.1942 7.30757 15.3346 7.6467 15.3346 8.00033C15.3346 8.35395 15.1942 8.69309 14.9441 8.94313C14.6941 9.19318 14.3549 9.33366 14.0013 9.33366H13.9413C13.7268 9.33451 13.5172 9.39808 13.3383 9.51653C13.1595 9.63498 13.0191 9.80315 12.9346 10.0003V10.0003Z" stroke="var(--stroke-0, #2E39B3)" stroke-linecap="round" stroke-linejoin="round"/>
</g>
<defs>
<clipPath id="clip0_0_139">
<rect width="16" height="16" fill="white"/>
</clipPath>
</defs>
</svg>
