<svg preserveAspectRatio="none" width="100%" height="100%" overflow="visible" style="display: block;" viewBox="0 0 12.7038 31.1732" fill="none" xmlns="http://www.w3.org/2000/svg">
<path id="Vector" d="M6.86594 0L0 2.25037V7.6734V12.8382V21.9503C0 24.8279 0.734325 27.1151 2.23969 28.7384C3.74506 30.3616 5.91132 31.1732 8.73847 31.1732C9.4728 31.1732 10.1337 31.1363 10.7946 31.0256C11.4188 30.9518 12.0797 30.7674 12.7038 30.5091V25.2337C12.2632 25.3075 11.8594 25.3812 11.4922 25.455C11.1617 25.4919 10.7946 25.5288 10.4274 25.5288C9.80325 25.5288 9.21579 25.4181 8.66504 25.1968C8.1143 24.9754 7.6737 24.5696 7.34326 24.0163C7.01281 23.4629 6.82923 22.7251 6.82923 21.8397V12.8013H12.7038V7.63651H6.82923V0H6.86594Z" fill="var(--fill-0, #1E222D)"/>
</svg>
