<svg width="104" height="23" viewBox="0 0 104 23" fill="none" xmlns="http://www.w3.org/2000/svg">
<g clip-path="url(#clip0_8_383)">
<path fill-rule="evenodd" clip-rule="evenodd" d="M0.468313 20.5874C0.720478 20.23 1.13475 19.9976 1.69311 19.9083C17.4354 17.3527 33.3938 17.3349 49.1361 19.8368C49.5684 19.9083 49.8386 20.0334 49.9827 20.1763C50.1088 20.3014 50.1628 20.4623 50.1268 20.6946C50.0908 20.8912 50.0007 21.0163 49.8566 21.0878C49.6765 21.1771 49.3883 21.2129 48.956 21.1593C33.3578 19.2828 17.6515 19.8904 2.26949 22.9821C2.1254 23 1.9813 23.0178 1.85522 23.0178H1.72914C1.35089 23 1.08071 22.8749 0.918607 22.7676C0.558372 22.5353 0.324219 22.16 0.23416 21.7311C0.180125 21.3022 0.252172 20.8912 0.468313 20.5874Z" fill="url(#paint0_linear_8_383)"/>
<path fill-rule="evenodd" clip-rule="evenodd" d="M11.4375 8.43512C10.9692 8.0777 10.3748 7.75602 9.6363 7.47009C8.91583 7.18415 8.05126 6.95183 7.06062 6.73737C6.21406 6.54079 5.54763 6.36208 5.06131 6.1655C4.57499 5.98679 4.23277 5.77234 4.01663 5.54002C3.80048 5.30769 3.71043 5.02176 3.71043 4.68221C3.71043 4.05672 3.9806 3.5742 4.52096 3.21678C5.06131 2.85936 5.78178 2.68065 6.68237 2.68065C7.4929 2.68065 8.2674 2.80575 9.04191 3.07382C9.81642 3.34188 10.5549 3.75291 11.2754 4.28904L12.3921 1.80497C11.9778 1.42968 11.4555 1.09013 10.8611 0.839938C10.2487 0.571873 9.58226 0.375291 8.86179 0.214452C8.14132 0.0714841 7.40284 0 6.64635 0C5.38552 0 4.2868 0.214452 3.33218 0.643357C2.39557 1.07226 1.65708 1.662 1.11673 2.39472C0.594388 3.1453 0.324212 3.96737 0.324212 4.89666C0.324212 5.54002 0.432283 6.11189 0.630412 6.61228C0.846553 7.11267 1.17077 7.54157 1.62106 7.89899C2.07135 8.27428 2.66574 8.59596 3.38621 8.86402C4.10668 9.14996 4.98926 9.38228 6.01593 9.59674C6.82646 9.77545 7.4929 9.95416 7.97922 10.1329C8.46553 10.3116 8.82577 10.5082 9.04191 10.7584C9.25805 10.9907 9.38413 11.2766 9.38413 11.6162C9.38413 12.188 9.11396 12.6348 8.5736 12.9565C8.03325 13.2782 7.25875 13.439 6.25009 13.439C5.31347 13.439 4.4309 13.3139 3.58434 13.0458C2.73779 12.7778 1.92726 12.3667 1.13474 11.8306L0 14.3147C0.486318 14.69 1.06269 15.0295 1.72913 15.2976C2.39557 15.5657 3.11604 15.7801 3.87253 15.9231C4.62903 16.066 5.42154 16.1375 6.21406 16.1375C7.60097 16.1375 8.77173 15.9409 9.76238 15.5478C10.735 15.1546 11.4915 14.6006 12.0139 13.8858C12.5362 13.1709 12.7884 12.3131 12.7884 11.3302C12.7884 10.7047 12.6803 10.1686 12.4461 9.68609C12.248 9.22145 11.9058 8.79254 11.4375 8.43512ZM17.7416 1.01869L17.7235 1.02452V1.01869H17.7416ZM17.7235 1.02452V4.71799H20.6054V7.21993H17.7235V11.5983C17.7235 12.0272 17.8136 12.3847 17.9757 12.6527C18.1378 12.9208 18.354 13.1174 18.6241 13.2246C18.8943 13.3318 19.1825 13.3854 19.4887 13.3854C19.6688 13.3854 19.8489 13.3676 20.011 13.3497C20.1912 13.3139 20.3893 13.2782 20.6054 13.2425V15.798C20.2992 15.9231 19.975 16.0125 19.6688 16.0482C19.3446 16.1018 19.0204 16.1197 18.6602 16.1197C17.2733 16.1197 16.2106 15.7265 15.4721 14.9402C14.7336 14.1539 14.3734 13.0459 14.3734 11.6519V7.2378V4.73586V2.10882L17.7235 1.02452ZM29.2511 5.111C29.7554 5.43268 30.1337 5.82584 30.4039 6.30836H30.4219V4.73571H33.736V15.9587H30.4219V14.2967C30.1517 14.7792 29.7734 15.1903 29.2691 15.4941C28.5666 15.923 27.7561 16.1374 26.8555 16.1374C25.8649 16.1374 25.0003 15.8872 24.2438 15.4226C23.4873 14.9401 22.8929 14.2788 22.4787 13.4032C22.0644 12.5275 21.8483 11.5088 21.8483 10.3472C21.8483 9.16772 22.0464 8.14908 22.4787 7.25552C22.9109 6.36197 23.4873 5.68287 24.2438 5.18249C25.0003 4.69997 25.8649 4.44977 26.8375 4.44977C27.7561 4.44977 28.5486 4.66423 29.2511 5.111ZM27.8102 13.564C28.6387 13.564 29.2691 13.2781 29.7194 12.7241C30.1697 12.1701 30.4039 11.3659 30.4039 10.3293C30.4039 9.25708 30.1697 8.45288 29.7194 7.88101C29.2691 7.30914 28.6207 7.0232 27.8102 7.0232C26.9996 7.0232 26.3512 7.30914 25.8829 7.89888C25.4146 8.48863 25.1804 9.29282 25.1804 10.3472C25.1804 11.3837 25.4146 12.1879 25.8649 12.7419C26.3152 13.2959 26.9636 13.564 27.8102 13.564ZM48.5777 1.01869L48.5597 1.02452V1.01869H48.5777ZM48.5597 1.02452V4.71799H51.4416V7.21993H48.5597V11.5983C48.5597 12.0272 48.6498 12.3847 48.8119 12.6527C48.974 12.9208 49.1901 13.1174 49.4603 13.2246C49.7305 13.3318 50.0187 13.3854 50.3249 13.3854C50.505 13.3854 50.6851 13.3676 50.8472 13.3497C51.0273 13.3139 51.2255 13.2782 51.4416 13.2425V15.798C51.1354 15.9231 50.8112 16.0125 50.505 16.0482C50.1808 16.1018 49.8566 16.1197 49.4963 16.1197C48.1094 16.1197 47.0467 15.7265 46.3083 14.9402C45.5698 14.1539 45.2095 13.0459 45.2095 11.6519V7.2378V4.73586V2.10882L48.5597 1.02452ZM60.0693 4.44977C61.0419 4.44977 61.9065 4.6821 62.663 5.18249C63.4195 5.68287 63.9958 6.36197 64.4281 7.23765C64.8604 8.1312 65.0766 9.16772 65.0766 10.3293C65.0766 11.491 64.8604 12.5096 64.4281 13.3853C63.9958 14.261 63.4195 14.9401 62.663 15.4047C61.9065 15.8872 61.0419 16.1196 60.0693 16.1196C59.1507 16.1196 58.3402 15.9051 57.6557 15.4762C57.1694 15.1724 56.8091 14.7792 56.539 14.2967V20.909H53.1708V7.95249C53.1708 7.41636 53.1528 6.88023 53.1347 6.3441C53.1167 5.80797 53.0627 5.27184 52.9907 4.73571H56.1607L56.3769 6.64791C56.629 6.02242 57.0433 5.50416 57.6557 5.111C58.3402 4.66423 59.1507 4.44977 60.0693 4.44977ZM59.1147 13.564C59.9432 13.564 60.5736 13.2959 61.0239 12.7419C61.4742 12.1879 61.6903 11.3837 61.7084 10.3115C61.7084 9.27495 61.4742 8.45288 61.0239 7.86314C60.5736 7.29127 59.9252 6.98746 59.1147 6.98746C58.2681 6.98746 57.6197 7.2734 57.1694 7.84527C56.7191 8.41714 56.503 9.23921 56.503 10.2936C56.503 11.348 56.7191 12.1701 57.1694 12.7241C57.6197 13.2781 58.2681 13.564 59.1147 13.564ZM74.7488 6.30836C74.4787 5.82584 74.1004 5.43268 73.5961 5.111C72.8936 4.66423 72.1011 4.44977 71.1825 4.44977C70.2099 4.44977 69.3453 4.69997 68.5888 5.18249C67.8323 5.68287 67.2559 6.36197 66.8236 7.25552C66.3914 8.14908 66.1932 9.16772 66.1932 10.3472C66.1932 11.5088 66.4094 12.5275 66.8236 13.4032C67.2379 14.2788 67.8323 14.9401 68.5888 15.4226C69.3453 15.8872 70.2099 16.1374 71.2005 16.1374C72.1011 16.1374 72.9116 15.923 73.6141 15.4941C74.1184 15.1903 74.4967 14.7792 74.7668 14.2967V15.9587H78.081V4.73571H74.7488V6.30836ZM74.0824 12.7241C73.6321 13.2781 73.0017 13.564 72.1731 13.564C71.3266 13.564 70.6782 13.2959 70.2279 12.7419C69.7776 12.1879 69.5434 11.3837 69.5434 10.3472C69.5434 9.31069 69.7776 8.48863 70.2459 7.89888C70.7142 7.30914 71.3626 7.0232 72.1731 7.0232C72.9837 7.0232 73.6321 7.30914 74.0824 7.88101C74.5327 8.45288 74.7668 9.25708 74.7668 10.3293C74.7488 11.3659 74.5327 12.1701 74.0824 12.7241ZM87.1769 5.12887C87.6813 5.45055 88.0775 5.84371 88.3477 6.32623V4.73571H91.6979V15.4226C91.6979 17.2276 91.1756 18.5858 90.1489 19.515C89.1222 20.4443 87.5912 20.909 85.5919 20.909C83.8087 20.909 82.2417 20.5694 80.9089 19.8725L81.4132 17.3884C82.0976 17.7279 82.7641 17.9781 83.4485 18.139C84.133 18.2998 84.8174 18.3892 85.4838 18.3892C86.4565 18.3892 87.1769 18.1747 87.6453 17.7279C88.1316 17.2812 88.3657 16.6021 88.3657 15.6906V13.7248C88.2036 13.9572 88.0235 14.1895 87.8074 14.4039C87.4291 14.7792 86.9788 15.0652 86.4565 15.2975C85.9161 15.5298 85.3578 15.637 84.7454 15.637C83.7547 15.637 82.8901 15.4047 82.1337 14.9401C81.3772 14.4754 80.7828 13.8321 80.3505 12.9921C79.9182 12.1522 79.7021 11.1693 79.7021 10.0434C79.7021 8.91753 79.9182 7.95249 80.3505 7.11256C80.7828 6.29049 81.3772 5.62926 82.1337 5.16462C82.8901 4.6821 83.7727 4.44977 84.7454 4.44977C85.664 4.44977 86.4745 4.6821 87.1769 5.12887ZM85.718 13.0815C86.5285 13.0815 87.1769 12.8134 87.6453 12.2773C88.1136 11.7412 88.3477 10.9906 88.3657 10.0434C88.3657 9.11411 88.1496 8.36353 87.6813 7.8274C87.213 7.2734 86.5645 7.00533 85.736 7.00533C84.9075 7.00533 84.241 7.2734 83.7727 7.80953C83.2864 8.34566 83.0523 9.07837 83.0523 10.0255C83.0523 10.9727 83.2864 11.7233 83.7727 12.2594C84.259 12.8134 84.9075 13.0815 85.718 13.0815ZM40.6526 5.23607C40.1843 5.59349 39.8421 6.07601 39.6079 6.66576L39.3738 4.71781H36.2037C36.2757 5.25395 36.3298 5.79008 36.3478 6.32621L36.3478 6.32655C36.3658 6.86256 36.3838 7.39858 36.3838 7.9346V15.9408H39.752V10.0791C39.752 9.52512 39.8601 9.0426 40.0762 8.63157C40.2924 8.22053 40.5986 7.91673 40.9948 7.6844C41.3911 7.46995 41.8954 7.34485 42.4898 7.34485C42.85 7.34485 43.2103 7.39847 43.5705 7.50569V4.52123C43.3904 4.48549 43.1923 4.46762 42.9581 4.46762C42.0935 4.46762 41.319 4.71781 40.6526 5.23607ZM103.37 7.05902C103.784 7.91683 104 8.9176 104 10.0792L103.964 11.1872H96.5972C96.7052 11.8485 96.9214 12.3667 97.2456 12.742C97.7499 13.296 98.5064 13.5819 99.5331 13.5819C100.127 13.5819 100.722 13.4926 101.298 13.296C101.875 13.0994 102.415 12.8314 102.901 12.4739L103.784 14.7257C103.243 15.1546 102.577 15.4763 101.785 15.7265C101.01 15.9588 100.218 16.0839 99.407 16.0839C98.1462 16.0839 97.0655 15.8337 96.1469 15.369C95.2283 14.8865 94.5258 14.2253 94.0395 13.3496C93.5532 12.4918 93.301 11.4553 93.301 10.2579C93.301 9.09631 93.5532 8.07767 94.0215 7.20199C94.4898 6.30843 95.1382 5.62934 95.9667 5.12895C96.7953 4.64643 97.7499 4.39624 98.8486 4.39624C99.8933 4.39624 100.812 4.62856 101.586 5.0932C102.361 5.55785 102.955 6.20121 103.37 7.05902ZM97.1375 7.57728C96.8853 7.9347 96.7052 8.3636 96.5972 8.9176H101.1C101.028 8.30999 100.866 7.82747 100.578 7.47005C100.2 6.98753 99.6592 6.75521 98.9387 6.75521C98.1642 6.75521 97.5698 7.02328 97.1375 7.57728Z" fill="#1E222D"/>
</g>
<defs>
<linearGradient id="paint0_linear_8_383" x1="5.34587" y1="18.2083" x2="50.0412" y2="23.1356" gradientUnits="userSpaceOnUse">
<stop stop-color="#5668F1"/>
<stop offset="1" stop-color="#5AECDE"/>
</linearGradient>
<clipPath id="clip0_8_383">
<rect width="104" height="23" fill="white"/>
</clipPath>
</defs>
</svg>
