<svg width="20" height="20" viewBox="0 0 20 20" fill="none" xmlns="http://www.w3.org/2000/svg">
<g clip-path="url(#clip0_155_439)">
<g clip-path="url(#clip1_155_439)">
<path d="M4.25461 7.13932C4.33764 4.97939 6.1476 3.23166 8.35609 3.23166C10.4815 3.23166 12.2251 4.831 12.441 6.892C13.5369 6.90849 14.6162 6.92498 15.7122 6.97444C15.5129 3.09975 12.2915 0 8.35609 0C4.30443 0 1 3.28112 1 7.3042C1 7.35367 1 7.40313 1 7.4526C2.07934 7.32069 3.17528 7.22176 4.25461 7.13932Z" fill="url(#paint0_linear_155_439)"/>
<path d="M14.0685 11.888L14.1017 11.8385C14.9486 10.7833 15.4633 9.56318 15.646 8.24414C14.5334 8.24414 13.4375 8.24414 12.325 8.27712C11.8766 10.0578 10.2659 11.3604 8.35632 11.3604C6.64599 11.3604 5.16813 10.3051 4.55374 8.82122C3.4578 8.93664 2.36186 9.08503 1.26591 9.24991C2.12938 12.3332 4.98547 14.592 8.35632 14.592C9.43566 14.592 10.4984 14.3612 11.4781 13.8995L11.5279 13.883L11.5611 13.916L16.1109 19.423C16.4264 19.8023 16.8748 20.0166 17.3729 20.0166C17.7548 20.0166 18.1202 19.8847 18.4025 19.6539C18.7346 19.3736 18.9504 18.9943 18.9836 18.5657C19.0168 18.137 18.9006 17.7248 18.6183 17.3785L14.0685 11.888Z" fill="#1E222D"/>
</g>
</g>
<defs>
<linearGradient id="paint0_linear_155_439" x1="2.51154" y1="0.343684" x2="15.8374" y2="0.636592" gradientUnits="userSpaceOnUse">
<stop stop-color="#5668F1"/>
<stop offset="1" stop-color="#5AECDE"/>
</linearGradient>
<clipPath id="clip0_155_439">
<rect width="20" height="20" fill="white"/>
</clipPath>
<clipPath id="clip1_155_439">
<rect width="18" height="20" fill="white" transform="translate(1)"/>
</clipPath>
</defs>
</svg>
