<svg width="80" height="80" viewBox="0 0 80 80" fill="none" xmlns="http://www.w3.org/2000/svg">
<rect width="80" height="80" rx="24" fill="url(#paint0_linear_2068_2025)"/>
<path d="M31.3829 19.0593C34.5701 11.3818 45.5645 11.4245 48.667 19.1853L48.6729 19.1834C56.2865 16.037 63.9622 23.7133 60.8155 31.3269L60.8125 31.3308L60.9405 31.3816C68.5771 34.5515 68.577 45.447 60.9405 48.6169L60.8125 48.6668L60.8155 48.6716C63.9624 56.2869 56.2833 63.9636 48.668 60.8113C45.5667 68.5746 34.5702 68.6179 31.3829 60.9392L31.3321 60.8113C23.7158 63.9626 16.0358 56.283 19.1875 48.6668C11.383 45.548 11.3826 34.4493 19.1875 31.3308C16.0358 23.7145 23.7158 16.035 31.3321 19.1863L31.3829 19.0593ZM42.5811 58.0203C40.9439 57.2676 39.0582 57.2667 37.4209 58.0193L34.1895 59.5056L34.2764 59.7244C36.4122 64.869 43.8244 64.796 45.8106 59.5056L42.5811 58.0193V58.0203ZM54.628 50.9587L54.629 50.9597C52.9302 51.5888 51.59 52.929 50.961 54.6277L49.7627 57.866L49.8594 57.9089C54.9081 59.9956 59.9978 54.9059 57.9112 49.8572L57.8682 49.7605L54.628 50.9587ZM22.1319 49.7605C19.9251 54.8728 25.125 60.072 30.2374 57.866L29.0401 54.6277L28.9141 54.3132C28.2423 52.7641 26.9646 51.5494 25.3721 50.9597V50.9587L22.1319 49.7605ZM46.9024 23.4421L43.8907 24.8279C41.499 25.9273 38.7574 25.962 36.3438 24.9314L36.1104 24.8279L33.0977 23.4421L31.9825 26.4597V26.4607C31.0356 29.0175 29.0188 31.0343 26.462 31.9812H26.461L23.4444 33.0964L24.8301 36.1082L24.9336 36.3416C25.9643 38.7551 25.9295 41.4977 24.8301 43.8894L23.4434 46.9011L26.462 48.0183L26.7002 48.1091C29.065 49.059 30.9408 50.9348 31.8907 53.2996L31.9825 53.5378V53.5388L33.0977 56.5544L36.1104 55.1697L36.3438 55.0662C38.7574 54.0356 41.5 54.0703 43.8916 55.1697L46.9024 56.5544L48.0186 53.5388L48.0196 53.5378L48.1104 53.2996C49.0919 50.8561 51.0625 48.9356 53.5391 48.0183L53.5401 48.0173L56.5567 46.9011L55.1719 43.8884C54.037 41.4195 54.0369 38.5771 55.1719 36.1082L56.5567 33.0964L53.5401 31.9812H53.5391C50.9824 31.0343 48.9664 29.0174 48.0196 26.4607L48.0186 26.4597L46.9024 23.4421ZM20.4932 34.1892C15.1304 36.2035 15.1301 43.7944 20.4922 45.8093L21.9795 42.5779C22.685 41.043 22.7298 39.2903 22.1124 37.7283L21.9795 37.4187L20.4932 34.1892ZM58.0215 37.4187H58.0225C57.2699 39.056 57.2689 40.9416 58.0215 42.5789L59.5079 45.8093L59.7256 45.7234C64.7984 43.6175 64.7984 36.3811 59.7256 34.2752L59.5069 34.1892L58.0215 37.4187ZM30.2383 22.1296C25.1259 19.9235 19.925 25.1247 22.1319 30.2371L25.3721 29.0388L25.6866 28.9128C27.2358 28.2411 28.4504 26.9634 29.0401 25.3709L30.2383 22.1296ZM57.9112 30.1404C59.9981 25.0916 54.9082 20.0019 49.8594 22.0886L49.7618 22.1306L50.961 25.3709L51.087 25.6853C51.7587 27.2345 53.0365 28.4491 54.629 29.0388H54.628L57.8682 30.2371L57.9112 30.1404ZM45.8106 20.491C43.8233 15.2026 36.412 15.1304 34.2764 20.2742L34.1895 20.491L37.4209 21.9773L37.7305 22.1101C39.2926 22.7275 41.0453 22.6827 42.5801 21.9773L45.8106 20.491Z" fill="white"/>
<path d="M39.6986 31.0254C39.7848 30.721 40.2162 30.721 40.3023 31.0254L42.1676 37.615C42.1973 37.7198 42.2792 37.8018 42.384 37.8314L48.9736 39.6967C49.278 39.7829 49.278 40.2143 48.9736 40.3005L42.384 42.1658C42.2792 42.1954 42.1973 42.2774 42.1676 42.3822L40.3023 48.9718C40.2162 49.2761 39.7848 49.2761 39.6986 48.9718L37.8333 42.3822C37.8037 42.2774 37.7217 42.1954 37.6169 42.1658L31.0274 40.3005C30.723 40.2143 30.723 39.7829 31.0274 39.6967L37.6169 37.8314C37.7217 37.8018 37.8037 37.7198 37.8333 37.615L39.6986 31.0254Z" fill="white"/>
<defs>
<linearGradient id="paint0_linear_2068_2025" x1="15.2344" y1="19.2188" x2="112.734" y2="169.219" gradientUnits="userSpaceOnUse">
<stop stop-color="#530CC3"/>
<stop offset="1"/>
</linearGradient>
</defs>
</svg>
