<svg width="80" height="80" viewBox="0 0 80 80" fill="none" xmlns="http://www.w3.org/2000/svg">
<rect x="80" y="80" width="80" height="80" rx="24" transform="rotate(-180 80 80)" fill="white"/>
<rect width="53.3333" height="53.3333" transform="translate(13.334 13.3334)" fill="white"/>
<mask id="mask0_2066_1420" style="mask-type:alpha" maskUnits="userSpaceOnUse" x="18" y="13" width="44" height="54">
<path d="M39.8486 66.6672C39.8012 66.6674 39.9955 66.623 40.2773 66.5627C40.3002 66.5623 40.323 66.5615 40.3457 66.5607L39.8486 66.6672ZM38.7002 13.5822C39.5739 13.2511 40.5365 13.251 41.4102 13.5822L59.4238 20.4113C60.9303 20.9825 61.9287 22.4389 61.9287 24.0656V40.0012C61.9285 48.5724 56.3373 55.2538 51.6035 59.4416C49.1555 61.6072 46.7252 63.2948 44.915 64.4387C44.0061 65.013 43.2428 65.4571 42.6982 65.7619C42.4258 65.9144 42.2074 66.0328 42.0518 66.1154C41.974 66.1567 41.9116 66.1886 41.8662 66.2121L41.8105 66.2404L41.793 66.2502L41.7861 66.2531C41.7861 66.2531 40.8507 66.44 40.2773 66.5627C39.7238 66.5712 39.118 66.4698 38.3262 66.2551L38.2998 66.2404L38.2441 66.2121C38.1988 66.1886 38.1363 66.1567 38.0586 66.1154C37.9029 66.0328 37.6837 65.9145 37.4111 65.7619C36.8665 65.4571 36.1033 65.013 35.1943 64.4387C33.3842 63.2948 30.9548 61.6072 28.5068 59.4416C23.773 55.2538 18.1818 48.5725 18.1816 40.0012V24.0656C18.1816 22.4389 19.18 20.9825 20.6865 20.4113L38.7002 13.5822ZM41.7812 66.256C41.2775 66.4446 40.8295 66.5451 40.3457 66.5607L41.7812 66.256Z" fill="#24C5B6"/>
</mask>
<g mask="url(#mask0_2066_1420)">
<path d="M63.636 40.5144V12.1212L16.3633 12.1212V41.8182C32.0661 39.7177 47.8784 39.2831 63.636 40.5144Z" fill="url(#paint0_linear_2066_1420)"/>
<path d="M63.636 39.0458C43.939 36.9666 32.0148 37.0799 16.3684 39.4681L16.3684 43.4086C16.3684 43.4086 15.876 52.5435 24.5746 58.514C32.7807 64.1263 39.2363 68.0668 39.9475 68.4848C40.7134 68.0071 47.1689 64.1263 55.3204 58.514C64.019 52.5435 63.5266 43.4086 63.5266 43.4086L63.636 39.0458Z" fill="#1E222D"/>
<path d="M18.4873 37.6057C33.1955 35.0818 48.0877 35.1461 62.7832 37.7805H62.7871C63.2643 37.8695 63.6744 38.0437 63.9395 38.3401C64.2031 38.6352 64.2797 38.9996 64.2266 39.387L64.2256 39.3948L64.2246 39.4016C64.1694 39.7417 64.0056 40.0673 63.6631 40.259C63.3208 40.4506 62.8866 40.4722 62.4219 40.4075V40.4084C47.5334 38.3882 32.5424 39.0418 17.8604 42.3704L17.8359 42.3762L17.8105 42.3792C17.6838 42.3969 17.5006 42.4241 17.3291 42.4241H17.1924L17.1758 42.4231C16.6726 42.3963 16.3012 42.2071 16.0684 42.0334V42.0325C15.5749 41.6706 15.2864 41.1154 15.1787 40.5374L15.1748 40.5149L15.1719 40.4934C15.1102 39.9412 15.1834 39.3458 15.4863 38.8655C15.8344 38.3103 16.3939 37.979 17.0645 37.8577L18.4873 37.6057Z" fill="white" stroke="white" stroke-width="1.21212"/>
</g>
<defs>
<linearGradient id="paint0_linear_2066_1420" x1="19.3936" y1="19.3728" x2="62.7067" y2="35.3478" gradientUnits="userSpaceOnUse">
<stop stop-color="#6573FF"/>
<stop offset="1" stop-color="#29DDCC"/>
</linearGradient>
</defs>
</svg>
