<svg width="80" height="80" viewBox="0 0 80 80" fill="none" xmlns="http://www.w3.org/2000/svg">
<g clip-path="url(#clip0_2068_1978)">
<rect x="80" y="80" width="80" height="80" transform="rotate(-180 80 80)" fill="url(#paint0_linear_2068_1978)"/>
<path d="M27.8619 20.9211C31.3188 20.2725 34.6314 20.7756 37.7799 22.3478C39.7523 23.3334 43.0111 26.4166 43.0397 26.4435C43.9032 27.2074 47.3967 30.951 48.9234 32.5676C51.3684 35.1549 53.6651 37.8761 55.86 40.6848C57.8288 43.205 59.7066 45.7916 61.3551 48.5432C61.426 48.661 61.5032 48.7766 61.5621 48.9006C61.6084 48.9908 61.6307 49.0919 61.6266 49.1935C61.6223 49.2952 61.5913 49.3946 61.5377 49.4807C61.4842 49.5665 61.4094 49.6372 61.3209 49.6848C61.2322 49.7322 61.132 49.7557 61.0318 49.7521C60.9237 49.7462 60.8163 49.7253 60.7135 49.6906C56.2885 48.3187 53.8929 47.6813 52.6363 47.3869C52.5479 47.3665 52.455 47.3749 52.3717 47.4113C52.2884 47.4479 52.2183 47.5106 52.1725 47.59C52.1266 47.6695 52.1065 47.7621 52.1158 47.8537C52.1252 47.9452 52.1633 48.0316 52.2242 48.0998C52.3562 48.2479 52.4871 48.3963 52.6168 48.5461C56.4427 52.9675 59.7712 57.7397 62.4176 62.9807C63.1359 64.4034 63.7398 65.8868 64.3795 67.3527C64.6332 67.9331 64.5238 68.4153 64.1197 68.759C63.7153 69.1024 63.2106 69.1191 62.6998 68.8215C59.7283 67.0982 56.7687 65.3523 53.7809 63.6584C50.4419 61.7657 47.0548 59.963 43.5729 58.3498C43.493 58.3128 43.4033 58.3013 43.317 58.3176C43.2307 58.3339 43.1508 58.377 43.0895 58.4406C43.0282 58.5043 42.9873 58.5862 42.9732 58.674C42.9593 58.7619 42.9729 58.8527 43.0113 58.9328C43.0658 59.0399 43.1141 59.1464 43.1637 59.2541C44.2467 61.5941 45.1605 63.996 45.6949 66.5324C45.7364 66.7298 45.7683 66.93 45.8043 67.1291C45.8692 67.496 45.7924 67.7144 45.5533 67.8527C45.3145 67.9903 45.0154 67.9257 44.7506 67.6867C44.314 67.2894 43.8808 66.8885 43.4234 66.5178C41.3362 64.8249 39.2606 63.1162 37.1461 61.4621C32.4035 58.1281 20.9877 49.5862 19.8883 48.4953C19.0151 47.6371 18.2321 46.7374 17.5592 45.7248C16.0854 43.5055 15.1784 41.0684 14.9234 38.4064C14.4771 33.7374 15.7778 29.6039 18.818 26.0715C21.2196 23.2812 24.2764 21.5942 27.8619 20.9211ZM30.7106 26.2258C25.0122 26.213 20.4985 30.8159 20.3395 36.3908C20.166 42.5094 24.9968 47.2156 30.649 47.2336C33.0111 47.2407 35.1545 46.4709 36.8756 45.1818L41.9928 49.5773C42.9388 50.3895 44.3649 50.2809 45.1773 49.3351C45.9897 48.3891 45.8812 46.963 44.9352 46.1506L39.819 41.757C40.5791 40.345 41.0271 38.7454 41.0748 37.0627C41.2531 30.9329 36.3771 26.1915 30.7106 26.2258ZM30.6451 30.968C33.8517 30.968 36.4515 33.5671 36.4518 36.7736C36.4518 39.9804 33.8519 42.5802 30.6451 42.5803C27.4383 42.5803 24.8385 39.9804 24.8385 36.7736C24.8387 33.567 27.4385 30.968 30.6451 30.968Z" fill="#1E222D"/>
<circle cx="29.9799" cy="31.0193" r="6.23378" fill="white"/>
<path d="M26.9923 13.9989C30.7037 13.3026 34.2595 13.8431 37.6398 15.5312C39.7642 16.5924 43.279 19.9199 43.2872 19.9277C44.2139 20.7472 47.9655 24.7673 49.6046 26.5028C52.2295 29.2806 54.6944 32.2023 57.0509 35.2177C59.1647 37.9235 61.1815 40.7001 62.9513 43.6542C63.0274 43.7806 63.1087 43.9051 63.172 44.038C63.2217 44.135 63.2459 44.2442 63.2413 44.3534C63.2368 44.4626 63.2041 44.5687 63.1466 44.6611C63.0891 44.7535 63.0085 44.8287 62.9132 44.8798C62.818 44.9309 62.7113 44.9558 62.6036 44.9521C62.4872 44.9457 62.3715 44.924 62.2609 44.8866C57.5099 43.4137 54.939 42.7291 53.59 42.413C53.4948 42.3909 53.3954 42.4002 53.3058 42.4394C53.2163 42.4786 53.1413 42.5455 53.0919 42.6308C53.0426 42.7162 53.0214 42.8156 53.0314 42.914C53.0414 43.0125 53.082 43.1053 53.1476 43.1786C53.2894 43.3379 53.43 43.4971 53.5695 43.6581C57.677 48.405 61.2498 53.5284 64.0909 59.1552C64.8621 60.6827 65.5106 62.2747 66.1974 63.8486C66.4699 64.4717 66.3522 64.9893 65.9181 65.3583C65.4839 65.7272 64.9431 65.7452 64.3947 65.4257C61.2043 63.5755 58.0264 61.7015 54.8185 59.8827C51.2337 57.8507 47.5978 55.9145 43.8595 54.1825C43.7738 54.1427 43.6778 54.131 43.5851 54.1484C43.4924 54.1658 43.4069 54.2119 43.3409 54.2802C43.2749 54.3487 43.231 54.4367 43.2159 54.5312C43.2009 54.6256 43.2147 54.7225 43.256 54.8085C43.3146 54.9238 43.3667 55.0384 43.42 55.1542C44.5827 57.6664 45.5641 60.2446 46.1378 62.9677C46.1823 63.1797 46.2164 63.3946 46.255 63.6083C46.3247 64.0021 46.2429 64.2361 45.9865 64.3847C45.7298 64.5332 45.408 64.4641 45.1232 64.207C44.6543 63.7803 44.1895 63.3502 43.6984 62.9521C41.4574 61.1346 39.2293 59.3002 36.9591 57.5243C31.8675 53.945 19.612 44.7736 18.4318 43.6025C17.4943 42.6811 16.6532 41.7159 15.9308 40.6288C14.3485 38.2462 13.3754 35.6303 13.1017 32.7724C12.6223 27.7594 14.0182 23.3218 17.2823 19.5292C19.8609 16.5334 23.1426 14.7215 26.9923 13.9989ZM30.0509 19.6952C23.9327 19.681 19.0867 24.6226 18.9161 30.6083C18.7298 37.1775 23.916 42.2299 29.9845 42.2489C32.52 42.2566 34.8205 41.4304 36.6681 40.0468L42.1632 44.7646C43.179 45.6368 44.7099 45.5206 45.5822 44.5048C46.4543 43.489 46.3372 41.9581 45.3214 41.0859L39.8282 36.3691C40.6444 34.8531 41.1266 33.1367 41.1779 31.33C41.3695 24.7489 36.1346 19.6584 30.0509 19.6952Z" fill="url(#paint1_linear_2068_1978)"/>
</g>
<defs>
<linearGradient id="paint0_linear_2068_1978" x1="120.468" y1="154.995" x2="119.447" y2="78.6411" gradientUnits="userSpaceOnUse">
<stop stop-color="#202945"/>
<stop offset="0.41" stop-color="#232D4D"/>
<stop offset="1" stop-color="#2B3860"/>
</linearGradient>
<linearGradient id="paint1_linear_2068_1978" x1="31.0279" y1="30.6583" x2="40.4268" y2="60.6085" gradientUnits="userSpaceOnUse">
<stop stop-color="#6573FF"/>
<stop offset="1" stop-color="#29DDCC"/>
</linearGradient>
<clipPath id="clip0_2068_1978">
<rect width="80" height="80" rx="24" fill="white"/>
</clipPath>
</defs>
</svg>
