<svg width="662" height="538" viewBox="0 0 662 538" fill="none" xmlns="http://www.w3.org/2000/svg">
<g id="img-bubble-girl" clip-path="url(#clip0_1992_144)">
<path id="Vector 2" d="M187.397 625.525C247.112 580.83 218.466 502.983 262.475 466.827C302.253 434.147 355.01 456.103 393.532 477.549C424.736 494.921 453.598 535.933 498.691 536.785C562.639 537.992 571.927 474.39 574.132 442.225C578.196 382.938 536.068 322.437 536.563 255.754C537.059 189.071 656.058 148.143 683.389 238.349" stroke="#8694FF" stroke-width="3" stroke-linecap="round"/>
<g id="Asset 10 1" clip-path="url(#clip1_1992_144)">
<g id="Layer 2">
<path id="Vector" d="M168.229 296.819C188.203 325.228 214.57 348.857 246.699 361.302C279.961 374.182 315.3 377.122 350.827 373.783C371.263 371.86 391.858 365.32 409.436 354.702C458.666 324.954 483.184 297.347 497.148 250.534C511.11 203.728 513.22 156.788 489.947 113.901C462.726 63.7645 414.856 24.8765 359.19 12.648C303.521 0.426669 252.36 11.6229 207.723 47.1844L205.572 49.2527C189.311 64.8389 175.624 82.9217 165.044 102.818C160.43 111.495 156.036 120.287 151.869 129.19C140.953 152.52 136.002 178.172 137.387 203.883C138.191 218.769 138.723 235.371 143.117 249.95L168.227 296.827L168.229 296.819Z" fill="#F2F3FF" fill-opacity="0.35"/>
<g id="Group">
<g id="Group_2">
<path id="Vector_2" d="M421.405 181.691C418.288 180.972 415.257 179.952 413.264 177.549C411.866 175.859 411.175 173.683 409.876 171.913C408.662 170.253 406.994 169.044 405.288 167.855C404.316 167.183 403.327 166.513 402.408 165.779C401.675 165.188 400.975 164.545 400.322 163.861C397.259 160.672 395.379 156.522 394.709 152.139L392.591 141.353C393.029 141.439 393.479 141.326 393.915 141.208C395.103 140.895 396.79 140.277 397.659 139.41C398.409 138.657 398.773 137.617 399.078 136.606C399.53 135.072 399.882 133.479 399.741 131.887C399.597 130.303 398.893 128.705 397.593 127.791C396.285 126.875 394.342 126.825 393.172 127.911L390.713 130.149C388.201 128.32 388.274 125.864 385.395 124.685C379.111 122.116 379.373 117.082 377.537 114.62L377.545 114.598C374.72 113.777 371.548 112.935 369.503 111.863C366.58 110.338 365.317 107.595 364.043 104.549C364.96 104.37 365.89 104.268 366.804 104.12C372.989 103.108 378.807 99.9666 383.043 95.3388C383.915 94.6996 384.823 94.1212 385.762 93.5937C386.953 92.9182 388.201 92.335 389.477 91.8584C391.76 91.007 394.157 90.4853 396.606 90.3532C399.755 90.1779 402.929 90.4475 406.001 91.1588C408.712 91.795 411.368 92.7765 413.616 94.4101C416.853 96.7617 419.018 100.266 421.305 103.553C423.903 107.303 426.752 110.88 429.826 114.25C432.591 117.273 435.584 120.171 439.167 122.148C442.065 123.746 445.284 124.709 448.179 126.314C452.024 128.445 455.236 131.718 457.294 135.605C459.247 139.304 460.327 143.714 463.615 146.293C468.762 150.324 476.705 147.902 482.355 151.192C482.542 151.305 482.727 151.424 482.912 151.544C487.191 154.455 487.998 160.468 484.931 164.647L484.054 165.843C484.664 161.017 480.933 156.055 476.128 155.317L476.305 155.838C478.793 160.237 478.181 164.149 476.575 167.05C474.972 169.944 472.681 172.563 469.691 173.972L469.647 173.957C468.48 176.661 466.576 179.283 464.459 180.919L464.397 180.913C463.443 187.003 461.677 193.228 457.119 197.285C458.132 193.64 457.825 189.68 456.401 186.179C453.812 191.483 445.321 201.476 441.6 196.906C441.584 196.884 441.536 196.812 441.599 196.769C450.807 190.625 437.545 182.8 430.213 182.635C427.882 182.589 425.834 182.608 424.613 182.36C423.564 182.147 422.482 181.938 421.412 181.694L421.405 181.691Z" fill="#1E222D"/>
<path id="Vector_3" d="M368.442 251.19C361.032 247.928 352.738 244.776 349.611 243.116C344.767 240.538 340.741 239.032 336.461 237.253L336.496 237.151C337.323 236.053 338.164 234.869 338.997 233.635C342.602 228.306 346.08 222.029 347.083 217.023C347.688 214.005 347.936 210.922 348.808 207.972C350.284 202.973 351.25 201.445 354.888 197.72C358.586 193.934 361.142 193.701 365.738 191.087C368.12 189.736 380.048 173.8 381.719 170.589C382.142 171.712 382.514 172.817 382.814 173.873L382.768 173.938C385.83 176.117 389.674 177.068 393.403 176.566C397.369 176.031 401.155 173.851 403.768 170.6C404.524 169.662 404.898 169.063 405.253 167.908L405.288 167.855C406.994 169.044 408.661 170.253 409.876 171.913C411.175 173.683 411.866 175.858 413.264 177.549C415.257 179.952 418.288 180.972 421.405 181.691C422.991 185.143 423.025 191.433 422.738 196.612C422.735 196.619 422.74 196.629 422.738 196.636C423.265 199.669 423.138 202.777 422.972 205.856C422.229 219.251 419.822 225.911 417.361 239.097C417.361 239.097 411.01 282.753 397.652 289.311C395.092 290.569 393.163 292.035 390.315 292.062C388.608 292.077 385.895 291.424 384.287 290.607C383.862 290.389 382.23 289.475 380.003 288.228C375.035 285.446 367.123 281.01 363.087 278.991C361.075 277.988 358.972 277.107 357.159 275.76C356.832 275.511 356.499 275.235 356.341 274.849C356.173 274.42 356.254 273.947 356.342 273.5C356.59 272.235 356.883 270.954 357.229 269.682C359.19 262.604 362.823 255.709 368.442 251.19Z" fill="white"/>
<path id="Vector_4" d="M344.51 303.022C336.963 292.78 329.418 282.554 321.869 272.319C319.991 269.77 318.06 267.113 317.427 264.012C317.107 262.423 317.408 260.579 317.998 258.639C318.378 257.411 318.866 256.148 319.399 254.876C320.842 251.386 322.554 247.866 322.831 245.076L322.866 245.023C328.634 248.628 348.529 261.3 357.05 269.637L357.228 269.682C356.882 270.954 356.589 272.235 356.342 273.5C356.254 273.947 356.172 274.42 356.34 274.849C356.499 275.235 356.832 275.51 357.158 275.759C358.972 277.107 361.074 277.988 363.086 278.991C367.122 281.01 375.034 285.446 380.003 288.228L379.824 288.539C364.721 298.452 360.854 306.576 349.836 309.83C348.517 310.219 347.514 311.476 346.145 311.517C344.117 311.575 342.958 310.483 341.633 308.955L340.503 307.874C341.855 306.421 343.114 304.864 344.272 303.199L344.51 303.022Z" fill="white"/>
<path id="Vector_5" d="M361.635 125.973C361.333 126.031 361.04 126.133 360.751 126.293L360.52 126.521C360.119 126.869 359.949 127.813 360.039 128.304C360.139 128.791 360.781 129.366 361.192 129.603C361.603 129.841 362.159 129.724 362.447 129.023C362.657 128.504 361.849 126.361 361.656 126.077L361.635 125.973ZM354.9 142.126C354.693 142.023 354.496 141.94 354.318 141.895C353.186 141.597 351.033 142.137 350.019 141.564C349.593 141.321 349.171 141.048 348.909 140.635C348.504 140.003 348.574 139.162 348.869 138.464C349.169 137.774 353.302 132.86 354.411 130.209C354.908 129.014 355.521 127.623 355.339 126.341L354.19 119.653C354.217 119.032 354.254 118.406 354.315 117.78C354.515 115.473 354.974 113.189 355.933 111.093C357.152 108.423 359.272 106.069 362.028 105.064C362.681 104.827 363.351 104.66 364.038 104.54C365.309 107.593 366.572 110.336 369.495 111.861C371.54 112.932 374.712 113.775 377.537 114.596L377.529 114.617C379.365 117.08 379.103 122.113 385.387 124.683C388.266 125.862 388.193 128.318 390.705 130.147L393.164 127.909C394.334 126.822 396.277 126.873 397.585 127.789C398.886 128.702 399.589 130.301 399.733 131.885C399.874 133.477 399.522 135.07 399.07 136.604C398.765 137.615 398.401 138.654 397.652 139.408C396.782 140.274 395.095 140.893 393.907 141.206C393.471 141.324 393.021 141.436 392.583 141.351L394.701 152.136C395.372 156.519 397.251 160.669 400.314 163.859C400.967 164.543 401.667 165.186 402.401 165.776C403.319 166.511 404.308 167.18 405.28 167.852L405.246 167.905C404.891 169.061 404.516 169.66 403.76 170.597C401.148 173.849 397.361 176.029 393.395 176.563C389.667 177.066 385.822 176.114 382.76 173.936L382.806 173.871C382.506 172.814 382.134 171.709 381.711 170.587C380.33 166.914 378.354 163.071 376.104 160.264L375.993 160.21C374.321 161.231 365.872 166.147 361.518 164.375C361.066 164.188 360.651 163.82 360.274 163.367C359.158 162.032 359.027 156.565 359.027 156.565C358.962 155.128 357.949 154.79 357.164 153.592C356.702 152.868 356.349 152.061 356.448 151.489C356.628 150.491 358.615 149.563 359.603 149.198C358.182 149.108 356.778 148.757 355.39 148.379C355.236 148.335 355.082 148.29 354.977 148.173C354.826 148 354.809 147.744 354.867 147.529C355.279 145.852 354.742 143.414 354.873 142.158L354.885 142.121L354.9 142.126Z" fill="#E7E9FB"/>
<path id="Vector_6" d="M285.411 213.601C286.236 211.992 288.478 211.498 288.478 211.498C290.583 211.192 292.425 211.159 294.233 211.228C296.8 211.315 299.289 211.608 302.311 211.616C304.464 211.617 306.709 211.706 308.617 212.706C310.278 213.581 311.525 215.074 312.628 216.591C314.589 219.298 315.714 222.778 317.491 225.6C318.384 227.021 319.448 228.274 320.857 229.176C327.158 233.206 331.948 235.378 336.461 237.253C340.74 239.032 344.766 240.538 349.611 243.116C352.737 244.776 361.032 247.928 368.442 251.19C362.823 255.709 359.19 262.604 357.228 269.682L357.05 269.638C348.529 261.3 328.633 248.628 322.865 245.023C322.546 244.825 322.272 244.658 322.047 244.517C321.557 244.204 321.001 243.989 320.425 243.905C316.98 243.365 312.749 242.128 310.313 239.865C308.943 238.588 307.731 237.155 306.66 235.617C306.044 234.752 305.47 233.861 304.937 232.943C304.602 232.367 304.276 231.787 303.96 231.202C302.976 229.363 301.993 227.354 300.179 226.313C298.137 225.138 295.607 225.509 293.259 225.7C293.184 225.706 293.102 225.711 293.027 225.717C291.237 225.857 289.441 225.873 287.653 225.77C286.886 225.726 286.088 225.655 285.413 225.27C284.742 224.896 284.22 224.135 284.357 223.382C284.425 223.017 284.616 222.719 284.878 222.469L284.864 222.465C284.435 222.116 282.691 221.907 281.775 220.979C281.336 220.539 281.083 219.935 281.25 219.071C281.336 218.631 281.667 218.3 282.072 218.059L282.024 217.986C281.84 216.379 283.421 214.043 284.991 213.675C285.131 213.642 285.269 213.617 285.411 213.601Z" fill="#E7E9FB"/>
<path id="Vector_7" d="M164.347 239.667C167.411 238.113 170.245 236.715 172.724 235.526C175.473 234.212 178.267 232.905 181.253 232.31C186.014 231.361 190.931 232.291 195.693 233.225C219.523 237.861 243.36 242.499 267.197 247.137L267.51 246.081C269.056 246.537 270.588 246.988 272.097 247.432C286.846 251.757 302.902 255.73 317.991 258.637L317.998 258.639C317.408 260.579 317.107 262.423 317.427 264.012C318.06 267.113 319.991 269.769 321.869 272.319C329.418 282.554 336.963 292.78 344.51 303.022L344.272 303.199C343.114 304.864 341.855 306.421 340.503 307.874C331.149 317.935 317.468 323.033 303.622 325.239C298.445 326.062 293.157 326.524 287.958 325.829C282.974 325.167 278.194 323.459 273.532 321.573C262.607 317.174 252.108 311.789 241.619 306.423C229.034 299.968 216.439 293.519 203.851 287.072C199.597 284.889 195.311 282.704 190.747 281.264C188.592 280.583 186.344 280.057 184.472 278.786C184.419 278.752 184.369 278.711 184.316 278.676C184.22 278.838 184.111 278.994 184.003 279.143C183.647 279.619 183.225 280.049 182.747 280.41C167.741 291.739 148.683 295.717 130.223 299.035C124.167 300.116 118.109 301.179 112.039 302.182C111.935 302.203 111.826 302.214 111.722 302.235C110.509 302.434 109.189 302.613 108.132 302.001C107.58 301.683 107.173 301.196 106.828 300.65C106.638 300.334 106.459 300.006 106.298 299.676C102.8 292.734 100.459 285.218 99.3748 277.518C99.2902 276.964 99.2199 276.414 99.1522 275.858C99.078 275.202 99.4117 274.557 99.9889 274.237C106.251 270.762 141.773 251.098 164.347 239.667Z" fill="#FCBB61"/>
<path id="Vector_8" d="M338.983 233.63L338.997 233.635C338.164 234.869 337.323 236.053 336.503 237.154L336.468 237.255C331.948 235.378 327.158 233.206 320.858 229.176C319.448 228.274 318.385 227.021 317.491 225.6C322.031 227.727 334.275 231.971 338.983 233.63Z" fill="#E7E9FB"/>
<path id="Vector_9" d="M385.745 93.5718L385.754 93.5913C384.816 94.1187 383.908 94.6972 383.036 95.3363C378.8 99.9641 372.982 103.106 366.797 104.117C365.883 104.265 364.953 104.367 364.039 104.54C363.352 104.66 362.682 104.827 362.028 105.064C359.273 106.069 357.153 108.423 355.933 111.093C354.974 113.189 354.516 115.473 354.315 117.78L354.279 117.768C351.524 111.556 352.234 102.619 357.276 98.0405C360.074 95.4983 363.782 94.2294 367.44 93.3228C372.121 92.1601 381.366 91.5649 385.745 93.5718Z" fill="#1E222D"/>
<path id="Vector_10" d="M319.398 254.876C318.866 256.148 318.378 257.412 317.998 258.639L317.991 258.637C302.902 255.73 286.846 251.758 272.097 247.432C270.587 246.988 269.056 246.537 267.51 246.081C256.067 242.7 243.79 238.978 232.489 235.654C231.319 235.302 230.583 234.153 230.757 232.936L231.093 230.586C236.061 227.97 241.02 225.359 245.98 222.741C246.914 222.252 247.867 221.753 248.902 221.558C249.479 221.448 250.061 221.445 250.647 221.5C251.557 221.577 252.465 221.799 253.349 222.02C270.488 226.315 289.494 231.329 306.641 235.627L306.66 235.617C307.731 237.155 308.943 238.588 310.313 239.865C312.749 242.128 316.98 243.365 320.425 243.905C321.001 243.989 321.557 244.204 322.046 244.517C322.272 244.658 322.546 244.825 322.865 245.023L322.831 245.076C322.554 247.866 320.842 251.386 319.398 254.876Z" fill="white"/>
<path id="Vector_11" d="M303.959 231.203C304.276 231.787 304.601 232.368 304.937 232.943C301.011 231.051 296.486 228.339 293.027 225.718C293.102 225.711 293.184 225.707 293.259 225.7C295.607 225.509 298.137 225.138 300.179 226.313C301.993 227.354 302.976 229.363 303.959 231.203Z" fill="#E7E9FB"/>
<path id="Vector_12" d="M267.69 210.206C265.41 210.436 262.252 208.443 259.968 208.494C259.285 208.511 258.624 208.721 257.954 208.864C256.96 209.081 255.931 209.142 254.918 209.038C254.13 208.962 253.33 208.777 252.682 208.313C252.039 207.859 251.582 207.072 251.673 206.287C251.833 205.017 253.21 204.34 254.406 203.884C255.453 203.491 258.704 202.946 259.743 202.55L259.743 202.502C260.651 202.513 261.556 202.483 262.464 202.447L262.581 202.317C262.417 202.042 262.354 201.73 262.437 201.419C262.534 201.064 262.794 200.774 263.052 200.514C263.323 200.243 263.61 199.994 263.899 199.761L263.906 199.764C266.016 198.029 268.641 197.052 271.388 196.448C272.924 196.109 274.492 195.886 276.029 195.708C277.078 195.59 278.17 195.487 279.166 195.828C280.329 196.226 281.209 197.165 282.037 198.07C285.653 202.023 290.614 207.259 294.233 211.228C292.425 211.159 290.583 211.192 288.478 211.498C288.478 211.498 286.236 211.992 285.411 213.601C285.269 213.617 285.131 213.642 284.991 213.675C283.421 214.043 281.84 216.379 282.024 217.986L282.072 218.059C281.667 218.3 281.336 218.631 281.25 219.071C281.083 219.935 281.336 220.539 281.775 220.979L281.614 221.143C279.969 222.059 278.379 221.192 276.757 220.249C274.622 219.018 272.628 217.56 270.805 215.91C269.679 214.886 268.597 213.757 268.039 212.346C267.77 211.672 267.643 210.933 267.69 210.206Z" fill="#E7E9FB"/>
<path id="Vector_13" d="M267.511 246.081L267.198 247.137C243.36 242.499 219.523 237.861 195.693 233.225C190.931 232.291 186.014 231.361 181.253 232.31C178.267 232.905 175.473 234.212 172.725 235.526C170.245 236.715 167.412 238.113 164.347 239.667C167.29 236.795 171.891 232.138 174.834 229.266C176.805 227.346 178.866 225.376 181.469 224.488C184.286 223.537 187.353 223.98 190.292 224.444C203.002 226.431 218.36 228.598 231.07 230.586L231.089 230.576L231.096 230.579L230.758 232.936C230.583 234.153 231.32 235.302 232.49 235.653C243.791 238.977 256.068 242.7 267.511 246.081Z" fill="#FCBB61"/>
<path id="Vector_14" d="M271.386 196.431L271.381 196.446C268.641 197.052 266.016 198.029 263.906 199.764L263.899 199.762L263.872 199.72C261.728 199.221 258.319 198.152 256.257 197.39C255.934 197.272 255.595 197.131 255.288 196.945C254.812 196.662 254.417 196.284 254.315 195.756C254.169 195.003 254.719 194.246 255.41 193.9C256.101 193.555 256.893 193.527 257.668 193.501C258.368 193.482 259.078 193.458 259.778 193.439C261.809 193.374 263.868 193.319 265.851 193.746C267.42 194.089 270.056 195.532 271.386 196.431Z" fill="#E7E9FB"/>
<path id="Vector_15" d="M263.873 199.72L263.899 199.761C263.61 199.994 263.323 200.243 263.053 200.514C262.795 200.773 262.534 201.064 262.437 201.419C262.355 201.73 262.417 202.042 262.582 202.317L262.465 202.446C261.557 202.483 260.651 202.513 259.744 202.502C258.909 202.491 258.081 202.434 257.254 202.305C255.533 202.031 253.824 201.39 252.543 200.208C252.363 200.05 252.177 199.84 252.172 199.596C252.168 199.393 252.286 199.215 252.413 199.056C253.118 198.15 254.149 197.234 255.269 196.979L255.281 196.943C255.596 197.131 255.935 197.271 256.257 197.39C258.32 198.152 261.729 199.221 263.873 199.72Z" fill="#E7E9FB"/>
<path id="Vector_16" d="M250.653 221.462L250.641 221.498C250.062 221.445 249.48 221.448 248.902 221.558C247.868 221.753 246.915 222.252 245.981 222.74C241.02 225.359 236.062 227.97 231.094 230.586L231.087 230.583C230.761 229.672 209.924 171.884 208.831 168.052C207.126 162.071 204.632 153.565 202.929 147.576L223.271 146.162C224.443 151.274 248.654 216.624 250.653 221.462Z" fill="white"/>
<path id="Vector_17" d="M184.003 279.143L184.01 279.146C170.094 297.829 147.79 311.534 127.212 322.386C125.954 323.047 124.558 323.733 123.182 323.416C122.002 323.141 121.114 322.199 120.352 321.268C120.29 321.19 120.22 321.11 120.161 321.025C115.898 315.753 113.001 308.943 112.051 302.242L112.039 302.182C118.109 301.179 124.167 300.116 130.223 299.035C148.684 295.717 167.741 291.739 182.747 280.41C183.225 280.049 183.647 279.619 184.003 279.143Z" fill="#FCBB61"/>
<path id="Vector_18" d="M120.161 321.025L120.093 321.082C111.982 323.666 104.139 326.882 98.2222 328.923L98.1488 329.043C97.0652 328.438 96.08 327.617 95.1236 326.805C92.5517 324.632 89.901 322.359 88.5074 319.289C86.6185 315.119 87.7645 311.156 85.1018 307.433L85.0713 307.333C92.5699 304.912 99.4054 304.43 106.819 300.654L106.826 300.657C107.174 301.196 107.58 301.683 108.133 302.001C109.19 302.613 110.509 302.434 111.723 302.235C111.827 302.214 111.935 302.203 112.039 302.182L112.051 302.242C113.001 308.943 115.899 315.753 120.161 321.025Z" fill="#E7E9FB"/>
<path id="Vector_19" d="M64.9167 320.861C65.9072 320.771 66.8813 320.611 67.8367 320.389C72.5265 319.294 76.8899 316.819 80.2382 313.35C81.3972 312.154 82.5001 310.462 81.8442 308.937C81.7898 308.813 81.7328 308.697 81.6661 308.585L81.7777 308.518C82.8895 308.074 83.9839 307.681 85.0706 307.334L85.1012 307.433C87.7639 311.156 86.6178 315.12 88.5067 319.289C89.9003 322.36 92.5511 324.632 95.123 326.805C96.0793 327.617 97.0645 328.439 98.1482 329.044C98.9169 329.484 99.735 329.805 100.617 329.937C101.307 330.043 102.139 330.086 102.506 330.688C102.723 331.045 102.702 331.482 102.672 331.9C102.449 335.145 92.9481 342.336 92.0637 344.167C91.3513 345.637 90.2725 346.763 88.9645 347.592C85.0025 347.384 80.1297 345.265 76.5938 343.482C62.5605 336.427 56.6107 328.307 37.5931 320.331C33.8045 318.744 30.5884 315.955 27.6993 313.036C27.7015 312.77 27.7182 312.509 27.7493 312.253C28.2279 308.141 32.0221 305.043 36.0327 304.047C40.0506 303.054 41.7109 305.699 46.6327 308.311C47.5474 309.481 48.4475 310.67 49.316 311.88C51.1773 314.456 53.0082 317.191 55.6781 318.913C58.384 320.646 61.6868 321.154 64.9239 320.863L64.9167 320.861Z" fill="white"/>
<path id="Vector_20" d="M106.828 300.65L106.821 300.647C99.4046 304.43 92.5692 304.912 85.0705 307.333C83.9837 307.681 82.8893 308.074 81.7776 308.518L81.666 308.585C81.1347 307.757 80.1588 307.261 79.272 306.788C75.3525 304.688 71.9453 301.656 69.4052 297.999C68.599 296.843 67.8522 295.512 67.9558 294.101C68.1777 290.953 73.5214 287.875 73.98 284.719L74.0499 284.727C76.8449 284.479 80.6771 283.745 83.4172 283.139C89.11 281.894 93.9841 279.836 99.3335 277.52L99.3745 277.518C100.459 285.218 102.8 292.735 106.298 299.677C106.459 300.007 106.637 300.334 106.828 300.65Z" fill="#E7E9FB"/>
<path id="Vector_21" d="M88.9648 347.592C85.6498 349.69 80.8782 349.892 76.874 348.959C67.6131 346.793 70.7674 340.26 32.6124 321.617C29.5376 320.113 27.6079 316.487 27.6924 313.033C30.5815 315.952 33.7976 318.741 37.5862 320.328C56.6038 328.304 62.5536 336.424 76.5869 343.479C80.1228 345.262 84.9956 347.381 88.9576 347.589L88.9648 347.592Z" fill="white"/>
<path id="Vector_22" d="M81.8444 308.937C82.5003 310.462 81.3974 312.154 80.2384 313.349C76.8901 316.818 72.5267 319.294 67.8369 320.389C66.8815 320.611 65.9074 320.771 64.9169 320.861C61.8302 318.471 58.9251 314.302 56.4665 311.279C52.2113 306.033 47.4138 301.265 42.6283 296.509C35.7361 289.658 28.8366 282.805 21.9444 275.955C17.2067 271.247 11.6277 265.84 9.63177 259.46L9.62454 259.457C10.0044 258.488 10.4565 257.544 10.9034 256.638C11.7039 255.029 12.5483 253.362 13.9935 252.297C16.3957 250.533 19.8439 250.969 22.4364 252.421C25.036 253.876 27.0324 256.175 29.1828 258.236C41.6808 270.18 59.7808 274.165 73.8372 284.218L74.0091 284.446C74.0011 284.54 73.9955 284.627 73.9803 284.719C73.5217 287.875 68.178 290.953 67.9561 294.101C67.8525 295.512 68.5993 296.843 69.4055 297.999C71.9457 301.656 75.3528 304.688 79.2723 306.788C80.1591 307.261 81.135 307.757 81.6663 308.585C81.733 308.697 81.7899 308.813 81.8444 308.937Z" fill="white"/>
<path id="Vector_23" d="M56.4669 311.279C58.9255 314.302 61.8306 318.471 64.9173 320.86C61.6802 321.151 58.3774 320.644 55.6714 318.91C53.0016 317.189 51.1707 314.453 49.3094 311.877C48.4409 310.667 47.5408 309.478 46.6261 308.309C35.8554 294.475 22.3425 282.927 11.1103 269.428C10.3409 268.494 9.56916 267.543 9.11265 266.426C8.20933 264.185 8.71484 261.764 9.62493 259.457L9.63215 259.46C11.6281 265.84 17.2071 271.247 21.9448 275.954C28.837 282.805 35.7364 289.658 42.6287 296.509C47.4142 301.265 52.2117 306.033 56.4669 311.279Z" fill="white"/>
</g>
<g id="Group_3">
<path id="Vector_24" d="M336.503 237.154C337.323 236.053 338.164 234.869 338.997 233.635C342.603 228.307 346.081 222.029 347.083 217.023C347.688 214.005 347.936 210.922 348.808 207.972C350.284 202.973 351.25 201.445 354.888 197.72C358.586 193.934 361.142 193.701 365.738 191.088C368.12 189.736 380.048 173.8 381.719 170.589" stroke="#1E222D" stroke-width="2.5" stroke-miterlimit="10" stroke-linecap="round"/>
<path id="Vector_25" d="M422.737 196.636C423.265 199.669 423.137 202.777 422.971 205.856C422.229 219.251 419.822 225.911 417.36 239.097C417.36 239.097 411.01 282.753 397.651 289.311C395.092 290.569 393.163 292.035 390.314 292.062C388.607 292.076 385.895 291.423 384.287 290.607C383.861 290.388 382.23 289.475 380.003 288.228C375.034 285.446 367.122 281.01 363.086 278.991C361.074 277.988 358.972 277.107 357.158 275.759C356.832 275.51 356.499 275.235 356.34 274.849C356.172 274.42 356.254 273.947 356.342 273.5C356.589 272.235 356.882 270.954 357.228 269.682C359.19 262.603 362.823 255.708 368.442 251.19C368.451 251.185 368.454 251.178 368.464 251.173" stroke="#1E222D" stroke-width="2.5" stroke-miterlimit="10" stroke-linecap="round"/>
<path id="Vector_26" d="M402.589 184.281C405.808 183.5 409.229 183.781 412.395 184.735C414.649 185.409 416.834 186.447 418.556 188.062C420.848 190.228 422.15 193.284 422.706 196.399C422.722 196.469 422.731 196.537 422.738 196.612" stroke="#1E222D" stroke-width="2.5" stroke-miterlimit="10" stroke-linecap="round"/>
<path id="Vector_27" d="M285.399 213.613C285.399 213.613 285.402 213.606 285.411 213.601C286.236 211.992 288.478 211.498 288.478 211.498C290.583 211.192 292.425 211.16 294.233 211.228C296.8 211.315 299.289 211.608 302.311 211.616C304.464 211.617 306.709 211.706 308.617 212.706C310.278 213.581 311.525 215.075 312.628 216.591C314.589 219.298 315.714 222.778 317.491 225.6C318.384 227.021 319.448 228.274 320.857 229.176C327.158 233.206 331.948 235.378 336.461 237.253C340.74 239.032 344.766 240.538 349.611 243.117C352.737 244.776 361.032 247.928 368.442 251.19C374.652 253.928 380.238 256.744 381.637 258.855" stroke="#1E222D" stroke-width="2.5" stroke-miterlimit="10" stroke-linecap="round"/>
<path id="Vector_28" d="M301.054 215.032C297.285 214.85 293.499 214.67 289.788 213.99C288.346 213.724 286.86 213.377 285.412 213.601C285.27 213.617 285.132 213.642 284.991 213.675C283.422 214.043 281.84 216.379 282.025 217.986" stroke="#1E222D" stroke-width="2.5" stroke-miterlimit="10" stroke-linecap="round"/>
<path id="Vector_29" d="M295.713 217.488C292.597 217.425 289.488 217.363 286.373 217.3C285.274 217.28 284.145 217.257 283.097 217.609C282.76 217.721 282.395 217.87 282.072 218.059C281.667 218.3 281.336 218.631 281.25 219.071C281.083 219.935 281.337 220.539 281.775 220.98C282.691 221.907 284.435 222.116 284.867 222.457" stroke="#1E222D" stroke-width="2.5" stroke-miterlimit="10" stroke-linecap="round"/>
<path id="Vector_30" d="M291.347 220.819C289.686 220.865 288.035 221.141 286.452 221.642C285.893 221.814 285.294 222.078 284.878 222.469C284.616 222.719 284.425 223.017 284.357 223.382C284.22 224.135 284.742 224.896 285.413 225.27C286.088 225.655 286.886 225.726 287.653 225.77C289.441 225.873 291.237 225.857 293.027 225.717C293.102 225.711 293.184 225.706 293.259 225.7C295.607 225.509 298.137 225.138 300.179 226.313C301.993 227.354 302.976 229.363 303.96 231.202C304.276 231.787 304.602 232.367 304.937 232.943C305.47 233.861 306.044 234.752 306.66 235.617C307.731 237.155 308.943 238.588 310.313 239.865C312.749 242.128 316.98 243.365 320.425 243.905C321.001 243.989 321.557 244.204 322.047 244.517C322.272 244.658 322.546 244.825 322.865 245.023C328.633 248.628 348.529 261.3 357.05 269.638" stroke="#1E222D" stroke-width="2.5" stroke-miterlimit="10" stroke-linecap="round"/>
<path id="Vector_31" d="M317.991 258.637C302.902 255.73 286.846 251.758 272.097 247.432C270.587 246.988 269.056 246.537 267.51 246.081C256.067 242.7 243.79 238.978 232.489 235.654C231.319 235.302 230.583 234.153 230.757 232.936L231.093 230.586" stroke="#1E222D" stroke-width="2.5" stroke-miterlimit="10" stroke-linecap="round"/>
<path id="Vector_32" d="M392.428 205.897C388.187 225.159 383.312 246.603 380.652 266.146" stroke="#1E222D" stroke-width="2.5" stroke-miterlimit="10" stroke-linecap="round"/>
<path id="Vector_33" d="M322.832 245.076C322.555 247.866 320.843 251.385 319.399 254.875C318.867 256.148 318.378 257.411 317.999 258.639C317.408 260.578 317.107 262.423 317.427 264.011C318.06 267.113 319.991 269.769 321.869 272.319C329.419 282.554 336.963 292.779 344.51 303.022C345.095 303.812 345.687 304.604 346.269 305.401" stroke="#1E222D" stroke-width="2.5" stroke-miterlimit="10" stroke-linecap="round"/>
<path id="Vector_34" d="M341.633 308.955C342.958 310.483 344.117 311.575 346.145 311.517C347.514 311.476 348.517 310.219 349.836 309.83C360.854 306.576 364.721 298.452 379.824 288.539" stroke="#1E222D" stroke-width="2.5" stroke-miterlimit="10" stroke-linecap="round"/>
<path id="Vector_35" d="M421.394 181.655C421.394 181.655 421.401 181.681 421.405 181.691C422.991 185.143 423.025 191.433 422.738 196.612C422.736 196.619 422.74 196.629 422.738 196.636" stroke="#1E222D" stroke-width="2.5" stroke-miterlimit="10" stroke-linecap="round"/>
<path id="Vector_36" d="M185.919 272.009C185.321 273.97 185.306 275.193 185.045 276.712C184.925 277.414 184.674 278.08 184.316 278.677C184.221 278.838 184.111 278.994 184.003 279.143C183.647 279.619 183.226 280.049 182.747 280.411C167.741 291.739 148.684 295.718 130.223 299.036C124.167 300.116 118.109 301.179 112.039 302.182C111.935 302.203 111.826 302.214 111.723 302.235C110.509 302.434 109.19 302.613 108.133 302.001C107.58 301.683 107.174 301.196 106.828 300.65C106.638 300.334 106.46 300.007 106.298 299.677C102.801 292.735 100.459 285.218 99.3751 277.518C99.2904 276.964 99.2202 276.414 99.1524 275.858C99.0783 275.202 99.412 274.557 99.9892 274.237C106.251 270.763 141.773 251.098 164.347 239.667C167.411 238.113 170.245 236.715 172.724 235.526C175.473 234.212 178.267 232.905 181.253 232.31C186.014 231.361 190.931 232.291 195.693 233.225C219.523 237.861 243.36 242.499 267.197 247.138" stroke="#1E222D" stroke-width="2.5" stroke-miterlimit="10" stroke-linecap="round"/>
<path id="Vector_37" d="M181.657 273.056C181.188 275.206 182.519 277.399 184.316 278.677C184.369 278.711 184.419 278.752 184.472 278.786C186.345 280.057 188.592 280.584 190.747 281.264C195.312 282.704 199.597 284.889 203.852 287.072C216.439 293.519 229.034 299.969 241.619 306.423C252.109 311.789 262.608 317.174 273.532 321.573C278.195 323.459 282.974 325.167 287.958 325.829C293.157 326.524 298.445 326.062 303.623 325.239C317.468 323.034 331.149 317.935 340.503 307.874C341.855 306.421 343.114 304.864 344.272 303.199" stroke="#1E222D" stroke-width="2.5" stroke-miterlimit="10" stroke-linecap="round"/>
<path id="Vector_38" d="M106.951 283.762C130.235 274.336 148.153 264.609 171.437 255.183C175.867 253.386 182.767 251.018 187.538 250.84C191.223 250.702 197.879 252.397 201.448 253.303C226.086 259.565 249.13 270.954 272.743 280.373C278.705 282.751 285.354 285.502 291.649 286.767C302.896 289.022 316.582 284.24 326.891 279.192" stroke="#1E222D" stroke-width="2.5" stroke-miterlimit="10" stroke-linecap="round"/>
<path id="Vector_39" d="M112.051 302.242C113.001 308.943 115.899 315.753 120.161 321.025C120.22 321.11 120.29 321.19 120.352 321.268C121.114 322.2 122.002 323.142 123.182 323.416C124.558 323.733 125.954 323.047 127.213 322.386C147.791 311.534 170.094 297.829 184.011 279.146C184.096 279.038 184.181 278.929 184.259 278.819" stroke="#1E222D" stroke-width="2.5" stroke-miterlimit="10" stroke-linecap="round"/>
<path id="Vector_40" d="M164.325 239.684C164.325 239.684 164.337 239.672 164.347 239.667C167.29 236.795 171.891 232.138 174.834 229.266C176.805 227.346 178.866 225.376 181.469 224.489C184.286 223.537 187.353 223.98 190.292 224.444C203.001 226.432 218.36 228.598 231.069 230.586" stroke="#1E222D" stroke-width="2.5" stroke-miterlimit="10" stroke-linecap="round"/>
<path id="Vector_41" d="M306.641 235.627C289.495 231.329 270.489 226.315 253.35 222.02C252.466 221.799 251.557 221.577 250.648 221.5C250.062 221.445 249.48 221.448 248.902 221.558C247.868 221.753 246.915 222.252 245.981 222.74C241.02 225.359 236.062 227.97 231.094 230.586L231.087 230.583C230.761 229.672 209.924 171.884 208.831 168.052C207.126 162.071 204.632 153.565 202.929 147.576L223.271 146.162C224.443 151.274 248.654 216.624 250.653 221.462" stroke="#1E222D" stroke-width="2.5" stroke-miterlimit="10" stroke-linecap="round"/>
<path id="Vector_42" d="M317.47 225.593L317.491 225.6C322.031 227.727 334.275 231.971 338.983 233.63" stroke="#1E222D" stroke-width="2.5" stroke-miterlimit="10" stroke-linecap="round"/>
<path id="Vector_43" d="M293.027 225.717C296.486 228.339 301.011 231.05 304.937 232.943C304.959 232.95 304.978 232.965 305 232.972" stroke="#1E222D" stroke-width="2.5" stroke-miterlimit="10" stroke-linecap="round"/>
<path id="Vector_44" d="M280.965 205.567C278.149 204.321 275.188 203.405 272.163 202.839C271.739 202.758 271.278 202.69 270.907 202.902C270.5 203.126 270.312 203.628 270.354 204.095C270.389 204.559 270.607 204.981 270.85 205.38C271.434 206.315 272.187 207.154 273.05 207.837C274.033 208.618 275.158 209.197 276.276 209.773C278.088 210.7 279.893 211.625 281.703 212.559" stroke="#1E222D" stroke-width="2.5" stroke-miterlimit="10" stroke-linecap="round"/>
<path id="Vector_45" d="M272.503 199.746C270.431 200.686 268.366 201.629 266.295 202.568C265.522 202.918 264.698 203.275 263.859 203.158C263.343 203.086 262.836 202.751 262.582 202.317C262.417 202.042 262.355 201.73 262.437 201.419C262.534 201.064 262.795 200.773 263.053 200.514C263.323 200.243 263.61 199.994 263.899 199.761L263.907 199.764C266.016 198.029 268.641 197.052 271.389 196.448C272.924 196.109 274.493 195.886 276.03 195.708C277.078 195.59 278.17 195.487 279.167 195.828C280.329 196.225 281.21 197.165 282.037 198.07C285.654 202.023 290.614 207.259 294.233 211.228L294.269 211.265" stroke="#1E222D" stroke-width="2.5" stroke-miterlimit="10" stroke-linecap="round"/>
<path id="Vector_46" d="M271.386 196.431C270.056 195.532 267.42 194.089 265.851 193.746C263.868 193.319 261.809 193.374 259.778 193.439C259.078 193.458 258.368 193.482 257.668 193.501C256.893 193.527 256.101 193.555 255.41 193.9C254.719 194.246 254.169 195.003 254.315 195.756C254.417 196.284 254.812 196.662 255.288 196.945C255.595 197.131 255.934 197.272 256.257 197.39C258.319 198.152 261.728 199.221 263.872 199.72" stroke="#1E222D" stroke-width="2.5" stroke-miterlimit="10" stroke-linecap="round"/>
<path id="Vector_47" d="M255.268 196.979C254.148 197.234 253.117 198.15 252.412 199.057C252.285 199.215 252.168 199.393 252.171 199.597C252.176 199.841 252.363 200.05 252.542 200.208C253.824 201.39 255.532 202.031 257.254 202.305C258.08 202.434 258.908 202.491 259.743 202.502C260.651 202.513 261.556 202.484 262.464 202.447" stroke="#1E222D" stroke-width="2.5" stroke-miterlimit="10" stroke-linecap="round"/>
<path id="Vector_48" d="M259.743 202.55C258.704 202.946 255.453 203.491 254.407 203.884C253.21 204.34 251.834 205.016 251.673 206.287C251.582 207.072 252.039 207.858 252.682 208.313C253.33 208.777 254.13 208.961 254.919 209.037C255.932 209.141 256.96 209.081 257.954 208.864C258.624 208.721 259.285 208.511 259.968 208.494C262.252 208.443 265.41 210.436 267.691 210.206C267.708 210.204 267.732 210.204 267.749 210.202" stroke="#1E222D" stroke-width="2.5" stroke-miterlimit="10" stroke-linecap="round"/>
<path id="Vector_49" d="M268.531 208.053C268.012 208.652 267.743 209.416 267.69 210.206C267.643 210.934 267.77 211.672 268.039 212.346C268.597 213.757 269.679 214.886 270.805 215.91C272.628 217.56 274.621 219.018 276.757 220.249C278.379 221.192 279.969 222.059 281.614 221.143" stroke="#1E222D" stroke-width="2.5" stroke-miterlimit="10" stroke-linecap="round"/>
<path id="Vector_50" d="M207.316 151.258C212.658 150.613 217.996 149.958 223.339 149.313" stroke="#1E222D" stroke-width="2.5" stroke-miterlimit="10" stroke-linecap="round"/>
<path id="Vector_51" d="M233.198 224.267C234.484 223.786 235.713 223.164 236.942 222.542C240.77 220.619 244.837 218.608 248.66 216.675" stroke="#1E222D" stroke-width="2.5" stroke-miterlimit="10" stroke-linecap="round"/>
<path id="Vector_52" d="M235.133 232.994C262.643 241.257 291.372 248.595 319.398 254.876L319.413 254.881" stroke="#1E222D" stroke-width="2.5" stroke-miterlimit="10" stroke-linecap="round"/>
<path id="Vector_53" d="M298.273 254.381C303.945 257.137 308.208 262.83 309.518 269" stroke="#1E222D" stroke-width="2.5" stroke-miterlimit="10" stroke-linecap="round"/>
<path id="Vector_54" d="M296.688 254.114C295.902 259.074 294.807 264.186 293.583 269.061" stroke="#1E222D" stroke-width="2.5" stroke-miterlimit="10" stroke-linecap="round"/>
<path id="Vector_55" d="M382.187 173.513C382.379 173.659 382.57 173.806 382.767 173.938C385.829 176.117 389.674 177.068 393.403 176.566C397.368 176.031 401.155 173.851 403.768 170.599C404.524 169.662 404.898 169.063 405.253 167.907" stroke="#1E222D" stroke-width="2.5" stroke-miterlimit="10" stroke-linecap="round"/>
<path id="Vector_56" d="M99.3336 277.52C93.9843 279.836 89.1102 281.894 83.4173 283.139C80.6773 283.745 76.8451 284.479 74.0501 284.727" stroke="#1E222D" stroke-width="2.5" stroke-miterlimit="10" stroke-linecap="round"/>
<path id="Vector_57" d="M106.818 300.654C99.4047 304.43 92.5692 304.912 85.0706 307.333C83.9838 307.681 82.8894 308.074 81.7777 308.518" stroke="#1E222D" stroke-width="2.5" stroke-miterlimit="10" stroke-linecap="round"/>
<path id="Vector_58" d="M120.092 321.083C111.981 323.666 104.138 326.882 98.2212 328.923" stroke="#1E222D" stroke-width="2.5" stroke-miterlimit="10" stroke-linecap="round"/>
<path id="Vector_59" d="M9.62448 259.457C10.0044 258.488 10.4564 257.544 10.9034 256.638C11.7038 255.029 12.5482 253.362 13.9934 252.297C16.3956 250.533 19.8438 250.969 22.4363 252.421C25.0359 253.876 27.0323 256.175 29.1827 258.236C41.6808 270.18 59.7807 274.165 73.8372 284.218L74.0091 284.446C74.001 284.54 73.9955 284.627 73.9802 284.719C73.5216 287.876 68.1779 290.953 67.956 294.101C67.8524 295.512 68.5992 296.843 69.4054 297.999C71.9456 301.656 75.3528 304.688 79.2722 306.789C80.159 307.262 81.1349 307.757 81.6663 308.585C81.7329 308.697 81.7899 308.813 81.8444 308.937C82.5002 310.462 81.3973 312.154 80.2383 313.35C76.89 316.819 72.5266 319.294 67.8368 320.389C66.8815 320.611 65.9073 320.771 64.9168 320.861C61.6797 321.151 58.3769 320.644 55.671 318.91C53.0011 317.189 51.1702 314.453 49.3089 311.877C48.4404 310.667 47.5403 309.478 46.6256 308.309C35.8549 294.475 22.3421 282.927 11.1099 269.428C10.3404 268.495 9.5687 267.544 9.11219 266.426C8.20887 264.186 8.71438 261.764 9.62448 259.457Z" stroke="#1E222D" stroke-width="2.5" stroke-miterlimit="10" stroke-linecap="round"/>
<path id="Vector_60" d="M46.6258 308.309C41.704 305.696 40.0436 303.051 36.0258 304.045C32.0151 305.041 28.221 308.139 27.7423 312.25C27.7112 312.506 27.6945 312.767 27.6923 313.033C27.6078 316.487 29.5375 320.113 32.6123 321.617C70.7673 340.26 67.613 346.794 76.874 348.959C80.8781 349.893 85.6497 349.69 88.9647 347.592C90.2728 346.763 91.3516 345.637 92.064 344.167C92.9483 342.336 102.45 335.145 102.672 331.9C102.702 331.482 102.723 331.045 102.506 330.688C102.14 330.086 101.307 330.043 100.618 329.937C99.7352 329.805 98.9172 329.484 98.1484 329.044C97.0648 328.439 96.0796 327.617 95.1232 326.805C92.5513 324.632 89.9006 322.36 88.507 319.289C86.6181 315.12 87.7641 311.156 85.1014 307.433" stroke="#1E222D" stroke-width="2.5" stroke-miterlimit="10" stroke-linecap="round"/>
<path id="Vector_61" d="M9.63184 259.46C11.6277 265.84 17.2068 271.247 21.9445 275.955C28.8367 282.805 35.7361 289.658 42.6283 296.509C47.4139 301.265 52.2114 306.034 56.4666 311.279C58.9251 314.302 61.8303 318.472 64.917 320.861C64.9242 320.863 64.9387 320.868 64.9459 320.871" stroke="#1E222D" stroke-width="2.5" stroke-miterlimit="10" stroke-linecap="round"/>
<path id="Vector_62" d="M27.6992 313.035C30.5883 315.955 33.8044 318.744 37.593 320.331C56.6106 328.306 62.5604 336.427 76.5937 343.481C80.1296 345.265 85.0025 347.384 88.9644 347.592C88.9813 347.589 88.9958 347.594 89.0127 347.592" stroke="#1E222D" stroke-width="2.5" stroke-miterlimit="10" stroke-linecap="round"/>
<path id="Vector_63" d="M376.111 160.267C378.362 163.073 380.338 166.917 381.719 170.589C382.142 171.711 382.514 172.817 382.814 173.873" stroke="#1E222D" stroke-width="2.5" stroke-miterlimit="10" stroke-linecap="round"/>
<path id="Vector_64" d="M377.537 114.62C379.373 117.082 379.111 122.116 385.394 124.685C388.274 125.864 388.2 128.32 390.712 130.149L393.172 127.911C394.342 126.825 396.285 126.875 397.593 127.791C398.893 128.705 399.597 130.303 399.74 131.887C399.881 133.479 399.53 135.072 399.078 136.606C398.773 137.617 398.409 138.656 397.659 139.41C396.79 140.277 395.102 140.895 393.915 141.208C393.479 141.326 393.029 141.439 392.591 141.353L394.709 152.139C395.379 156.522 397.259 160.672 400.322 163.861C400.975 164.545 401.675 165.188 402.408 165.779C403.327 166.513 404.316 167.183 405.288 167.855C406.994 169.044 408.661 170.253 409.876 171.913C411.174 173.682 411.866 175.858 413.264 177.549C415.257 179.952 418.288 180.972 421.405 181.691C422.475 181.936 423.557 182.144 424.605 182.357C425.827 182.606 427.874 182.587 430.206 182.633C437.538 182.797 450.799 190.622 441.592 196.766C441.529 196.809 441.576 196.882 441.593 196.904C445.313 201.473 453.805 191.481 456.394 186.176" stroke="#1E222D" stroke-width="2.5" stroke-miterlimit="10" stroke-linecap="round"/>
<path id="Vector_65" d="M354.277 117.775C351.524 111.556 352.234 102.619 357.276 98.0405C360.074 95.4983 363.782 94.2294 367.44 93.3228C372.121 92.1601 381.366 91.5649 385.745 93.5718" stroke="#1E222D" stroke-width="2.5" stroke-miterlimit="10" stroke-linecap="round"/>
<path id="Vector_66" d="M364.043 104.549C365.316 107.595 366.58 110.338 369.502 111.863C371.548 112.935 374.72 113.777 377.544 114.598C378.924 114.997 380.231 115.396 381.276 115.81" stroke="#1E222D" stroke-width="2.5" stroke-miterlimit="10" stroke-linecap="round"/>
<path id="Vector_67" d="M359.625 149.205C360.098 149.238 360.567 149.236 361.038 149.203C362.946 149.072 364.08 148.491 365.819 147.016" stroke="#1E222D" stroke-width="2.5" stroke-miterlimit="10" stroke-linecap="round"/>
<path id="Vector_68" d="M354.881 142.16C354.75 143.416 355.287 145.855 354.874 147.532C354.817 147.747 354.834 148.003 354.985 148.176C355.09 148.293 355.244 148.337 355.398 148.382C356.786 148.759 358.19 149.11 359.611 149.201" stroke="#1E222D" stroke-width="2.5" stroke-miterlimit="10" stroke-linecap="round"/>
<path id="Vector_69" d="M359.663 149.186C359.663 149.186 359.637 149.193 359.625 149.205L359.61 149.2C358.622 149.565 356.635 150.494 356.455 151.491C356.356 152.063 356.709 152.871 357.171 153.595C357.956 154.792 358.969 155.131 359.034 156.567C359.034 156.567 359.165 162.034 360.281 163.369C360.658 163.822 361.073 164.19 361.525 164.377C365.879 166.149 374.328 161.233 376 160.213C376.175 160.103 376.269 160.038 376.289 160.029C377.452 159.247 381.498 159.232 384.488 151.504" stroke="#1E222D" stroke-width="2.5" stroke-miterlimit="10" stroke-linecap="round"/>
<path id="Vector_70" d="M367.724 123.474C366.57 122.368 364.969 121.554 363.538 121.306C362.106 121.059 360.325 121.5 359.055 122.456" stroke="#1E222D" stroke-width="2.5" stroke-miterlimit="10" stroke-linecap="round"/>
<path id="Vector_71" d="M452.483 180.346C454.183 181.978 455.514 183.984 456.393 186.176C457.817 189.677 458.124 193.637 457.111 197.283C461.669 193.225 463.435 187.001 464.389 180.911L464.382 180.908C464.476 180.35 464.553 179.795 464.627 179.247C465.291 174.31 465.562 168.851 462.675 164.793" stroke="#1E222D" stroke-width="2.5" stroke-miterlimit="10" stroke-linecap="round"/>
<path id="Vector_72" d="M469.289 159.297C470.783 162.806 471.382 166.737 470.718 170.494C470.521 171.614 470.151 172.789 469.642 173.948C468.472 176.659 466.567 179.28 464.451 180.916" stroke="#1E222D" stroke-width="2.5" stroke-miterlimit="10" stroke-linecap="round"/>
<path id="Vector_73" d="M358.914 140.178C359.202 142.685 357.149 142.79 357.149 142.79C356.538 143.042 355.648 142.487 354.9 142.126C354.693 142.023 354.496 141.94 354.318 141.895C353.186 141.596 351.033 142.137 350.019 141.564C349.593 141.321 349.171 141.047 348.909 140.635C348.504 140.003 348.574 139.162 348.869 138.463C349.169 137.774 353.302 132.86 354.411 130.209C354.908 129.014 355.521 127.623 355.339 126.341L354.19 119.653C354.217 119.031 354.254 118.406 354.315 117.78C354.515 115.473 354.974 113.189 355.933 111.093C357.152 108.423 359.272 106.069 362.028 105.064C362.681 104.827 363.351 104.66 364.038 104.54C364.952 104.367 365.882 104.265 366.796 104.117C372.982 103.106 378.799 99.9641 383.036 95.3363C383.908 94.6971 384.815 94.1187 385.754 93.5912C386.945 92.9157 388.193 92.3325 389.469 91.8558C391.752 91.0045 394.149 90.4828 396.598 90.3507C399.747 90.1754 402.922 90.445 405.993 91.1563C408.704 91.7925 411.36 92.774 413.609 94.4076C416.845 96.7592 419.01 100.263 421.297 103.551C423.895 107.3 426.745 110.877 429.818 114.248C432.583 117.27 435.576 120.169 439.159 122.146C442.057 123.743 445.276 124.707 448.171 126.311C452.016 128.443 455.228 131.715 457.286 135.603C459.239 139.301 460.32 143.712 463.607 146.291C468.754 150.322 476.697 147.899 482.347 151.189C482.534 151.302 482.719 151.422 482.904 151.542C487.183 154.452 487.99 160.465 484.923 164.645L484.046 165.84C484.656 161.014 480.925 156.053 476.12 155.314L476.297 155.836C478.785 160.234 478.173 164.146 476.567 167.048C474.964 169.942 472.673 172.56 469.683 173.97" stroke="#1E222D" stroke-width="2.5" stroke-miterlimit="10" stroke-linecap="round"/>
<path id="Vector_74" d="M366.186 128.136C364.956 126.64 363.236 125.656 361.635 125.973C361.333 126.031 361.04 126.133 360.751 126.293L360.52 126.521C360.119 126.868 359.949 127.812 360.039 128.304C360.139 128.79 360.781 129.366 361.192 129.603C361.602 129.841 362.159 129.724 362.447 129.022C362.657 128.504 361.849 126.361 361.656 126.077" stroke="#1E222D" stroke-width="2.5" stroke-miterlimit="10" stroke-linecap="round"/>
</g>
</g>
<path id="Vector_75" d="M167.361 297.565C178.382 313.214 191.387 327.521 206.427 339.389C213.828 345.225 221.718 350.454 230.041 354.892C238.634 359.481 247.661 363.158 256.934 366.136C276.256 372.349 296.49 375.472 316.762 376.079C326.91 376.382 337.07 376.059 347.192 375.238C356.624 374.473 365.935 373.003 375.078 370.514C384.221 368.025 393 364.692 401.397 360.445C410.095 356.051 418.338 350.676 426.398 345.222C440.576 335.631 454.02 324.835 465.42 311.999C475.904 300.191 484.29 286.735 490.545 272.244C497.376 256.422 501.977 239.507 505.126 222.587C508.251 205.789 509.549 188.624 508.145 171.578C506.751 154.688 502.584 138.079 495.578 122.647C491.871 114.478 487.381 106.664 482.496 99.158C477.527 91.5188 472.08 84.1928 466.181 77.2454C454.439 63.4431 440.909 51.1217 426 40.826C411.091 30.5302 394.866 22.2894 377.729 16.5732C361.548 11.1758 344.501 8.02758 327.472 7.04323C311.81 6.13892 296.012 7.216 280.66 10.5229C265.283 13.8368 250.403 19.3736 236.521 26.7792C229.336 30.6168 222.41 34.9471 215.776 39.6759C214.049 40.9036 212.347 42.1556 210.665 43.4391C209.315 44.464 207.87 45.4568 206.646 46.6301C203.935 49.2262 201.241 51.8441 198.645 54.5522C184.455 69.3194 172.588 86.0447 163.046 104.155C158.007 113.721 153.026 123.403 148.764 133.34C144.714 142.775 141.599 152.611 139.471 162.655C137.337 172.737 136.176 183.016 136.039 193.321C135.975 198.317 136.233 203.294 136.488 208.279C136.742 213.101 137.003 217.926 137.388 222.744C138.131 231.985 139.34 241.255 142.005 250.159C142.42 251.562 144.676 251.121 144.249 249.706C141.506 240.534 140.305 230.983 139.569 221.462C139.201 216.69 138.956 211.911 138.709 207.139C138.461 202.368 138.242 197.209 138.349 192.228C138.772 171.911 143.202 151.745 151.349 133.117C155.665 123.256 160.603 113.631 165.639 104.121C170.343 95.2488 175.631 86.6977 181.527 78.5645C187.451 70.3928 193.954 62.6531 200.986 55.4178C203.392 52.9355 205.82 50.4124 208.413 48.1152C211.375 45.4919 214.747 43.2029 217.979 40.9224C230.897 31.8055 244.971 24.2877 259.835 18.891C274.247 13.6626 289.404 10.4994 304.681 9.43783C320.692 8.32846 336.817 9.50448 352.574 12.462C369.968 15.7287 386.842 21.4358 402.605 29.4943C418.368 37.5528 433.228 47.9449 446.369 59.9878C459.648 72.1502 471.379 86.054 481.115 101.215C490.491 115.824 497.934 131.486 502.08 148.395C506.043 164.539 507.124 181.257 506.008 197.821C504.842 215.023 501.373 232.003 496.542 248.533C492.001 264.071 485.859 279.151 477.105 292.811C468.351 306.472 457.807 317.726 445.746 327.872C438.93 333.605 431.743 338.889 424.355 343.861C416.359 349.247 408.17 354.535 399.523 358.826C391.17 362.967 382.39 366.235 373.376 368.606C364.289 371.001 355.042 372.356 345.679 373.081C325.72 374.626 305.539 374.107 285.785 370.784C266.479 367.542 247.274 361.717 230.055 352.303C213.576 343.297 198.887 331.25 186.214 317.412C180.055 310.683 174.362 303.531 169.107 296.069C168.253 294.864 166.534 296.377 167.376 297.57L167.361 297.565Z" fill="#1E222D"/>
<path id="Vector_76" d="M197.59 85.5784C205.193 73.8433 213.163 61.9103 225.515 54.7087C229.403 52.4428 233.568 50.6913 237.889 49.4462C239.295 49.0382 238.856 46.7867 237.44 47.1995C229.743 49.4233 222.614 53.1429 216.483 58.3105C211.011 62.9197 206.435 68.4903 202.326 74.3254C200.025 77.5868 197.863 80.9363 195.694 84.2833C194.892 85.5201 196.781 86.8127 197.583 85.5759L197.59 85.5784Z" fill="#1E222D"/>
</g>
</g>
</g>
<defs>
<clipPath id="clip0_1992_144">
<rect width="662" height="538" fill="white"/>
</clipPath>
<clipPath id="clip1_1992_144">
<rect width="460.717" height="412.907" fill="white" transform="translate(121.635 -71.0249) rotate(18.8834)"/>
</clipPath>
</defs>
</svg>
