<svg width="451" height="452" viewBox="0 0 451 452" fill="none" xmlns="http://www.w3.org/2000/svg">
<g id="img-girl-on-phone">
<path id="Vector 336" d="M449.5 248.416C378.047 267.036 342.321 236.003 346.981 200.315C351.641 164.627 415.327 172.385 401.347 209.625C387.367 246.864 296.474 306.215 207.183 279.449C103.657 248.416 109.059 315.264 60.3884 332.849C49.4126 339.189 22.2688 348.064 1.5 332.849" stroke="#8694FF" stroke-width="3" stroke-linecap="round"/>
<g id="Layer 3">
<g id="Group">
<g id="Group_2">
<path id="Vector" d="M245.146 179.157C245.578 188.333 239.857 198.222 239.781 207.407C239.758 209.612 239.925 211.567 240.902 213.507C239.97 211.915 239.167 210.241 238.485 208.558C236.106 202.701 234.022 194.593 231.165 188.947C232.332 185.984 233.681 182.158 233.431 179.028L233.567 179.013C235.31 179.074 239.864 179.331 242.001 179.46C243.077 179.521 244.123 179.377 245.1 179.036L245.146 179.157Z" fill="#C5CBFF"/>
<path id="Vector_2" d="M341.55 423.348C343.088 426.364 342.292 430.168 340.315 432.918C338.344 435.669 335.374 437.533 332.358 439.064C320.749 444.937 306.397 447.127 293.644 444.565H293.598C293.621 443.929 293.598 443.3 293.522 442.663C293.272 440.443 292.484 438.268 291.378 436.2L291.431 436.169C301.699 437.867 312.618 437.048 322.507 433.82C329.486 431.554 336.738 427.319 338.663 420.233L338.685 420.203C339.883 421.006 340.883 422.022 341.55 423.348Z" fill="white"/>
<path id="Vector_3" d="M338.685 420.203L338.662 420.233C336.738 427.318 329.486 431.554 322.507 433.82C312.618 437.048 301.698 437.867 291.431 436.169L291.378 436.2C289.817 433.275 287.612 430.547 285.353 428.152C281.489 424.06 277.041 419.62 274.76 414.474L274.82 414.444C277.321 414.474 281.087 411.928 282.209 409.7C283.035 408.064 283.504 406.283 284.095 404.548C284.3 403.911 284.535 403.29 284.8 402.676C286.308 399.236 289.21 396.303 292.825 395.31C294.204 394.931 295.674 394.871 297.091 395.121C299.395 395.515 301.539 396.712 302.858 398.622C304.752 401.357 304.813 405.07 306.775 407.76C308.352 409.913 310.898 411.087 313.368 412.08C318.68 414.201 324.166 415.891 329.751 417.111C332.797 417.778 336.177 418.513 338.685 420.203Z" fill="#C5CBFF"/>
<path id="Vector_4" d="M283.451 362.612C287.612 373.797 292.189 384.686 297.114 394.999L297.091 395.121C295.674 394.871 294.204 394.931 292.825 395.31C289.21 396.303 286.308 399.235 284.8 402.676C284.535 403.289 284.3 403.911 284.096 404.547L284.043 404.532C281.997 406.404 276.904 408.935 273.403 410.124C272.729 410.352 272.108 410.526 271.585 410.64C270.948 410.776 270.259 410.875 269.668 410.594C269.084 410.306 268.736 409.7 268.417 409.124C267.25 406.987 266.076 404.843 264.909 402.706L265.038 402.638C266.94 402.365 270.153 399.228 271.57 397.932C271.986 397.553 272.403 397.144 272.812 396.712L272.737 396.636C267.69 391.741 254.679 365.537 250.951 359.574C248.223 355.201 234.5 326.02 232.984 314.661C232.287 309.402 231.62 302.953 229.294 298.194L229.21 298.111C228.528 298.808 227.839 299.513 227.149 300.21C228.445 297.247 226.914 292.14 224.383 290.132C217.556 284.699 208.607 282.956 200.074 281.114C186.859 278.258 173.78 274.757 160.905 270.627C157.851 269.649 154.752 268.604 152.198 266.664C149.645 264.731 141.817 256.495 141.961 253.297L141.976 253.168C142.181 253.191 142.4 253.153 142.613 253.054C145.303 251.789 147.515 249.879 150.061 248C160.481 240.286 173.211 235.747 186.162 235.125C191.33 234.875 196.505 235.239 201.681 235.444C215.275 236.004 228.907 235.504 242.426 233.974C259.703 242.332 279.503 255.009 293.712 267.914C295.333 269.384 296.947 270.9 298.16 272.726C300.418 276.121 301.123 280.334 301.244 284.411C301.471 292.034 299.88 299.589 298.182 307.022C293.947 325.626 289.013 344.343 283.474 362.605H283.451V362.612Z" fill="white"/>
<path id="Vector_5" d="M293.522 442.663C293.598 443.3 293.621 443.929 293.598 444.565C293.583 445.391 293.477 446.217 293.287 447.051C293.014 448.203 292.507 449.4 291.476 449.976C290.726 450.392 289.832 450.415 288.975 450.415C280.701 450.476 272.236 450.127 264.507 447.149C260.597 445.641 256.967 443.489 253.36 441.345C246.836 437.465 240.304 433.593 233.78 429.713C232.113 428.728 230.294 427.531 229.885 425.644C229.635 424.469 229.983 423.264 230.332 422.113C230.794 420.589 231.256 419.074 231.718 417.551L231.885 417.604C235.409 421.84 242.274 423.484 246.215 427.341C247.927 429.008 249.208 431.092 250.943 432.736C254.02 435.646 258.24 436.942 262.302 438.132C271.592 440.86 284.323 445.906 293.454 442.671H293.522V442.663Z" fill="white"/>
<path id="Vector_6" d="M293.522 442.663H293.454C284.323 445.906 271.593 440.86 262.302 438.132C258.241 436.942 254.02 435.646 250.943 432.736C249.208 431.092 247.927 429.008 246.215 427.341C242.274 423.484 235.409 421.84 231.885 417.604L231.719 417.551C234.28 409.23 237.023 400.94 240.865 393.135C241.032 392.802 241.448 392.65 241.782 392.81C241.888 392.863 241.994 392.923 242.093 392.991C244.116 394.227 244.737 397.333 246.397 399.266C249.094 402.403 257.748 399.872 259.226 396.007V395.947C259.87 395.947 260.499 395.924 261.12 395.879L261.158 395.856C262.408 398.137 263.659 400.425 264.909 402.706C266.076 404.843 267.25 406.987 268.417 409.124C268.736 409.7 269.084 410.306 269.668 410.594C270.259 410.875 270.948 410.776 271.585 410.64C272.108 410.526 272.729 410.352 273.404 410.125L273.434 410.216C273.692 411.693 274.146 413.11 274.76 414.474C277.041 419.619 281.489 424.06 285.354 428.152C287.612 430.546 289.817 433.274 291.378 436.199C292.484 438.268 293.272 440.443 293.522 442.663Z" fill="#C5CBFF"/>
<path id="Vector_7" d="M284.042 404.532L284.095 404.547C283.504 406.283 283.035 408.063 282.209 409.7C281.087 411.928 277.321 414.474 274.82 414.444L274.76 414.474C274.146 413.11 273.691 411.693 273.434 410.215L273.403 410.125C276.904 408.935 281.996 406.404 284.042 404.532Z" fill="#F6F6FF"/>
<path id="Vector_8" d="M227.149 300.21C227.839 299.513 228.528 298.808 229.21 298.111L229.294 298.195C231.62 302.953 232.287 309.402 232.984 314.661C234.5 326.02 248.223 355.202 250.951 359.574C254.679 365.538 267.69 391.741 272.737 396.636L272.812 396.712C272.403 397.144 271.986 397.553 271.57 397.932C270.153 399.228 266.94 402.365 265.038 402.638L264.909 402.706C263.659 400.425 262.408 398.137 261.158 395.856C256.558 387.445 251.951 379.033 247.351 370.63C247.056 370.092 246.76 369.554 246.472 369.008C236.97 351.625 227.513 333.795 224.24 314.274C223.936 312.471 223.679 310.63 222.966 308.947C222.178 307.091 220.852 305.492 220.041 303.643C219.587 302.628 219.306 301.552 219.193 300.453L219.064 300.468C203.007 297.081 186.245 293.474 170.188 290.094C162.246 288.419 153.82 286.487 148.144 280.69C141.544 273.954 140.302 262.504 141.643 253.168L141.666 253.1C141.764 253.145 141.87 253.168 141.976 253.168L141.961 253.297C141.817 256.495 149.645 264.732 152.198 266.664C154.752 268.604 157.851 269.65 160.905 270.627C173.78 274.757 186.859 278.258 200.074 281.115C208.607 282.956 217.556 284.699 224.383 290.132C226.914 292.14 228.445 297.247 227.149 300.21Z" fill="white"/>
<path id="Vector_9" d="M248.23 161.077V161.039C247.132 160.182 247.048 157.182 248.276 156.507C249.117 156.037 250.147 156.189 251.087 156.394C254.346 157.106 257.505 158.288 260.423 159.894C260.734 159.561 260.499 159.031 260.249 158.652C258.46 155.984 255.914 153.37 256.134 150.165C256.157 149.922 256.194 149.672 256.346 149.49C256.49 149.316 256.71 149.233 256.93 149.18C258.256 148.846 259.551 149.377 260.635 150.263C261.317 150.816 261.916 151.498 262.401 152.203C265.424 156.613 266.25 162.357 265.015 167.563C264.022 171.776 261.749 175.618 258.741 178.74L258.786 178.778C260.696 184.749 262.658 192.062 264.189 198.139C265.038 201.488 265.826 204.944 265.348 208.369C264.909 211.498 263.431 214.378 261.976 217.189C260.794 219.485 259.438 221.941 257.073 222.986C254.997 223.896 252.565 223.502 250.481 222.623C246.328 220.872 243.206 217.455 240.903 213.507C239.925 211.567 239.758 209.612 239.781 207.407C239.857 198.222 245.578 188.333 245.146 179.157L245.101 179.036C247.238 178.316 249.026 176.709 249.95 174.557L250.451 173.095L250.481 173.049C249.011 172.102 247.617 171.034 246.23 169.973C245.662 169.533 245.086 169.086 244.714 168.472C244.351 167.866 244.244 167.04 244.639 166.449C244.987 165.934 245.646 165.699 246.268 165.714C246.51 165.714 246.745 165.76 246.98 165.82C246.033 165.078 245.571 163.668 245.518 162.91C245.472 162.236 245.555 161.418 246.162 161.13C246.389 161.031 246.639 161.024 246.882 161.016C247.336 161.016 247.783 161.016 248.23 161.077Z" fill="#C5CBFF"/>
<path id="Vector_10" d="M260.878 136.942C263.386 136.949 265.083 139.48 264.144 141.799L260.681 150.203L260.635 150.263C259.551 149.377 258.256 148.846 256.93 149.18C256.71 149.233 256.49 149.316 256.346 149.49C256.195 149.672 256.157 149.922 256.134 150.165C255.914 153.37 258.46 155.984 260.249 158.652C260.499 159.031 260.734 159.561 260.423 159.895C257.505 158.288 254.346 157.106 251.087 156.394C250.148 156.189 249.117 156.037 248.276 156.507C247.048 157.182 247.132 160.182 248.238 161.039V161.077C247.783 161.024 247.336 161.016 246.882 161.016C246.639 161.016 246.389 161.031 246.162 161.13C245.555 161.418 245.472 162.236 245.518 162.91C245.571 163.668 246.033 165.078 246.98 165.82C246.745 165.76 246.51 165.722 246.268 165.714C245.646 165.699 244.987 165.934 244.639 166.449C244.245 167.04 244.351 167.866 244.714 168.472C245.086 169.086 245.662 169.533 246.23 169.973C247.617 171.034 249.011 172.102 250.481 173.049L250.451 173.095L249.951 174.557C249.026 176.709 247.238 178.316 245.101 179.036C244.123 179.377 243.078 179.521 242.002 179.46C239.865 179.331 235.31 179.074 233.568 179.013L233.431 179.028C233.386 178.483 233.295 177.952 233.143 177.452L233.12 177.407C235.091 176.406 236.932 175.156 238.622 173.716C238.622 173.716 239.433 172.799 239.433 171.466C239.433 170.981 239.327 170.443 239.031 169.874C239.357 169.677 239.668 169.465 239.963 169.245C239.963 169.245 243.532 166.813 240.6 163.911H240.592C241.244 163.335 242.486 162.009 242.115 160.402C241.805 159.091 240.782 158.864 240.039 158.894V158.796C240.842 157.727 240.031 155.34 238.766 154.908C237.493 154.469 236.114 154.848 234.818 155.204C231.938 156 229.013 156.651 226.073 157.151C226.763 155.734 227.414 154.393 228.036 153.105C230.158 148.755 231.999 144.959 234.037 140.791C235.204 138.404 237.629 136.889 240.289 136.896H243.441L260.878 136.942Z" fill="white"/>
<path id="Vector_11" d="M247.351 370.63C251.951 379.034 256.558 387.445 261.158 395.856L261.12 395.879C260.499 395.924 259.87 395.947 259.226 395.947C254.974 396 250.299 395.295 246.457 393.81C244.926 393.219 243.328 392.401 242.638 390.931C242.615 390.893 242.593 390.847 242.577 390.802C242.032 389.491 242.327 388.006 242.623 386.626C243.858 380.981 245.176 374.684 246.404 369.046L246.472 369.008C246.76 369.554 247.056 370.092 247.351 370.63Z" fill="white"/>
<path id="Vector_12" d="M259.226 395.947V396.007C257.748 399.872 249.095 402.403 246.397 399.266C244.737 397.334 244.116 394.227 242.093 392.992L242.176 392.848C242.35 392.143 242.502 391.681 242.585 390.953L242.638 390.93C243.328 392.4 244.927 393.219 246.458 393.81C250.299 395.295 254.975 396 259.226 395.947Z" fill="#F6F6FF"/>
<path id="Vector_13" d="M254.497 48.5177C257.877 51.4578 257.483 57.6412 253.747 60.1343C256.429 62.4227 256.535 67.0906 253.966 69.5079C253.209 70.2277 252.254 70.7658 251.686 71.6372C250.269 73.7968 251.777 76.7521 251.049 79.23C250.488 81.1093 248.518 82.4581 246.571 82.2914C248.192 85.0648 246.927 88.9295 244.267 90.7329C241.607 92.5364 237.993 92.4834 235.045 91.2104C234.977 95.2189 229.672 98.0151 226.331 95.8176C226.232 97.5529 224.853 99.1366 223.148 99.4624C221.436 99.7959 218.154 98.3637 217.419 96.7799H217.412C218.821 94.9765 220.072 93.0896 221.011 91.0133C222.224 88.3384 222.868 85.4513 223.504 82.5869C224.717 77.1386 225.929 71.6902 227.141 66.2343C227.323 65.4083 227.422 64.5596 227.422 63.7185C227.422 62.3621 227.179 61.0057 226.702 59.7175C223.845 59.4523 221.284 57.1714 220.685 54.3601C220.602 53.9509 220.534 53.5038 220.215 53.2386C219.882 52.9734 219.412 53.0037 218.988 52.9809C217.404 52.89 215.942 51.723 215.502 50.1999C213.252 52.7763 209.705 54.1479 206.318 53.7539C205.659 53.6781 205.613 53.8145 204.348 53.178L203.476 55.1178C202.469 57.376 200.976 58.7476 199.347 58.7779C198.217 58.8006 197.573 58.9446 196.232 59.2628C195.664 59.3992 195.179 59.7781 194.898 60.2934L192.83 64.1959C192.208 65.3629 191.542 66.5905 190.42 67.3028C189.299 68.0151 187.594 67.9923 186.851 66.8936C184.04 75.0471 178.455 70.9325 178.455 70.9325L176.06 69.2654C175.613 68.9547 175.136 68.6743 174.621 68.4925C172.09 67.5983 170.9 69.2123 169.953 71.031C168.952 72.9633 170.756 77.6008 173.901 77.2598C174.749 77.1765 175.318 78.2449 175.659 79.0785C175.871 79.5786 175.947 80.1242 175.886 80.6698C175.303 86.1409 173.635 91.5059 171.014 96.348C170.703 96.9239 170.377 97.4998 170.066 98.0833H170.059C167.998 98.4243 164.876 97.7423 163.383 96.2722C162.769 98.197 160.306 99.1593 158.419 98.4319C156.54 97.712 155.366 95.6357 155.381 93.62C153.577 94.7112 151.183 94.9461 149.364 93.8853C147.538 92.8244 146.568 90.3389 147.492 88.4445C147.652 88.1187 147.864 87.7701 147.758 87.4215C147.614 86.929 146.97 86.8305 146.462 86.7244C144.014 86.2242 142.567 83.0492 143.795 80.8744L144.53 77.0098L142.112 76.3202C138.096 75.5397 136.058 69.8943 138.642 66.7269C135.747 66.8481 132.905 64.7339 132.193 61.9226C131.481 59.1113 132.974 55.9059 135.573 54.6329C132.883 52.1625 134.815 46.7218 138.467 46.502C136.725 45.4336 135.808 43.183 136.3 41.2052C136.8 39.235 138.672 37.6816 140.71 37.5679C139.218 35.863 138.846 33.2638 139.801 31.2103C140.756 29.1567 142.984 27.7624 145.249 27.8079C144.295 25.6103 144.855 22.8369 146.598 21.185C148.334 19.533 151.13 19.1163 153.282 20.1847C152.547 18.6237 153.161 16.555 154.638 15.6609C156.108 14.7591 158.23 15.1531 159.276 16.5247C158.874 13.9256 160.594 11.1597 163.095 10.3565C165.603 9.56082 168.604 10.8263 169.778 13.1754L171.468 10.6596C173.029 8.03012 177.985 7.50726 179.948 8.36354C180.243 5.17334 182.691 2.29382 185.798 1.48301C188.897 0.679772 192.436 2.00587 194.247 4.65048C196.073 2.76363 198.566 1.36934 201.188 1.40723C203.817 1.44512 206.485 3.19556 207.053 5.7644C209.122 3.77147 212.562 3.40016 215.002 4.90812C217.442 6.4085 218.662 9.64417 217.813 12.3873C221.526 10.1291 227.157 13.3875 227.058 17.722C229.46 16.9339 232.188 16.6914 234.454 17.8129C236.72 18.942 238.25 21.7533 237.311 24.1024C240.16 22.5565 243.994 23.1021 246.29 25.3906C248.586 27.6791 249.155 31.5134 247.616 34.3626C250.352 34.3626 253.012 36.1433 254.057 38.6743C255.103 41.2052 254.474 44.3424 252.527 46.2671L254.497 48.5177Z" fill="#1E222D"/>
<path id="Vector_14" d="M184.866 177.785C176.318 182.438 167.377 186.583 158.943 191.455L158.882 191.349C159.45 184.757 159.519 178.119 159.117 171.519C149.796 171.594 138.589 171.072 128.753 169.457C126.571 169.101 124.464 168.692 122.456 168.222C121.138 167.912 119.69 167.495 118.963 166.335C118.25 165.191 118.501 163.706 118.788 162.38C120.615 154.052 122.88 145.815 125.593 137.722C128.435 129.22 132.034 120.498 138.968 114.822C141.734 112.572 144.916 110.89 148.114 109.321C154.699 106.085 161.989 103.122 168.892 100.637L168.93 100.652C168.756 101.198 168.634 101.758 168.581 102.334C168.309 105.388 170.12 108.237 172.166 110.518C178.872 118.02 189.079 122.249 199.127 121.695C201.711 121.559 204.613 120.9 205.939 118.679C207.182 116.611 206.53 113.117 206.333 110.086H206.432C211.509 112.784 219.89 114.254 225.3 116.217C230.711 118.179 236.114 121.218 238.827 126.295C240.335 129.106 242.047 132.872 243.441 136.79V136.904H240.289C237.629 136.889 235.204 138.404 234.037 140.791C231.999 144.959 230.158 148.755 228.036 153.105L227.998 153.082C224.452 152.173 218.632 152.771 215.593 154.81C212.555 156.841 210.084 159.606 207.44 162.13C200.771 168.51 192.989 173.375 184.866 177.785Z" fill="#C161EA"/>
<path id="Vector_15" d="M242.562 233.959C242.517 233.966 242.472 233.966 242.426 233.974C228.907 235.505 215.275 236.005 201.681 235.444C196.505 235.239 191.33 234.876 186.162 235.126C173.212 235.747 160.481 240.286 150.062 248C147.516 249.879 145.303 251.789 142.613 253.054C142.401 253.153 142.181 253.191 141.976 253.168C141.87 253.168 141.764 253.145 141.666 253.1C141.067 252.903 140.658 252.266 140.878 251.562C143.333 243.666 144.068 235.292 143.666 226.965V226.949C144.462 227.495 145.318 227.904 146.265 228.124C149.827 228.965 153.373 226.919 156.427 224.903C167.089 217.841 177.258 210.044 186.844 201.572C191.231 197.692 195.588 193.57 198.332 188.387C199.309 186.538 200.218 184.423 202.105 183.522C203.28 182.961 204.636 182.984 205.932 182.984C214.131 182.969 222.322 181.521 230.044 178.755C231.097 178.376 232.128 177.922 233.121 177.406L233.143 177.452C233.295 177.952 233.386 178.483 233.431 179.028C233.681 182.158 232.333 185.984 231.166 188.947C231.037 189.273 230.916 189.584 230.794 189.879C229.499 193.092 229.135 196.593 228.786 200.049C228.43 203.55 228.097 207.21 229.377 210.483C230.355 212.969 232.211 215.075 232.924 217.644C233.325 219.076 233.348 220.592 233.757 222.024C234.75 225.472 242.562 233.959 242.562 233.959Z" fill="#C161EA"/>
<path id="Vector_16" d="M240.039 158.894C240.782 158.864 241.805 159.091 242.115 160.402C242.487 162.009 241.244 163.335 240.592 163.903H240.6C243.532 166.813 239.963 169.245 239.963 169.245C239.668 169.465 239.357 169.677 239.031 169.874C239.327 170.443 239.433 170.981 239.433 171.466C239.433 172.799 238.622 173.716 238.622 173.716C236.932 175.156 235.091 176.406 233.121 177.406C232.128 177.922 231.097 178.376 230.044 178.755C222.323 181.521 214.131 182.968 205.932 182.984C204.636 182.984 203.28 182.961 202.105 183.522C200.218 184.423 199.309 186.538 198.332 188.387C195.588 193.57 191.231 197.692 186.844 201.572C177.258 210.044 167.089 217.841 156.427 224.903C153.373 226.919 149.827 228.965 146.265 228.124C145.318 227.904 144.462 227.495 143.674 226.949C142.037 225.843 140.703 224.191 139.582 222.532C129.397 207.49 128.859 188.144 128.67 169.973L128.753 169.457C138.589 171.072 149.797 171.594 159.117 171.519C159.519 178.119 159.45 184.757 158.882 191.349L158.943 191.455C167.377 186.583 176.318 182.438 184.866 177.785C192.989 173.375 200.772 168.51 207.44 162.13C210.085 159.606 212.555 156.841 215.594 154.81C218.632 152.771 224.452 152.173 227.998 153.082L228.036 153.105C227.415 154.393 226.763 155.734 226.073 157.151C229.014 156.651 231.939 155.999 234.818 155.204C236.114 154.848 237.493 154.469 238.766 154.908C240.032 155.34 240.842 157.727 240.032 158.796V158.894H240.039Z" fill="#C5CBFF"/>
<path id="Vector_17" d="M206.462 106.745V106.76C206.242 107.715 206.25 108.859 206.333 110.086C206.53 113.117 207.182 116.611 205.939 118.679C204.613 120.9 201.711 121.559 199.127 121.695C189.079 122.249 178.872 118.02 172.165 110.518C170.119 108.237 168.308 105.388 168.581 102.334C168.634 101.759 168.755 101.198 168.93 100.652C169.21 99.7656 169.619 98.9169 170.066 98.0833C170.377 97.4998 170.703 96.9239 171.013 96.348C173.635 91.5059 175.302 86.1409 175.886 80.6698C175.947 80.1242 175.871 79.5786 175.659 79.0785C175.318 78.245 174.749 77.1765 173.901 77.2599C170.756 77.6009 168.952 72.9633 169.953 71.031C170.9 69.2124 172.09 67.5983 174.62 68.4925C175.136 68.6743 175.613 68.9547 176.06 69.2654L178.455 70.9325C178.455 70.9325 184.04 75.0472 186.851 66.8936C187.593 67.9924 189.298 68.0151 190.42 67.3028C191.541 66.5905 192.208 65.3629 192.83 64.1959L194.898 60.2934C195.179 59.7781 195.664 59.3993 196.232 59.2629C197.573 58.9446 198.217 58.8006 199.346 58.7779C200.976 58.7476 202.468 57.376 203.476 55.1179L204.348 53.178C205.613 53.8145 205.659 53.6781 206.318 53.7539C209.705 54.1479 213.251 52.7764 215.502 50.2C215.942 51.7231 217.404 52.89 218.988 52.981C219.412 53.0037 219.882 52.9734 220.215 53.2386C220.534 53.5038 220.602 53.9509 220.685 54.3601C221.284 57.1714 223.845 59.4523 226.702 59.7175C227.179 61.0057 227.422 62.3621 227.422 63.7185C227.422 64.5597 227.323 65.4084 227.141 66.2343C225.929 71.6903 224.717 77.1386 223.504 82.587C222.868 85.4513 222.223 88.3384 221.011 91.0134C220.071 93.0896 218.821 94.9765 217.412 96.7724C216.093 98.4774 214.623 100.091 213.176 101.683C211.266 103.782 209.114 106.01 206.462 106.745Z" fill="#C5CBFF"/>
</g>
<g id="Group_3">
<path id="Vector_18" d="M206.462 106.76C206.242 107.715 206.25 108.859 206.333 110.086C206.53 113.117 207.182 116.611 205.939 118.679C204.613 120.9 201.711 121.559 199.127 121.695C189.079 122.249 178.872 118.02 172.165 110.518C170.119 108.237 168.308 105.388 168.581 102.334C168.634 101.759 168.755 101.198 168.93 100.652C169.21 99.7656 169.619 98.9169 170.066 98.0833C170.377 97.4998 170.703 96.9239 171.013 96.348C173.635 91.5059 175.302 86.1409 175.886 80.6698C175.947 80.1242 175.871 79.5786 175.659 79.0785C175.318 78.245 174.749 77.1765 173.901 77.2599C170.756 77.6009 168.952 72.9633 169.953 71.031C170.9 69.2124 172.09 67.5983 174.62 68.4925C175.136 68.6743 175.613 68.9547 176.06 69.2654L178.455 70.9325C178.455 70.9325 184.04 75.0472 186.851 66.8936C187.593 67.9924 189.298 68.0151 190.42 67.3028C191.541 66.5905 192.208 65.3629 192.83 64.1959L194.898 60.2934C195.179 59.7781 195.664 59.3993 196.232 59.2629C197.573 58.9446 198.217 58.8006 199.346 58.7779C200.976 58.7476 202.468 57.376 203.476 55.1179L204.348 53.178C205.613 53.8145 205.659 53.6781 206.318 53.7539C209.705 54.1479 213.251 52.7764 215.502 50.2C215.942 51.7231 217.404 52.89 218.988 52.981C219.412 53.0037 219.882 52.9734 220.215 53.2386C220.534 53.5038 220.602 53.9509 220.685 54.3601C221.284 57.1714 223.845 59.4523 226.702 59.7175C227.179 61.0057 227.422 62.3621 227.422 63.7185C227.422 64.5597 227.323 65.4084 227.141 66.2343C225.929 71.6903 224.717 77.1386 223.504 82.587C222.868 85.4513 222.223 88.3384 221.011 91.0134C220.071 93.0896 218.821 94.9765 217.412 96.7724C216.093 98.4774 214.623 100.091 213.176 101.683C211.266 103.782 209.114 106.01 206.462 106.745C206.022 106.873 205.568 106.957 205.105 106.995C203.257 107.139 201.438 106.495 199.718 105.79C191.534 102.441 183.501 97.0149 180.395 88.7325" stroke="#1E222D" stroke-width="2.5" stroke-miterlimit="10" stroke-linecap="round"/>
<path id="Vector_19" d="M170.059 98.0757C167.998 98.4243 164.876 97.7423 163.383 96.2722C162.769 98.197 160.306 99.1593 158.419 98.4319C156.54 97.712 155.366 95.6357 155.381 93.6201C153.577 94.7112 151.183 94.9461 149.364 93.8853C147.538 92.8244 146.568 90.3389 147.492 88.4445C147.652 88.1187 147.864 87.7701 147.758 87.4215C147.614 86.929 146.97 86.8304 146.462 86.7244C144.014 86.2242 142.567 83.0492 143.795 80.8744L144.53 77.0098L142.112 76.3202C138.096 75.5397 136.058 69.8943 138.642 66.7269C135.747 66.8481 132.905 64.7339 132.193 61.9226C131.481 59.1113 132.974 55.9059 135.573 54.6329C132.883 52.1625 134.815 46.7218 138.467 46.502C136.725 45.4336 135.808 43.183 136.3 41.2052C136.8 39.235 138.672 37.6816 140.71 37.5679C139.218 35.863 138.846 33.2638 139.801 31.2103C140.756 29.1567 142.984 27.7624 145.249 27.8079C144.295 25.6103 144.855 22.8369 146.598 21.185C148.334 19.533 151.13 19.1163 153.282 20.1847C152.547 18.6237 153.161 16.555 154.638 15.6609C156.108 14.7591 158.23 15.1531 159.276 16.5247C158.874 13.9256 160.594 11.1597 163.095 10.3565C165.603 9.56082 168.604 10.8263 169.778 13.1754L171.468 10.6596C173.029 8.03012 177.985 7.50726 179.948 8.36354C180.243 5.17334 182.691 2.29382 185.798 1.48301C188.897 0.679772 192.436 2.00587 194.247 4.65048C196.073 2.76363 198.566 1.36934 201.188 1.40723C203.817 1.44512 206.485 3.19556 207.053 5.7644C209.122 3.77147 212.562 3.40016 215.002 4.90812C217.442 6.4085 218.662 9.64417 217.813 12.3873C221.526 10.1291 227.157 13.3875 227.058 17.722C229.46 16.9339 232.188 16.6914 234.454 17.8129C236.72 18.942 238.25 21.7533 237.311 24.1024C240.16 22.5565 243.994 23.1021 246.29 25.3906C248.586 27.6791 249.155 31.5134 247.616 34.3626C250.352 34.3626 253.012 36.1433 254.057 38.6743C255.103 41.2052 254.474 44.3424 252.527 46.2671L254.497 48.5177C257.877 51.4578 257.483 57.6412 253.747 60.1343C256.429 62.4227 256.535 67.0906 253.966 69.5079C253.209 70.2277 252.254 70.7658 251.686 71.6372C250.269 73.7968 251.777 76.7521 251.049 79.23C250.488 81.1093 248.518 82.4581 246.571 82.2914C248.192 85.0648 246.927 88.9295 244.267 90.733C241.607 92.5364 237.993 92.4834 235.045 91.2103C234.977 95.2189 229.672 98.0151 226.331 95.8176C226.232 97.5529 224.853 99.1366 223.148 99.4624C221.436 99.7959 218.154 98.3637 217.419 96.7799" stroke="#1E222D" stroke-width="2.5" stroke-miterlimit="10" stroke-linecap="round"/>
<path id="Vector_20" d="M168.892 100.637C161.989 103.122 154.699 106.085 148.114 109.321C144.916 110.89 141.734 112.572 138.968 114.822C132.034 120.498 128.435 129.22 125.593 137.722C122.88 145.815 120.615 154.052 118.788 162.38C118.501 163.706 118.25 165.191 118.963 166.335C119.69 167.495 121.138 167.912 122.456 168.222C124.464 168.692 126.571 169.101 128.753 169.457C138.589 171.072 149.796 171.594 159.117 171.519H159.14" stroke="#1E222D" stroke-width="2.5" stroke-miterlimit="10" stroke-linecap="round"/>
<path id="Vector_21" d="M150.176 130.796C155.238 143.8 158.254 157.591 159.117 171.519C159.519 178.119 159.451 184.757 158.883 191.35" stroke="#1E222D" stroke-width="2.5" stroke-miterlimit="10" stroke-linecap="round"/>
<path id="Vector_22" d="M158.503 164.449C160.018 160.175 162.58 154.416 164.755 150.438" stroke="#1E222D" stroke-width="2.5" stroke-miterlimit="10" stroke-linecap="round"/>
<path id="Vector_23" d="M144.341 201.359C148.895 197.609 153.828 194.396 158.943 191.455C167.377 186.583 176.319 182.438 184.866 177.785C192.99 173.375 200.772 168.51 207.44 162.13C210.085 159.606 212.555 156.841 215.594 154.81C218.632 152.771 224.452 152.173 227.998 153.082" stroke="#1E222D" stroke-width="2.5" stroke-miterlimit="10" stroke-linecap="round"/>
<path id="Vector_24" d="M170.461 177.384C175.053 178.429 180.221 178.641 184.866 177.785C184.896 177.785 184.934 177.785 184.965 177.77" stroke="#1E222D" stroke-width="2.5" stroke-miterlimit="10" stroke-linecap="round"/>
<path id="Vector_25" d="M206.432 110.079C211.509 112.784 219.89 114.254 225.3 116.217C230.711 118.179 236.113 121.218 238.826 126.295C240.334 129.106 242.047 132.873 243.441 136.79" stroke="#1E222D" stroke-width="2.5" stroke-miterlimit="10" stroke-linecap="round"/>
<path id="Vector_26" d="M230.37 136.631C230.711 137.752 232.234 142.648 232.575 143.761" stroke="#1E222D" stroke-width="2.5" stroke-miterlimit="10" stroke-linecap="round"/>
<path id="Vector_27" d="M231.165 188.947C234.022 194.593 236.106 202.701 238.485 208.558C239.167 210.241 239.97 211.915 240.902 213.507C243.206 217.455 246.328 220.872 250.481 222.623C252.564 223.502 254.997 223.896 257.073 222.986C259.437 221.941 260.794 219.485 261.976 217.189C263.431 214.378 264.908 211.498 265.348 208.369C265.825 204.944 265.037 201.488 264.189 198.139C262.658 192.062 260.695 184.749 258.786 178.778" stroke="#1E222D" stroke-width="2.5" stroke-miterlimit="10" stroke-linecap="round"/>
<path id="Vector_28" d="M245.146 179.157C245.578 188.334 239.857 198.222 239.781 207.407C239.758 209.612 239.925 211.567 240.903 213.507C240.948 213.598 240.994 213.681 241.039 213.764" stroke="#1E222D" stroke-width="2.5" stroke-miterlimit="10" stroke-linecap="round"/>
<path id="Vector_29" d="M233.567 179.013C235.31 179.074 239.864 179.331 242.001 179.46C243.077 179.521 244.123 179.377 245.101 179.036C247.238 178.316 249.026 176.709 249.95 174.557L250.45 173.095" stroke="#1E222D" stroke-width="2.5" stroke-miterlimit="10" stroke-linecap="round"/>
<path id="Vector_30" d="M143.666 226.965C144.068 235.293 143.333 243.666 140.878 251.562C140.658 252.267 141.067 252.903 141.666 253.1C141.764 253.146 141.87 253.168 141.976 253.168C142.181 253.191 142.401 253.153 142.613 253.055C145.303 251.789 147.516 249.88 150.062 248C160.481 240.286 173.212 235.747 186.162 235.126C191.33 234.876 196.505 235.24 201.681 235.444C215.275 236.005 228.907 235.505 242.426 233.974C242.472 233.967 242.517 233.967 242.562 233.959C242.562 233.959 234.75 225.472 233.757 222.024C233.348 220.592 233.325 219.076 232.924 217.644C232.211 215.075 230.355 212.969 229.377 210.483C228.097 207.21 228.43 203.55 228.786 200.049C229.135 196.593 229.499 193.092 230.794 189.88C230.916 189.584 231.037 189.273 231.166 188.947C232.333 185.985 233.681 182.158 233.431 179.028C233.386 178.483 233.295 177.952 233.143 177.452" stroke="#1E222D" stroke-width="2.5" stroke-miterlimit="10" stroke-linecap="round"/>
<path id="Vector_31" d="M179.213 220.637C192.921 218.811 206.727 226.874 220.284 224.146" stroke="#1E222D" stroke-width="2.5" stroke-miterlimit="10" stroke-linecap="round"/>
<path id="Vector_32" d="M141.643 253.168C140.302 262.504 141.544 273.954 148.144 280.69C153.82 286.487 162.246 288.42 170.188 290.094C186.245 293.474 203.007 297.081 219.064 300.468" stroke="#1E222D" stroke-width="2.5" stroke-miterlimit="10" stroke-linecap="round"/>
<path id="Vector_33" d="M219.367 296.959C219.116 298.104 219.056 299.286 219.192 300.453C219.306 301.552 219.586 302.628 220.041 303.643C220.852 305.492 222.178 307.091 222.966 308.947C223.678 310.63 223.936 312.471 224.239 314.274C227.513 333.795 236.969 351.625 246.472 369.008C246.76 369.554 247.055 370.092 247.351 370.63C251.951 379.033 256.558 387.445 261.157 395.856C262.408 398.137 263.658 400.425 264.908 402.706C266.075 404.843 267.25 406.987 268.417 409.124C268.735 409.7 269.084 410.306 269.667 410.594C270.258 410.875 270.948 410.776 271.584 410.64C272.107 410.526 272.729 410.352 273.403 410.125C276.904 408.935 281.996 406.404 284.042 404.532" stroke="#1E222D" stroke-width="2.5" stroke-miterlimit="10" stroke-linecap="round"/>
<path id="Vector_34" d="M205.992 239.847C223.231 248.97 236.212 257.601 251.299 269.968C253.504 271.771 255.694 273.636 257.422 275.901C261.044 280.668 262.264 286.783 263.454 292.656C268.114 315.593 274.919 339.721 283.451 362.613C287.611 373.797 292.188 384.686 297.114 395" stroke="#1E222D" stroke-width="2.5" stroke-miterlimit="10" stroke-linecap="round"/>
<path id="Vector_35" d="M227.059 300.309C227.059 300.309 227.119 300.241 227.15 300.21C227.839 299.513 228.529 298.808 229.211 298.111C231.211 296.065 233.219 294.019 235.22 291.973" stroke="#1E222D" stroke-width="2.5" stroke-miterlimit="10" stroke-linecap="round"/>
<path id="Vector_36" d="M264.022 294.846C267.281 293.262 272.206 290.89 275.275 288.965" stroke="#1E222D" stroke-width="2.5" stroke-miterlimit="10" stroke-linecap="round"/>
<path id="Vector_37" d="M246.404 369.046C245.176 374.684 243.858 380.981 242.623 386.626C242.327 388.006 242.032 389.491 242.577 390.802C242.593 390.847 242.615 390.893 242.638 390.93C243.328 392.401 244.926 393.219 246.457 393.81C250.299 395.295 254.974 396 259.226 395.947C259.87 395.947 260.499 395.924 261.12 395.879" stroke="#1E222D" stroke-width="2.5" stroke-miterlimit="10" stroke-linecap="round"/>
<path id="Vector_38" d="M248.269 385.126C250.216 385.763 253.527 386.005 255.566 385.838" stroke="#1E222D" stroke-width="2.5" stroke-miterlimit="10" stroke-linecap="round"/>
<path id="Vector_39" d="M265.038 402.638C266.94 402.365 270.153 399.228 271.57 397.932C271.987 397.553 272.404 397.144 272.813 396.712C276.026 393.386 279.11 388.96 283.285 387.521" stroke="#1E222D" stroke-width="2.5" stroke-miterlimit="10" stroke-linecap="round"/>
<path id="Vector_40" d="M242.426 233.974C259.703 242.332 279.503 255.009 293.712 267.914C295.333 269.384 296.947 270.9 298.16 272.726C300.418 276.121 301.123 280.334 301.244 284.411C301.471 292.034 299.88 299.589 298.182 307.022C293.946 325.626 289.013 344.343 283.474 362.605" stroke="#1E222D" stroke-width="2.5" stroke-miterlimit="10" stroke-linecap="round"/>
<path id="Vector_41" d="M273.434 410.216C273.691 411.693 274.146 413.11 274.76 414.474C277.041 419.619 281.489 424.06 285.353 428.152C287.611 430.546 289.817 433.274 291.378 436.199C292.484 438.268 293.272 440.443 293.522 442.663C293.598 443.3 293.621 443.929 293.598 444.565C293.583 445.391 293.477 446.217 293.287 447.051C293.014 448.202 292.507 449.4 291.476 449.976C290.726 450.392 289.832 450.415 288.975 450.415C280.701 450.476 272.236 450.127 264.507 447.149C260.597 445.641 256.967 443.489 253.36 441.345C246.836 437.465 240.304 433.593 233.78 429.713C232.113 428.728 230.294 427.531 229.885 425.644C229.635 424.469 229.983 423.264 230.332 422.113C230.794 420.589 231.256 419.074 231.718 417.551C234.28 409.23 237.023 400.94 240.865 393.135C241.031 392.802 241.448 392.65 241.782 392.81C241.888 392.863 241.994 392.923 242.092 392.991C244.116 394.227 244.737 397.333 246.396 399.266C249.094 402.403 257.748 399.872 259.225 396.007" stroke="#1E222D" stroke-width="2.5" stroke-miterlimit="10" stroke-linecap="round"/>
<path id="Vector_42" d="M274.82 414.444C277.321 414.474 281.087 411.928 282.209 409.7C283.035 408.064 283.504 406.283 284.095 404.548C284.3 403.911 284.535 403.29 284.8 402.676C286.308 399.236 289.21 396.303 292.825 395.31C294.204 394.931 295.674 394.871 297.091 395.121C299.395 395.515 301.539 396.712 302.858 398.622C304.752 401.357 304.813 405.07 306.775 407.76C308.352 409.913 310.898 411.087 313.368 412.08C318.68 414.201 324.166 415.891 329.751 417.111C332.797 417.778 336.177 418.513 338.685 420.203C339.882 421.006 340.883 422.022 341.549 423.348C343.088 426.364 342.292 430.168 340.314 432.918C338.344 435.669 335.374 437.533 332.358 439.064C320.749 444.937 306.397 447.127 293.643 444.565" stroke="#1E222D" stroke-width="2.5" stroke-miterlimit="10" stroke-linecap="round"/>
<path id="Vector_43" d="M297.44 412.466C300.335 410.913 304.109 409.435 307.216 408.382" stroke="#1E222D" stroke-width="2.5" stroke-miterlimit="10" stroke-linecap="round"/>
<path id="Vector_44" d="M231.886 417.604C235.409 421.84 242.275 423.484 246.215 427.341C247.928 429.008 249.208 431.092 250.944 432.737C254.02 435.646 258.241 436.942 262.303 438.132C271.593 440.86 284.323 445.907 293.454 442.671" stroke="#1E222D" stroke-width="2.5" stroke-miterlimit="10" stroke-linecap="round"/>
<path id="Vector_45" d="M291.431 436.169C301.698 437.866 312.618 437.048 322.507 433.82C329.486 431.554 336.738 427.318 338.662 420.233" stroke="#1E222D" stroke-width="2.5" stroke-miterlimit="10" stroke-linecap="round"/>
<path id="Vector_46" d="M141.961 253.297C141.817 256.495 149.645 264.732 152.198 266.664C154.752 268.604 157.851 269.65 160.905 270.627C173.78 274.757 186.859 278.258 200.074 281.115C208.607 282.956 217.556 284.699 224.383 290.132C226.914 292.14 228.445 297.248 227.149 300.211" stroke="#1E222D" stroke-width="2.5" stroke-miterlimit="10" stroke-linecap="round"/>
<path id="Vector_47" d="M229.294 298.195C231.62 302.953 232.287 309.402 232.984 314.661C234.5 326.02 248.223 355.201 250.951 359.574C254.679 365.537 267.69 391.741 272.737 396.636" stroke="#1E222D" stroke-width="2.5" stroke-miterlimit="10" stroke-linecap="round"/>
<path id="Vector_48" d="M226.073 157.151C226.763 155.734 227.414 154.393 228.036 153.105C230.158 148.755 231.999 144.959 234.037 140.791C235.204 138.404 237.629 136.889 240.289 136.896H243.441L260.878 136.942C263.386 136.949 265.083 139.48 264.144 141.799L260.681 150.203" stroke="#1E222D" stroke-width="2.5" stroke-miterlimit="10" stroke-linecap="round"/>
<path id="Vector_49" d="M128.67 169.973C128.859 188.144 129.397 207.49 139.582 222.532C140.703 224.191 142.037 225.843 143.674 226.949C144.462 227.495 145.318 227.904 146.265 228.124C149.827 228.965 153.373 226.919 156.427 224.903C167.089 217.841 177.258 210.044 186.844 201.572C191.231 197.692 195.588 193.57 198.332 188.387C199.309 186.538 200.218 184.423 202.105 183.522C203.28 182.961 204.636 182.984 205.932 182.984C214.131 182.969 222.323 181.521 230.044 178.755C231.097 178.376 232.128 177.922 233.121 177.407C235.091 176.406 236.932 175.156 238.622 173.716C238.622 173.716 239.433 172.799 239.433 171.466C239.433 170.981 239.327 170.443 239.031 169.874C239.024 169.867 239.024 169.852 239.016 169.844" stroke="#1E222D" stroke-width="2.5" stroke-miterlimit="10" stroke-linecap="round"/>
<path id="Vector_50" d="M224.429 163.183C228.93 162.107 234.863 160.614 239.205 159.015C239.205 159.015 239.561 158.902 240.039 158.894C240.781 158.864 241.804 159.091 242.115 160.402C242.486 162.009 241.244 163.335 240.592 163.903C240.372 164.085 240.221 164.191 240.221 164.191C235.644 166.957 229.786 167.487 225.376 168.995" stroke="#1E222D" stroke-width="2.5" stroke-miterlimit="10" stroke-linecap="round"/>
<path id="Vector_51" d="M225.823 173.921C229.839 173.368 235.409 172.117 239.031 169.874C239.357 169.677 239.668 169.465 239.963 169.245C239.963 169.245 243.532 166.813 240.6 163.911" stroke="#1E222D" stroke-width="2.5" stroke-miterlimit="10" stroke-linecap="round"/>
<path id="Vector_52" d="M220.383 157.947C222.285 157.742 224.187 157.477 226.074 157.151C229.014 156.651 231.939 155.999 234.818 155.204C236.114 154.848 237.493 154.469 238.766 154.908C240.032 155.34 240.843 157.727 240.032 158.796" stroke="#1E222D" stroke-width="2.5" stroke-miterlimit="10" stroke-linecap="round"/>
<path id="Vector_53" d="M253.05 174.535C252.164 174.095 251.307 173.595 250.481 173.05C249.011 172.102 247.617 171.034 246.23 169.973C245.662 169.533 245.086 169.086 244.715 168.473C244.351 167.866 244.245 167.04 244.639 166.449C244.988 165.934 245.647 165.699 246.268 165.714C246.511 165.714 246.746 165.76 246.98 165.82C247.352 165.904 247.708 166.048 248.057 166.192C250.731 167.29 253.262 168.723 255.589 170.435" stroke="#1E222D" stroke-width="2.5" stroke-miterlimit="10" stroke-linecap="round"/>
<path id="Vector_54" d="M247.04 165.866C247.04 165.866 247.003 165.835 246.98 165.82C246.033 165.078 245.57 163.668 245.517 162.91C245.472 162.236 245.555 161.417 246.161 161.13C246.389 161.031 246.639 161.023 246.881 161.016C247.336 161.016 247.783 161.016 248.23 161.076C248.647 161.114 249.064 161.19 249.465 161.311C250.026 161.478 250.549 161.743 251.072 162.009C253.193 163.077 255.315 164.145 257.437 165.221" stroke="#1E222D" stroke-width="2.5" stroke-miterlimit="10" stroke-linecap="round"/>
<path id="Vector_55" d="M248.238 161.039C247.132 160.182 247.048 157.182 248.276 156.507C249.117 156.037 250.148 156.189 251.087 156.394C254.346 157.106 257.506 158.288 260.423 159.894C260.734 159.561 260.499 159.031 260.249 158.652C258.46 155.984 255.914 153.37 256.134 150.165C256.157 149.922 256.195 149.672 256.346 149.49C256.49 149.316 256.71 149.233 256.93 149.18C258.256 148.846 259.552 149.377 260.635 150.263C261.317 150.816 261.916 151.498 262.401 152.203C265.424 156.613 266.25 162.357 265.015 167.563C264.023 171.776 261.749 175.618 258.741 178.74C258.029 179.475 257.278 180.165 256.49 180.816" stroke="#1E222D" stroke-width="2.5" stroke-miterlimit="10" stroke-linecap="round"/>
<path id="Vector_56" d="M221.087 248.243C221.261 246.394 221.405 244.211 221.587 242.362" stroke="#1E222D" stroke-width="2.5" stroke-miterlimit="10" stroke-linecap="round"/>
<path id="Vector_57" d="M195.99 74.7214C197.998 76.6916 201.226 77.3054 203.818 76.1991" stroke="#1E222D" stroke-width="2.5" stroke-miterlimit="10" stroke-linecap="round"/>
<path id="Vector_58" d="M217.95 77.6765C219.617 78.9193 221.807 79.4345 223.846 79.0632" stroke="#1E222D" stroke-width="2.5" stroke-miterlimit="10" stroke-linecap="round"/>
<path id="Vector_59" d="M196.543 66.727C198.256 66.5376 199.983 66.3406 201.696 66.4997C203.408 66.6664 205.136 67.212 206.432 68.3487" stroke="#1E222D" stroke-width="2.5" stroke-miterlimit="10" stroke-linecap="round"/>
<path id="Vector_60" d="M219.48 70.1975C220.435 69.7958 221.413 69.3942 222.443 69.2881C223.474 69.182 224.595 69.4245 225.323 70.1596" stroke="#1E222D" stroke-width="2.5" stroke-miterlimit="10" stroke-linecap="round"/>
<path id="Vector_61" d="M206.174 88.2626C208.106 88.9143 210.198 89.0961 212.221 88.8082C212.486 88.7703 212.759 88.7248 212.979 88.5733C213.608 88.1565 213.532 87.2244 213.411 86.4818C212.842 82.9658 212.926 79.3436 213.661 75.8579" stroke="#1E222D" stroke-width="2.5" stroke-miterlimit="10" stroke-linecap="round"/>
<path id="Vector_62" d="M210.364 95.8178C207.159 96.1588 203.847 95.3252 201.188 93.5142C201.127 95.9466 203.385 98.182 205.818 98.0911" stroke="#1E222D" stroke-width="2.5" stroke-miterlimit="10" stroke-linecap="round"/>
<path id="Vector_63" d="M227.195 59.6797C229.067 59.2099 230.605 57.611 230.992 55.7241" stroke="#1E222D" stroke-width="2.5" stroke-miterlimit="10" stroke-linecap="round"/>
<path id="Vector_64" d="M138.635 66.8178C141.711 65.7873 142.59 65.4766 143.606 63.2866" stroke="#1E222D" stroke-width="2.5" stroke-miterlimit="10" stroke-linecap="round"/>
<path id="Vector_65" d="M242.176 392.848C242.35 392.143 242.502 391.681 242.585 390.953" stroke="#1E222D" stroke-width="2.5" stroke-miterlimit="10" stroke-linecap="round"/>
</g>
</g>
</g>
</g>
</svg>
