<svg width="578" height="307" viewBox="0 0 578 307" fill="none" xmlns="http://www.w3.org/2000/svg">
<g id="img-couple">
<g id="Group">
<g id="Group_2">
<path id="Vector" d="M561.278 149.313C566.266 149.445 571.253 149.57 576.249 149.695C571.004 172.674 564.704 195.951 557.711 218.454C557.539 218.298 557.367 218.142 557.188 217.993V217.985C555.213 214.621 551.349 210.562 548.274 208.158C546.767 206.98 545.128 205.762 543.317 205.317V205.294C547.665 188.317 552.606 169.786 556.954 152.809C557.25 151.662 557.617 150.398 558.632 149.765C559.405 149.281 560.372 149.289 561.286 149.313H561.278Z" fill="white"/>
<path id="Vector_2" d="M572.963 245.446C575.266 247.717 576.429 251.05 576.163 254.274C575.898 257.537 574.243 260.573 572.089 263.047C569.935 265.514 566.617 267.941 563.987 269.9L563.963 269.932C562.121 268.862 560.147 268.097 558.094 267.598V267.559C560.99 259.925 562.519 250.996 563.55 242.651H563.565C566.75 242.082 570.661 243.174 572.963 245.446Z" fill="#C5CBFF"/>
<path id="Vector_3" d="M567.522 272.546C570.723 275.497 572.775 279.579 572.76 283.934C572.729 292.872 564.697 298.094 556.985 300.935C545.238 305.275 532.39 306.399 519.987 304.713C516.794 304.276 513.625 303.659 510.425 303.308C507.115 302.941 503.775 302.863 500.442 302.91C497.031 302.964 493.628 303.159 490.232 303.487C485.322 303.971 480.186 304.705 475.589 302.91C470.773 301.028 467.206 296.291 466.73 291.139C466.542 289.141 466.831 287.111 467.518 285.222C468.58 282.248 470.609 279.618 473.286 277.955L476.143 275.887C477.166 275.145 478.383 274.74 479.648 274.677C484.323 274.459 488.968 273.904 493.573 273.085C496.586 274.302 500.918 275.824 504.134 276.246C510.94 277.144 517.825 275.52 524.358 273.413C530.891 271.297 537.299 268.667 544.051 267.434C548.68 266.591 553.566 266.466 558.093 267.597C560.146 268.097 562.121 268.862 563.963 269.931C565.22 270.657 566.414 271.524 567.522 272.546Z" fill="#C5CBFF"/>
<path id="Vector_4" d="M493.573 273.084C488.968 273.904 484.323 274.458 479.648 274.677C478.383 274.739 477.166 275.145 476.143 275.886L473.286 277.955C470.609 279.618 468.58 282.248 467.518 285.222H467.495C455.115 293.02 433.744 297.469 419.233 299.373H418.89C418.671 299.334 418.585 299.116 418.585 298.788C418.585 297.789 419.374 295.783 419.311 295.096C418.172 282.435 417.032 269.611 419.163 257.083C420.037 251.908 421.669 245.031 424.752 240.793C441.479 236.492 456.583 225.994 473.177 220.366C473.677 220.194 474.122 219.929 474.496 219.601L474.566 219.671C480.897 218.251 491.036 216.931 497.374 215.519C501.956 214.496 506.546 213.474 511.182 212.771C511.853 212.677 512.532 212.584 513.204 212.498C513.906 212.412 514.617 212.326 515.327 212.256C516.029 212.186 516.74 212.115 517.45 212.061C521.017 211.764 524.592 211.624 528.175 211.483C531.82 211.343 535.457 211.202 539.102 211.109C541.928 211.038 544.8 210.999 547.509 211.795C550.842 212.787 553.675 214.964 556.314 217.228C556.602 217.478 556.899 217.728 557.18 217.985V217.993C557.359 218.141 557.531 218.297 557.703 218.454C559.092 219.71 560.404 221.053 561.465 222.598C562.753 224.464 563.651 226.603 564.088 228.835C564.72 232.113 564.361 235.493 563.994 238.81C563.854 240.067 563.705 241.355 563.541 242.651C562.511 250.995 560.981 259.924 558.093 267.558V267.597C553.558 266.465 548.672 266.59 544.043 267.433C537.292 268.666 530.883 271.297 524.35 273.412C517.817 275.52 510.932 277.143 504.126 276.246C500.91 275.824 496.578 274.302 493.565 273.092L493.573 273.084Z" fill="white"/>
<path id="Vector_5" d="M557.18 217.986C556.899 217.728 556.603 217.479 556.314 217.229C553.676 214.965 550.842 212.787 547.509 211.796C544.801 211 541.928 211.039 539.103 211.109C535.457 211.203 531.82 211.343 528.175 211.484C524.592 211.624 521.017 211.765 517.45 212.062V212.03C524.21 209.954 532.351 208.518 537.924 206.246C538.845 205.872 539.774 205.466 540.734 205.271C541.062 205.201 541.397 205.162 541.733 205.146C542.272 205.13 542.802 205.193 543.31 205.318C545.121 205.763 546.76 206.98 548.266 208.159C551.342 210.563 555.205 214.622 557.18 217.986Z" fill="white"/>
<path id="Vector_6" d="M515.327 212.256C514.617 212.326 513.907 212.412 513.204 212.498C512.533 212.584 511.854 212.678 511.182 212.771C512.915 210.953 510.784 209.087 509.621 208.705C509.45 208.65 509.27 208.603 509.091 208.572V208.541C509.418 206.902 508.388 206.308 507.131 206.082L507.147 206.004C506.78 203.577 502.471 203.147 498.928 202.655C503.572 201.001 512.135 197.277 516.896 196.052C519.8 195.31 522.75 194.639 525.747 194.624C528.924 194.6 532.093 195.326 534.942 196.715C537.573 197.996 540.047 202.421 540.734 205.27C539.774 205.465 538.845 205.871 537.924 206.246C532.351 208.517 524.21 209.954 517.45 212.03V212.061C516.74 212.116 516.03 212.186 515.327 212.256Z" fill="white"/>
<path id="Vector_7" d="M507.131 206.082C508.388 206.309 509.418 206.902 509.098 208.541V208.572C509.27 208.603 509.45 208.65 509.621 208.705C510.784 209.087 512.915 210.953 511.182 212.772C506.546 213.474 501.956 214.497 497.375 215.519C491.036 216.932 480.897 218.251 474.567 219.672L474.497 219.601C475.082 219.071 475.503 218.368 475.691 217.572L476.112 215.753C476.315 214.871 476.222 213.935 475.808 213.139C474.614 210.82 472.178 209.197 469.579 208.447C475.824 206.59 483.879 201.758 490.474 201.516C490.685 201.501 490.896 201.5 491.099 201.5C492.996 201.516 494.861 201.906 496.719 202.297C497.382 202.437 498.139 202.546 498.928 202.656C502.471 203.147 506.78 203.577 507.147 206.004L507.131 206.082Z" fill="#C5CBFF"/>
<path id="Vector_8" d="M490.474 201.477V201.516C483.879 201.758 475.823 206.59 469.579 208.448C469.236 208.346 468.884 208.26 468.533 208.19C465.926 207.675 463.256 207.87 460.603 208.159V208.112C459.557 204.077 464.154 200.502 467.448 199.612C467.448 199.612 480.249 199.253 485.307 199.237C487.212 199.237 490.256 199.089 490.474 201.477Z" fill="#C5CBFF"/>
<path id="Vector_9" d="M469.579 208.447C472.179 209.197 474.614 210.82 475.808 213.138C476.222 213.935 476.315 214.871 476.113 215.753L475.691 217.572C475.504 218.368 475.082 219.071 474.497 219.601C474.122 219.929 473.677 220.195 473.178 220.366C456.583 225.994 441.48 236.492 424.752 240.793C421.669 245.032 420.038 251.908 419.164 257.083C417.033 269.611 418.172 282.436 419.312 295.096C419.374 295.783 418.586 297.789 418.586 298.788C418.586 299.116 418.672 299.335 418.89 299.374C412.63 299.85 386.974 302.839 371.542 294.113C364.751 290.265 360.287 283.177 357.859 275.754C356.556 271.766 355.791 267.636 355.275 263.46C354.948 260.838 354.721 258.192 354.526 255.553C354.448 254.593 354.386 253.633 354.315 252.673C354.315 252.673 352.06 232.137 350.998 225.674C350.233 221.053 348.992 216.534 347.93 211.968C346.486 205.793 345.37 199.541 344.59 193.25C344.028 188.746 343.63 184.219 343.411 179.684L343.263 173.791C343.653 162.075 343.38 150.944 341.179 139.493C343.458 134.115 343.559 128.371 342.334 123.242L342.412 123.227C345.401 112.947 353.137 109.442 356.501 104.899C361.153 98.6237 366.469 92.832 372.33 87.6648C372.463 87.5555 372.596 87.4462 372.744 87.3526L374.883 85.8929C375.905 85.1982 377.178 85.0343 378.302 85.4168C378.754 85.5573 379.176 85.7915 379.558 86.1115C384.46 90.2562 389.667 94.0419 395.115 97.4373C398.096 99.295 401.187 101.051 404.536 102.121C406.854 102.854 409.313 103.252 411.725 103.112C413.567 103.003 415.066 101.574 415.308 99.7399C415.565 98.3818 415.831 96.9846 416.127 95.5796H416.143C419.991 99.8726 424.69 104.97 427.914 109.754C430.013 112.853 432.004 116.116 432.909 119.745C433.573 122.384 433.643 125.131 433.705 127.855C433.908 136.816 433.877 146.19 433.994 155.151C434.681 157.743 435.415 160.311 436.226 162.871C437.265 166.165 438.42 169.443 439.146 172.823C439.661 175.211 439.957 177.639 440.379 180.035C441.081 183.993 442.135 187.872 443.181 191.751C443.649 193.468 444.118 195.193 444.586 196.918C445.64 200.821 446.701 204.724 447.755 208.627V208.884C451.392 208.908 454.835 208.791 457.887 208.463C458.792 208.369 459.698 208.26 460.603 208.158C463.257 207.87 465.926 207.674 468.533 208.19C468.885 208.26 469.236 208.346 469.579 208.447Z" fill="#5AECDE"/>
<path id="Vector_10" d="M460.595 208.112V208.159C459.697 208.26 458.792 208.37 457.887 208.463C454.835 208.791 451.392 208.908 447.755 208.885V208.627C446.701 204.724 445.64 200.822 444.586 196.919C446.451 197.965 449.441 198.41 451.564 198.652C455.74 199.136 463.233 199.573 467.44 199.612C464.147 200.502 459.549 204.077 460.587 208.112H460.595Z" fill="#5AECDE"/>
<path id="Vector_11" d="M434.985 42.2522C436.359 44.8904 436.281 55.0532 435.102 57.7851H435.078C434.954 57.1919 434.477 56.7314 433.861 56.5597C433.439 56.4348 433.041 56.224 432.745 55.904C432.097 55.2249 431.824 54.2961 431.488 53.4297C430.317 50.3465 427.944 47.4585 424.713 46.8496C423.448 46.6077 422.145 46.7325 420.865 46.8652C417.781 47.1696 414.566 47.5443 411.966 49.2303C409.398 50.8851 407.736 53.617 406.424 56.3723C405.472 58.3784 404.091 60.8215 401.874 60.6342C401.179 60.5795 400.539 60.2439 399.93 59.916C396.106 57.832 392.484 55.381 389.112 52.6179C388.011 51.7125 387.418 50.3309 387.543 48.9103L387.621 48.0829C387.691 47.2399 387.66 46.3891 387.535 45.5461C386.856 40.9174 386.466 35.4067 386.411 30.7312V30.7156C386.552 30.6922 386.692 30.661 386.833 30.6298C392.866 29.217 395.949 21.833 401.702 19.5303H401.71C401.827 19.5225 401.944 19.5147 402.069 19.5069C405.261 19.2259 407.962 17.1341 410.554 15.2451C412.482 13.8401 414.628 12.4586 416.915 11.9746V11.998C419.155 14.168 421.754 16.8062 424.159 19.6786C426.703 22.7072 429.021 26.0011 430.465 29.3028C431.098 30.7547 431.558 32.2143 431.792 33.6427C432.042 35.196 432.105 36.8039 432.682 38.2636C433.244 39.692 434.275 40.894 434.985 42.2522Z" fill="#C5CBFF"/>
<path id="Vector_12" d="M416.916 11.9751C414.629 12.4591 412.482 13.8406 410.554 15.2456C407.963 17.1346 405.262 19.2264 402.07 19.5074C401.945 19.5074 401.828 19.523 401.711 19.5309H401.703C395.95 21.8335 392.867 29.2175 386.833 30.6303C386.693 30.6615 386.552 30.6927 386.412 30.7161V30.7318C386.466 35.4073 386.857 40.9179 387.536 45.5466C387.661 46.3896 387.692 47.2404 387.622 48.0834L387.544 48.9108C387.419 50.3314 388.012 51.713 389.113 52.6184C392.484 55.3816 396.106 57.8325 399.931 59.9166C400.54 60.2444 401.18 60.58 401.875 60.6347C404.091 60.822 405.473 58.3789 406.425 56.3729C407.736 53.6175 409.399 50.8856 411.967 49.2308C414.566 47.5448 417.782 47.1702 420.865 46.8657C422.145 46.7331 423.449 46.6082 424.713 46.8501C427.945 47.459 430.318 50.347 431.489 53.4302C431.824 54.2966 432.097 55.2254 432.745 55.9045C433.042 56.2245 433.44 56.4353 433.861 56.5602C434.478 56.7319 434.954 57.1924 435.079 57.7935C435.103 57.8871 435.118 57.9886 435.118 58.0901L435.157 60.8688C435.118 62.3207 434.736 63.7334 434.353 65.1384C433.729 67.402 433.112 69.6734 432.488 71.937C432.129 73.264 431.707 74.669 430.653 75.551C429.74 76.3081 428.507 76.5345 427.336 76.7374C425.744 77.0028 424.144 77.237 422.543 77.4321C419.242 77.8458 415.924 78.1034 412.591 78.2049C410.898 78.2517 409.188 78.2595 407.526 77.9161C406.058 77.6116 404.653 77.034 403.287 76.4018C396.426 73.2015 390.385 68.2606 385.897 62.1645C385.28 61.3294 384.554 60.3927 383.516 60.3068H383.485V60.26C382.751 57.2705 382.431 54.1873 381.83 52.7589C380.987 50.7607 379.457 49.0825 377.443 48.2629C376.202 47.7634 374.906 47.6463 373.665 48.4034C372.612 49.0357 371.972 50.1441 371.706 51.3383C371.051 54.2966 372.096 57.6139 374.415 59.5575C376.358 61.181 379.168 61.7509 381.533 60.8532C381.877 60.7205 382.228 60.5644 382.579 60.4551C382.361 62.7812 381.479 67.7611 380.565 72.7488C377.365 67.9953 371.113 65.8019 367.46 61.384C364.962 58.3633 363.76 54.4449 363.401 50.5421C363.042 46.6472 363.464 42.721 363.885 38.8261C364.26 35.3604 364.634 31.8948 365.009 28.4213C365.181 26.79 365.36 25.143 365.883 23.5897C366.773 20.9202 368.607 18.6879 370.567 16.674C382.072 4.88772 399.494 -0.802499 415.737 1.92162C417.462 2.21043 419.211 2.6007 420.67 3.56078C420.842 3.67006 421.006 3.78714 421.162 3.91983C423.066 5.40288 424.183 7.79917 424.589 10.2033C425.026 12.8103 424.487 17.0097 424.206 19.6401L424.159 19.6792C421.755 16.8067 419.156 14.1685 416.924 11.9985V11.9751H416.916Z" fill="#1E222D"/>
<path id="Vector_13" d="M435.071 17.6493C434.922 19.8739 434.251 22.0595 433.127 23.9874C432.346 25.33 430.902 25.2675 430.481 29.2952H430.465C429.021 26.0012 426.703 22.7073 424.158 19.6788L424.205 19.6397C424.486 17.0093 425.025 12.8099 424.588 10.2029C424.182 7.79879 423.066 5.4025 421.161 3.91945L421.177 3.89604C424.689 2.66277 428.717 6.44844 429.56 9.69553C429.599 9.84384 429.786 9.88286 429.888 9.76578C430.239 9.34428 430.941 9.19598 431.48 9.40673C432.183 9.68773 432.627 10.3902 432.916 11.0927C433.822 13.3017 433.549 15.9477 432.229 17.9303C433.182 17.9616 434.142 17.8679 435.071 17.6493Z" fill="#1E222D"/>
<path id="Vector_14" d="M380.565 72.749C381.479 67.7613 382.361 62.7814 382.579 60.4554C382.876 60.3539 383.172 60.2915 383.485 60.3071H383.516C384.554 60.3929 385.28 61.3296 385.897 62.1648C390.385 68.2609 396.426 73.2018 403.287 76.402C404.653 77.0343 406.058 77.6119 407.526 77.9163C409.188 78.2597 410.898 78.2519 412.591 78.2051C415.924 78.1036 419.242 77.846 422.543 77.4324C420.53 80.6716 419.078 84.3715 417.946 88.204C417.228 90.6393 416.642 93.1292 416.127 95.5802C415.831 96.9852 415.565 98.3823 415.308 99.7405C415.066 101.575 413.567 103.003 411.725 103.112C409.313 103.253 406.854 102.855 404.536 102.121C401.187 101.052 398.097 99.2956 395.115 97.4379C389.667 94.0425 384.46 90.2568 379.558 86.1121C379.176 85.7921 378.754 85.5579 378.302 85.4174L378.317 85.3706C378.645 83.0133 379.621 77.8695 380.565 72.749Z" fill="#C5CBFF"/>
<path id="Vector_15" d="M382.578 60.4546C382.227 60.5639 381.876 60.72 381.533 60.8527C379.167 61.7503 376.357 61.1805 374.414 59.5569C372.096 57.6134 371.05 54.296 371.705 51.3377C371.971 50.1435 372.611 49.0351 373.665 48.4029C374.906 47.6457 376.201 47.7628 377.442 48.2624C379.456 49.082 380.986 50.7601 381.829 52.7583C382.43 54.1868 382.75 57.2699 383.484 60.2594V60.3063C383.172 60.2907 382.875 60.3531 382.578 60.4546Z" fill="#C5CBFF"/>
<path id="Vector_16" d="M100.121 278.439C98.3878 277.276 96.6784 276.059 95.0081 274.786C88.9041 270.119 83.4169 264.639 80.162 257.755C80.1073 257.653 80.0605 257.552 80.0137 257.45C80.0137 257.45 138.727 221.014 169.387 203.803C178.41 198.729 185.006 195.326 186.957 195.006C191.601 194.257 196.324 195.334 200.898 196.45C212.684 199.338 224.416 202.539 235.773 206.824C246.763 210.976 256.746 216.167 268.298 218.298L268.283 218.314C273.863 220.538 279.608 222.864 283.878 227.087C286.266 229.444 288.093 232.293 290.099 234.978C293.713 239.825 298.006 244.212 303.072 247.498C308.137 250.792 314.015 252.947 320.049 253.212C324.818 253.423 329.556 252.455 334.309 251.979C339.055 251.51 350.225 253.462 354.526 255.554C354.721 258.192 354.947 260.838 355.275 263.461H355.244C350.037 290.522 328.486 294.815 328.486 294.815C323.108 296.915 318.074 297.532 312.384 298.507C306.998 299.421 300.59 298.624 295.134 298.32C275.323 297.196 257.238 286.916 241.057 275.442C224.876 263.976 207.181 250.964 189.057 242.916C188.596 243.502 188.167 244.079 187.777 244.641C187.425 245.438 186.653 245.968 185.911 246.445C161.495 262.079 134.379 273.491 106.131 280.008C105.249 280.211 104.328 280.414 103.438 280.242C102.603 280.078 101.877 279.602 101.167 279.142C100.815 278.908 100.472 278.681 100.121 278.439Z" fill="#F77779"/>
<path id="Vector_17" d="M272.802 212.733C273.598 211.125 274.191 209.197 274.456 206.785C277.454 208.002 280.428 208.97 283.121 209.493L283.191 210.617C283.222 211.039 283.269 211.499 283.55 211.819C283.768 212.077 284.096 212.202 284.408 212.319C291.16 214.809 297.959 217.322 305.023 218.704C310.338 219.742 315.771 220.14 321.032 221.428C325.028 222.404 328.993 223.894 333.107 223.77C336.057 223.684 339.219 222.544 340.655 219.968C341.334 218.758 341.56 217.353 341.756 215.98C342.396 211.538 344.347 197.746 344.542 193.258H344.589C345.369 199.541 346.486 205.793 347.93 211.968C348.991 216.534 350.232 221.053 350.997 225.674C352.059 232.137 354.315 252.673 354.315 252.673C354.385 253.633 354.447 254.593 354.525 255.554C350.224 253.462 339.055 251.51 334.309 251.979C329.556 252.455 324.818 253.423 320.048 253.212C314.015 252.947 308.137 250.792 303.071 247.498C298.006 244.212 293.713 239.825 290.099 234.978C288.093 232.293 286.266 229.444 283.878 227.087C279.608 222.864 273.863 220.538 268.282 218.313L268.298 218.298C269.992 216.768 271.623 215.098 272.802 212.733Z" fill="white"/>
<path id="Vector_18" d="M284.479 188.442C278.93 187.248 272.451 185.656 266.581 183.697L262.71 178.342C262.132 177.538 261.453 176.812 260.743 176.125C259.775 175.197 258.846 174.049 258.058 172.816C256.692 170.669 255.763 168.289 255.825 166.4C255.864 165.385 256.067 164.394 256.333 163.418C256.723 161.974 257.34 159.492 258.011 158.157L257.995 158.134C259.58 157.228 260.844 155.769 261.398 154.028C261.648 156.253 262.764 158.368 264.458 159.827C264.552 152.584 269.134 146.262 271.475 139.408C273.263 134.171 273.801 129.487 274.637 124.945C275.425 120.659 276.486 116.499 279.117 112.136C279.577 113.494 281.701 114.47 283.082 114.868C286.93 115.976 291.122 115.492 294.837 114.025C298.56 112.55 301.854 110.153 304.789 107.437C307.685 104.775 311.502 100.763 312.454 96.9463C313.172 97.7425 314.023 98.4293 314.975 98.9679C320.244 101.942 334.544 110.965 337.362 122.79C340.835 137.363 340.905 138.074 340.905 138.074C340.999 138.55 341.093 139.018 341.178 139.494C343.38 150.945 343.653 162.075 343.263 173.792L343.411 179.685C343.629 184.22 344.027 188.747 344.589 193.251H344.543C344.348 197.747 342.396 211.539 341.756 215.98C341.561 217.354 341.335 218.759 340.655 219.969C339.219 222.545 336.058 223.684 333.108 223.77C328.994 223.895 325.029 222.404 321.032 221.429C315.772 220.141 310.339 219.743 305.023 218.704C297.959 217.323 291.161 214.809 284.409 212.32C284.097 212.202 283.769 212.078 283.55 211.82C283.269 211.5 283.223 211.039 283.191 210.618L283.121 209.494C282.824 204.452 282.84 199.386 283.184 194.343C283.316 192.314 283.527 190.23 284.479 188.442Z" fill="white"/>
<path id="Vector_19" d="M342.333 123.243C343.559 128.371 343.457 134.116 341.178 139.494C341.092 139.018 340.999 138.549 340.905 138.073C340.905 138.073 340.835 137.363 337.361 122.79C334.543 110.965 320.244 101.941 314.975 98.9675C314.023 98.4289 313.172 97.742 312.454 96.9459C311.119 95.4628 310.253 93.5973 310.065 91.5679C310.065 91.5444 310.058 91.521 310.058 91.4976C309.855 89.0935 310.307 86.6816 310.924 84.3478C311.572 81.889 312.43 79.4069 314.124 77.5179C314.717 78.0955 315.732 77.9863 316.411 77.5023C317.082 77.0262 317.496 76.2691 317.879 75.5431L320.564 70.5242C321.032 69.65 321.009 68.5494 320.4 67.7689C319.26 66.317 317.465 67.2069 316.161 68.0889C317.465 61.8211 316.505 55.1864 313.999 49.2932C311.97 44.5319 308.965 40.231 305.405 36.4532C303.876 34.8218 301.979 33.5807 299.864 32.847L299.021 32.5582C289.904 33.5339 281.193 37.9284 274.987 44.688C273.848 45.929 272.786 47.2482 271.99 48.739C270.179 52.111 269.859 56.0606 269.57 59.8775C269.164 65.2243 268.766 70.6023 269.344 75.9334C269.742 79.5708 270.749 83.4267 273.575 85.7371C274.542 86.5333 275.659 87.0875 276.829 87.509L276.814 87.548C277.243 89.3277 277.696 91.8801 278.133 93.6675C279.085 97.5625 280.038 101.473 280.584 105.438C280.857 107.46 280.529 109.528 279.6 111.347C279.429 111.612 279.265 111.878 279.116 112.135C276.486 116.499 275.424 120.659 274.636 124.944C273.801 129.487 273.262 134.17 271.475 139.408C269.133 146.261 264.551 152.584 264.458 159.827C262.764 158.367 261.648 156.252 261.398 154.028C260.844 155.768 259.579 157.228 257.995 158.133C256.886 158.773 255.622 159.125 254.342 159.109C258.096 151.03 258.526 141.859 258.9 132.953C259.587 116.327 260.274 99.6934 260.04 83.0598C259.915 74.5284 259.571 65.7941 262.155 57.6607C263.896 52.1969 266.877 47.2326 269.898 42.3697C271.928 39.107 274.059 35.7819 277.134 33.4871C280.077 31.2937 283.667 30.2009 287.18 29.1394C291.98 27.7032 297.553 26.3606 301.674 29.2018C301.674 29.2018 316.552 31.2079 320.361 48.9029C324.178 66.598 326.262 59.8307 328.346 92.4421C328.346 92.4421 327.823 104.236 334.411 109.614C337.9 112.455 340.952 117.459 342.333 123.243Z" fill="#1E222D"/>
<path id="Vector_20" d="M276.83 87.5167C275.659 87.0874 274.543 86.5332 273.575 85.737C270.749 83.4266 269.742 79.5707 269.344 75.9333C268.767 70.6022 269.165 65.2242 269.571 59.8774C269.859 56.0605 270.179 52.1109 271.99 48.7389C272.787 47.2481 273.848 45.9289 274.988 44.6879C281.193 37.9283 289.904 33.5338 299.021 32.5581L299.864 32.8469C301.979 33.5806 303.876 34.8217 305.406 36.4531C308.965 40.2309 311.97 44.5318 314 49.2931C316.505 55.1863 317.465 61.821 316.162 68.0888C317.465 67.2068 319.261 66.3169 320.4 67.7688C321.009 68.5493 321.032 69.6499 320.564 70.5241L317.879 75.543C317.496 76.269 317.083 77.0261 316.412 77.5022C315.732 77.9862 314.718 78.0954 314.125 77.5178C312.431 79.4068 311.572 81.8889 310.924 84.3477C310.308 86.6815 309.855 89.0934 310.058 91.4975C310.058 91.5209 310.066 91.5443 310.066 91.5677C310.253 93.5972 311.119 95.4627 312.454 96.9457C311.502 100.763 307.685 104.775 304.789 107.436C301.854 110.153 298.56 112.549 294.837 114.024C291.122 115.492 286.93 115.976 283.082 114.867C281.7 114.469 279.577 113.493 279.117 112.135C279.265 111.878 279.429 111.612 279.601 111.347C280.53 109.528 280.857 107.46 280.584 105.438C280.038 101.473 279.086 97.5624 278.133 93.6674C277.696 91.88 277.243 89.3276 276.814 87.5479L276.83 87.5167Z" fill="#E7E9FB"/>
<path id="Vector_21" d="M228.974 173.658C228.623 173.377 228.303 173.096 228.022 172.838C226.578 171.488 225.789 168.943 226.234 167.023V167.008C225.204 166.609 224.252 166.032 223.432 165.283C221.426 163.44 220.357 160.623 220.63 157.906C220.677 157.415 220.825 156.845 221.278 156.65C221.309 156.634 221.348 156.626 221.379 156.618C221.91 156.455 222.464 156.899 222.894 157.29C223.713 158.047 224.611 158.718 225.555 159.304L225.587 159.257C225.704 158.008 226.227 157.243 226.867 156.79C228.014 155.955 229.614 156.119 230.691 157.048C231.004 157.321 231.316 157.586 231.628 157.867C234.001 159.928 236.335 161.95 239.199 163.308C240.799 164.073 242.478 164.65 244.07 165.423C246.763 166.734 249.167 168.6 251.165 170.832C251.282 170.957 251.392 171.082 251.493 171.207C253.218 173.221 254.639 175.508 255.661 177.959C256.301 179.262 257.425 180.277 258.783 180.784L260.516 181.44C262.405 182.236 264.45 182.993 266.581 183.696C272.451 185.655 278.929 187.247 284.479 188.442C283.527 190.229 283.316 192.313 283.183 194.342C282.84 199.385 282.824 204.451 283.121 209.493C280.428 208.97 277.454 208.002 274.457 206.777C269.102 204.599 263.654 201.633 259.509 199.01C257.183 197.551 254.81 196.091 252.156 195.388C251.368 195.178 250.572 195.045 249.768 194.928C248.8 194.78 247.817 194.67 246.849 194.499C241.276 193.539 236.124 190.736 231.839 187.044C231.144 186.451 230.457 185.811 230.059 184.991C229.716 184.281 229.614 183.477 229.513 182.697C229.177 180.058 229.31 176.312 228.974 173.658Z" fill="#E7E9FB"/>
<path id="Vector_22" d="M274.457 206.777C274.192 209.197 273.599 211.125 272.803 212.733C268.876 211.296 264.981 209.86 261.11 208.432L261.126 208.393C260.571 206.074 252.891 197.379 249.769 194.952V194.928C250.573 195.045 251.369 195.178 252.157 195.389C254.811 196.091 257.184 197.551 259.51 199.011C263.655 201.633 269.103 204.599 274.457 206.777Z" fill="#E7E9FB"/>
<path id="Vector_23" d="M272.802 212.732C271.623 215.097 269.992 216.768 268.298 218.298C256.746 216.167 246.763 210.976 235.773 206.823C224.416 202.538 212.684 199.338 200.898 196.45C196.324 195.334 191.601 194.257 186.957 195.006C185.006 195.326 178.41 198.729 169.387 203.803C173.43 200.79 177.801 196.466 181.837 193.46C183.491 192.235 185.154 190.994 186.98 190.049C191.687 187.614 197.237 187.232 202.474 187.989C207.712 188.754 212.731 190.588 217.703 192.414C232.385 197.808 246.614 203.085 261.109 208.431C264.981 209.86 268.876 211.296 272.802 212.732Z" fill="#F77779"/>
<path id="Vector_24" d="M251.165 170.832C249.167 168.6 246.763 166.734 244.07 165.423C242.477 164.65 240.799 164.073 239.199 163.308C236.334 161.95 234.001 159.928 231.628 157.867C230.824 156.728 230.004 155.565 229.161 154.37H229.177C229.832 152.107 232.705 152.325 233.407 152.622C234.11 152.926 234.625 153.527 235.179 154.058C238.676 157.391 244.117 158.172 247.395 161.723C249.658 164.166 250.54 167.554 251.157 170.832H251.165Z" fill="#E7E9FB"/>
<path id="Vector_25" d="M231.636 157.86C231.324 157.587 231.011 157.322 230.699 157.048C229.622 156.12 228.022 155.956 226.875 156.791C226.234 157.244 225.712 158.008 225.594 159.257L225.563 159.304C224.619 158.719 223.721 158.048 222.902 157.29C222.472 156.9 221.918 156.455 221.387 156.619C215.83 146.886 208.407 139.08 201.327 128.402C200.453 127.083 199.126 125.686 199.704 124.211C199.946 123.578 200.484 123.102 200.999 122.657C201.811 121.955 202.623 121.252 203.427 120.542C203.684 120.323 203.958 120.097 204.293 120.042C204.957 119.933 205.495 120.55 205.886 121.096C212.981 131.111 221.738 143.81 229.177 154.371C230.02 155.565 230.84 156.728 231.644 157.86H231.636Z" fill="white"/>
<path id="Vector_26" d="M102.721 285.488C103.251 287.947 103.158 290.632 101.94 292.825C100.715 295.026 97.5923 296.689 95.1024 296.33H95.0711C95.3365 293.895 94.6418 291.186 93.8925 288.782C93.3305 286.971 92.7685 285.168 92.2065 283.357C91.9333 282.467 91.6211 281.523 90.9186 280.914C90.8015 280.812 90.6766 280.727 90.5439 280.649V280.633C91.3479 279.47 94.2125 275.965 95.0087 274.787C96.6791 276.059 98.3885 277.277 100.121 278.44C101.214 280.688 102.19 283.053 102.721 285.488Z" fill="#C5CBFF"/>
<path id="Vector_27" d="M93.892 288.782C94.6413 291.186 95.336 293.894 95.0706 296.33C94.9379 297.656 94.5086 298.898 93.65 299.967C91.5503 302.597 87.7569 302.972 84.3927 303.105C59.2199 304.127 34.0159 303.409 8.83537 302.691C7.10255 302.644 5.26045 302.558 3.84765 301.567C2.06019 300.318 1.43575 297.969 1.28744 295.791C0.858142 289.539 4.04279 282.592 10.0218 280.695C12.9645 279.766 16.1257 280.141 19.2089 280.141C29.9805 280.141 40.1433 275.489 49.908 270.923C56.2382 267.964 62.5763 265.006 68.9066 262.04L69.2032 261.907C69.2032 262.446 69.25 262.984 69.3203 263.507C70.3662 272.32 78.7415 278.775 87.7491 279.946C88.7013 280.071 89.7317 280.157 90.5434 280.648C90.6761 280.726 90.801 280.812 90.9181 280.914C91.6206 281.522 91.9328 282.467 92.206 283.357C92.768 285.168 93.33 286.971 93.892 288.782Z" fill="#C5CBFF"/>
<path id="Vector_28" d="M95.0082 274.787C94.2121 275.965 91.3475 279.47 90.5513 280.633V280.648C89.7317 280.157 88.7014 280.071 87.7491 279.946C78.7416 278.775 70.3663 272.32 69.3203 263.508H69.3437C71.6698 262.274 77.8205 259.004 80.1622 257.755C83.4171 264.639 88.9043 270.119 95.0082 274.787Z" fill="#E7E9FB"/>
</g>
<g id="Group_3">
<path id="Vector_29" d="M307.021 83.1383C304.656 85.4565 302.206 87.8372 299.107 89.0158C295.688 90.3116 291.863 89.9837 288.265 89.6637C285.4 89.4061 282.543 88.9924 279.741 88.3524C277.548 87.845 275.308 87.1737 273.567 85.7453C270.742 83.4271 269.727 79.5712 269.336 75.9416C268.759 70.6105 269.157 65.2247 269.563 59.8779C269.852 56.061 270.172 52.1114 271.983 48.7394C272.779 47.2564 273.84 45.9294 274.98 44.6884C281.185 37.9288 289.896 33.5343 299.013 32.5664L299.856 32.8552C301.971 33.5811 303.868 34.83 305.398 36.4535C308.957 40.2314 311.962 44.5323 313.992 49.3014C316.497 55.1946 317.457 61.8214 316.154 68.0971C317.45 67.2151 319.253 66.3252 320.392 67.7771C321.001 68.5576 321.025 69.6582 320.556 70.5324L317.879 75.5513C317.489 76.2773 317.075 77.0344 316.404 77.5183C315.732 78.0023 314.718 78.1037 314.117 77.5339C312.423 79.4229 311.564 81.905 310.916 84.3638C310.3 86.6976 309.847 89.1095 310.05 91.5136C310.05 91.537 310.05 91.5604 310.05 91.5839C310.339 94.6982 312.236 97.4458 314.96 98.9835C320.236 101.957 334.536 110.973 337.354 122.806C340.819 137.379 340.897 138.089 340.897 138.089C343.348 150.047 343.661 161.599 343.255 173.807L343.403 179.7C343.942 190.573 345.456 201.392 347.93 211.992C348.992 216.55 350.233 221.077 350.998 225.698C352.059 232.153 354.315 252.697 354.315 252.697C354.869 260.479 355.439 268.363 357.867 275.778C360.294 283.193 364.759 290.289 371.55 294.129C386.973 302.856 412.638 299.874 418.89 299.39C417.985 299.242 419.397 296.026 419.312 295.12C418.172 282.46 417.032 269.635 419.163 257.1C420.037 251.932 421.669 245.04 424.76 240.802" stroke="#1E222D" stroke-width="2.5" stroke-miterlimit="10" stroke-linecap="round"/>
<path id="Vector_30" d="M276.806 87.5481C277.243 89.3355 277.696 91.8801 278.133 93.6676C279.085 97.5625 280.038 101.473 280.576 105.438C280.857 107.468 280.529 109.528 279.6 111.347C273.621 120.659 275.05 128.933 271.475 139.408C269.133 146.261 264.559 152.584 264.466 159.827C262.772 158.367 261.648 156.252 261.398 154.028C260.461 156.986 257.448 159.156 254.35 159.117C258.104 151.03 258.533 141.859 258.9 132.961C259.587 116.335 260.282 99.7012 260.04 83.0677C259.915 74.5285 259.579 65.8019 262.163 57.6686C263.896 52.2047 266.885 47.2404 269.906 42.3776C271.935 39.1149 274.059 35.7897 277.142 33.4949C280.084 31.3015 283.675 30.2088 287.187 29.155C291.98 27.711 297.553 26.3763 301.682 29.2097C301.682 29.2097 316.552 31.2235 320.369 48.9108C324.185 66.5981 326.27 59.8385 328.346 92.4499C328.346 92.4499 327.823 104.244 334.419 109.622C341.014 115 346.033 128.082 341.178 139.533" stroke="#1E222D" stroke-width="2.5" stroke-miterlimit="10" stroke-linecap="round"/>
<path id="Vector_31" d="M225.586 159.257C225.703 158.008 226.226 157.243 226.858 156.783C228.006 155.955 229.614 156.111 230.683 157.04C233.384 159.374 235.952 161.762 239.191 163.308C240.791 164.065 242.469 164.651 244.062 165.423C249.291 167.968 253.405 172.589 255.653 177.951C256.301 179.262 257.417 180.269 258.783 180.784L260.508 181.432C267.619 184.445 276.915 186.81 284.471 188.442" stroke="#1E222D" stroke-width="2.5" stroke-miterlimit="10" stroke-linecap="round"/>
<path id="Vector_32" d="M231.417 161.598C228.256 160.974 225.266 159.468 222.894 157.29C222.441 156.876 221.848 156.4 221.278 156.65C220.825 156.845 220.677 157.415 220.63 157.906C220.357 160.623 221.426 163.441 223.44 165.283C225.454 167.125 228.342 167.968 231.027 167.468" stroke="#1E222D" stroke-width="2.5" stroke-miterlimit="10" stroke-linecap="round"/>
<path id="Vector_33" d="M226.234 167.024C225.782 168.944 226.578 171.489 228.022 172.839C229.466 174.189 232.042 176.039 233.829 176.874" stroke="#1E222D" stroke-width="2.5" stroke-miterlimit="10" stroke-linecap="round"/>
<path id="Vector_34" d="M228.967 173.611C229.302 176.273 229.178 180.035 229.513 182.697C229.615 183.477 229.716 184.281 230.06 184.992C230.458 185.811 231.145 186.451 231.839 187.052C236.124 190.744 241.276 193.539 246.849 194.507C248.621 194.811 250.424 194.936 252.157 195.396C254.811 196.099 257.184 197.551 259.51 199.018C265.988 203.108 275.613 208.049 283.137 209.501" stroke="#1E222D" stroke-width="2.5" stroke-miterlimit="10" stroke-linecap="round"/>
<path id="Vector_35" d="M229.185 154.363C229.832 152.107 232.713 152.326 233.415 152.63C234.118 152.934 234.633 153.535 235.187 154.058C238.684 157.391 244.124 158.172 247.403 161.723C249.666 164.167 250.548 167.562 251.157 170.84" stroke="#1E222D" stroke-width="2.5" stroke-miterlimit="10" stroke-linecap="round"/>
<path id="Vector_36" d="M344.535 193.258C344.347 197.739 342.388 211.539 341.756 215.98C341.561 217.354 341.327 218.759 340.655 219.969C339.219 222.545 336.058 223.684 333.107 223.77C328.994 223.895 325.029 222.396 321.032 221.421C315.771 220.14 310.339 219.742 305.023 218.696C297.951 217.315 291.161 214.801 284.409 212.312C284.097 212.194 283.769 212.07 283.55 211.82C283.269 211.5 283.222 211.039 283.199 210.61C282.824 205.193 282.824 199.752 283.183 194.335C283.324 192.259 283.535 190.12 284.557 188.302L288.889 189.535C289.639 189.746 290.396 189.902 291.161 190.003C298.271 190.909 305.429 191.9 312.15 194.374C314.538 195.256 316.911 196.349 318.776 198.082" stroke="#1E222D" stroke-width="2.5" stroke-miterlimit="10" stroke-linecap="round"/>
<path id="Vector_37" d="M307.904 192.985C305.547 174.431 302.979 154.488 302.393 135.802C302.253 131.345 302.307 126.552 304.852 122.891C306.874 119.972 310.394 118.161 313.938 118.208" stroke="#1E222D" stroke-width="2.5" stroke-miterlimit="10" stroke-linecap="round"/>
<path id="Vector_38" d="M258.01 158.157C257.339 159.499 256.723 161.974 256.332 163.418C256.067 164.393 255.864 165.392 255.833 166.399C255.723 169.381 258.112 173.588 260.742 176.133C261.453 176.82 262.132 177.546 262.709 178.342L266.597 183.72" stroke="#1E222D" stroke-width="2.5" stroke-miterlimit="10" stroke-linecap="round"/>
<path id="Vector_39" d="M293.338 157.462C297.373 164.058 300.613 169.74 305.749 175.524" stroke="#1E222D" stroke-width="2.5" stroke-miterlimit="10" stroke-linecap="round"/>
<path id="Vector_40" d="M274.456 206.785C273.809 212.772 271.131 215.738 268.282 218.314C273.863 220.538 279.608 222.864 283.878 227.087C286.266 229.445 288.085 232.294 290.091 234.986C293.705 239.826 297.998 244.22 303.064 247.506C308.129 250.793 314.007 252.955 320.041 253.22C324.81 253.431 329.548 252.463 334.301 251.987C339.055 251.511 350.256 253.478 354.541 255.577" stroke="#1E222D" stroke-width="2.5" stroke-miterlimit="10" stroke-linecap="round"/>
<path id="Vector_41" d="M186.45 232.075C186.988 235.603 187.324 238.78 187.855 242.3C187.972 243.057 188.081 243.853 187.8 244.564C187.472 245.407 186.66 245.953 185.903 246.445C161.488 262.079 134.379 273.491 106.123 280.009C105.233 280.211 104.32 280.414 103.422 280.243C102.595 280.079 101.861 279.61 101.159 279.142C92.6274 273.491 84.2911 266.747 80.0059 257.458C80.0059 257.458 178.379 196.404 186.949 195.014C191.593 194.257 196.316 195.342 200.882 196.458C212.668 199.346 224.408 202.547 235.757 206.832C246.747 210.984 256.73 216.167 268.283 218.306" stroke="#1E222D" stroke-width="2.5" stroke-miterlimit="10" stroke-linecap="round"/>
<path id="Vector_42" d="M187.769 244.642C189.634 241.964 192.311 239.014 194.442 236.54" stroke="#1E222D" stroke-width="2.5" stroke-miterlimit="10" stroke-linecap="round"/>
<path id="Vector_43" d="M189.025 242.909C207.158 250.956 224.86 263.968 241.049 275.442C257.238 286.916 275.323 297.196 295.126 298.32C300.582 298.632 306.99 299.428 312.376 298.507C318.066 297.539 323.101 296.923 328.479 294.815C328.479 294.815 350.03 290.522 355.236 263.461" stroke="#1E222D" stroke-width="2.5" stroke-miterlimit="10" stroke-linecap="round"/>
<path id="Vector_44" d="M169.387 203.795C173.422 200.79 177.801 196.466 181.837 193.46C183.491 192.227 185.154 190.994 186.98 190.049C191.679 187.614 197.229 187.232 202.474 187.989C207.712 188.754 212.731 190.588 217.703 192.414C236.319 199.252 254.217 205.91 272.833 212.748" stroke="#1E222D" stroke-width="2.5" stroke-miterlimit="10" stroke-linecap="round"/>
<path id="Vector_45" d="M386.412 30.7314C386.466 35.4148 386.857 40.9176 387.536 45.5463C387.661 46.3893 387.692 47.2323 387.614 48.0831L387.543 48.9105C387.419 50.3311 388.012 51.7127 389.112 52.6181C392.477 55.3812 396.106 57.8322 399.931 59.9162C400.54 60.2519 401.18 60.5797 401.874 60.6344C404.083 60.8217 405.473 58.3786 406.425 56.3725C407.736 53.6172 409.399 50.8853 411.967 49.2227C414.574 47.5445 417.782 47.1698 420.865 46.8576C422.145 46.7327 423.449 46.6079 424.713 46.842C427.945 47.4508 430.325 50.3467 431.488 53.4221C431.816 54.2963 432.097 55.2251 432.737 55.9042C433.042 56.2164 433.432 56.435 433.854 56.5521C434.564 56.755 435.095 57.3404 435.11 58.0819L435.157 60.8685C435.118 62.3203 434.728 63.7331 434.345 65.1303C433.721 67.3939 433.104 69.6653 432.48 71.9289C432.121 73.2559 431.699 74.6608 430.645 75.5429C429.732 76.3 428.499 76.5264 427.328 76.7293C422.45 77.5567 417.524 78.0484 412.584 78.1967C410.89 78.2514 409.173 78.2514 407.518 77.9079C406.043 77.6035 404.645 77.0337 403.279 76.3937C396.418 73.1934 390.377 68.2525 385.881 62.1564C385.264 61.3212 384.538 60.3846 383.508 60.2987C382.813 60.2441 382.173 60.5953 381.525 60.8451C379.16 61.7427 376.35 61.1729 374.407 59.5494C372.081 57.6058 371.043 54.2885 371.698 51.3302C371.964 50.1359 372.604 49.0276 373.657 48.3875C374.906 47.6304 376.202 47.7553 377.435 48.2548C379.449 49.0666 380.979 50.7526 381.822 52.7508C382.423 54.1714 382.743 57.2546 383.477 60.2519" stroke="#1E222D" stroke-width="2.5" stroke-miterlimit="10" stroke-linecap="round"/>
<path id="Vector_46" d="M416.915 11.9985C422.551 17.478 430.52 25.8845 431.785 33.6432C432.034 35.1965 432.097 36.8044 432.674 38.2641C433.236 39.6925 434.267 40.8945 434.977 42.2527C436.359 44.8909 436.273 55.0537 435.094 57.7856" stroke="#1E222D" stroke-width="2.5" stroke-miterlimit="10" stroke-linecap="round"/>
<path id="Vector_47" d="M424.198 19.6401C424.479 17.0097 425.026 12.8103 424.581 10.2033C424.144 7.59623 422.871 5.0048 420.662 3.56078C419.203 2.60851 417.454 2.21043 415.729 1.92162C399.486 -0.802499 382.064 4.88772 370.559 16.674C368.6 18.6801 366.765 20.9202 365.876 23.5897C365.353 25.1508 365.173 26.7978 365.001 28.4291C364.627 31.8948 364.252 35.3604 363.877 38.8339C363.456 42.7288 363.034 46.655 363.393 50.55C363.752 54.4449 364.954 58.3711 367.452 61.3918C371.121 65.8253 377.396 68.0187 380.589 72.8035" stroke="#1E222D" stroke-width="2.5" stroke-miterlimit="10" stroke-linecap="round"/>
<path id="Vector_48" d="M382.571 60.4238C382.15 65.1149 378.965 80.7025 378.31 85.3702" stroke="#1E222D" stroke-width="2.5" stroke-miterlimit="10" stroke-linecap="round"/>
<path id="Vector_49" d="M430.481 29.2952C430.902 25.2597 432.346 25.33 433.127 23.9874C434.251 22.0595 434.922 19.8661 435.071 17.6415C434.142 17.8679 433.182 17.9616 432.229 17.9225C433.556 15.9399 433.822 13.2939 432.924 11.0849C432.635 10.3824 432.19 9.67991 431.488 9.39891C430.949 9.18036 430.255 9.33647 429.895 9.75797C429.794 9.87505 429.607 9.83602 429.568 9.68772C428.725 6.44063 424.705 2.65496 421.192 3.88823" stroke="#1E222D" stroke-width="2.5" stroke-miterlimit="10" stroke-linecap="round"/>
<path id="Vector_50" d="M419.303 11.8193C416.111 11.5071 413.137 13.357 410.546 15.2459C407.954 17.1349 405.254 19.2268 402.061 19.5078C400.039 19.6873 398.041 19.1097 396.09 18.5399" stroke="#1E222D" stroke-width="2.5" stroke-miterlimit="10" stroke-linecap="round"/>
<path id="Vector_51" d="M401.757 19.5078C395.966 21.7792 392.882 29.2101 386.825 30.6307C384.765 31.1146 382.587 30.9117 380.526 30.4121" stroke="#1E222D" stroke-width="2.5" stroke-miterlimit="10" stroke-linecap="round"/>
<path id="Vector_52" d="M403.404 214.161C405.254 212.998 407.315 212.225 409.274 211.257C411.233 210.289 413.645 207.729 414.925 205.957" stroke="#1E222D" stroke-width="2.5" stroke-miterlimit="10" stroke-linecap="round"/>
<path id="Vector_53" d="M342.403 123.227C345.393 112.947 353.128 109.442 356.492 104.907C361.144 98.6314 366.46 92.8397 372.322 87.6725C372.455 87.5554 372.587 87.4539 372.728 87.3524L374.866 85.8928C376.303 84.9171 378.215 84.9952 379.542 86.1114C384.444 90.2561 389.65 94.0418 395.098 97.4293C398.08 99.2871 401.171 101.043 404.52 102.113C406.83 102.854 409.289 103.244 411.708 103.104C413.551 102.995 415.049 101.566 415.291 99.732C416.696 92.2465 418.507 83.8946 422.527 77.4238" stroke="#1E222D" stroke-width="2.5" stroke-miterlimit="10" stroke-linecap="round"/>
<path id="Vector_54" d="M417.673 207.097C429.209 207.963 446.381 209.704 457.887 208.463C461.43 208.08 465.036 207.503 468.533 208.19C471.507 208.775 474.442 210.508 475.808 213.131C476.222 213.935 476.315 214.863 476.112 215.745L475.691 217.564C475.386 218.868 474.45 219.929 473.185 220.359C453.508 227.032 435.937 240.544 415.261 242.479C399.735 243.931 383.937 238.374 371.792 228.593C369.942 227.103 368.139 225.479 366.991 223.403C365.594 220.866 365.298 217.9 364.923 215.027C364.291 210.25 363.354 205.52 362.105 200.868C359.295 190.354 353.082 170.817 352.957 151.826" stroke="#1E222D" stroke-width="2.5" stroke-miterlimit="10" stroke-linecap="round"/>
<path id="Vector_55" d="M354.908 137.37C357.476 129.408 363.744 123.172 371.027 120.534C378.309 117.895 386.458 118.73 393.452 122.204C396.137 123.539 398.705 125.279 400.68 127.691C402.654 130.103 403.989 133.249 403.966 136.496L408.477 153.863C409.437 159.483 410.312 165.126 410.671 170.817C410.975 175.648 410.913 180.503 411.334 185.335C411.818 190.931 412.942 196.45 414.066 201.953L414.894 205.957C417.188 206.909 421.786 208.4 423.019 210.562C424.252 212.724 424.924 215.168 425.337 217.618C425.915 221.029 426.016 224.565 425.142 227.906" stroke="#1E222D" stroke-width="2.5" stroke-miterlimit="10" stroke-linecap="round"/>
<path id="Vector_56" d="M474.566 219.671C480.897 218.258 491.044 216.939 497.374 215.519C502.619 214.348 507.873 213.177 513.204 212.498C518.168 211.866 523.179 211.678 528.175 211.483C531.82 211.343 535.465 211.202 539.11 211.108C541.928 211.038 544.808 210.999 547.509 211.803C550.842 212.787 553.675 214.972 556.313 217.228C558.202 218.844 560.06 220.545 561.473 222.598C562.761 224.471 563.666 226.61 564.096 228.843C564.736 232.121 564.369 235.501 564.002 238.818C562.964 248.192 561.434 258.745 558.101 267.566" stroke="#1E222D" stroke-width="2.5" stroke-miterlimit="10" stroke-linecap="round"/>
<path id="Vector_57" d="M549.968 246.608C547.798 250.254 545.121 253.696 541.585 256.053C539.922 257.161 538.111 258.004 536.293 258.832C518.332 266.996 499.326 273.756 479.64 274.693C478.376 274.755 477.158 275.161 476.136 275.902L473.279 277.963C468.884 280.695 466.246 286.003 466.722 291.154C467.198 296.306 470.765 301.044 475.581 302.925C480.179 304.72 485.315 303.979 490.225 303.503C493.62 303.175 497.023 302.98 500.426 302.925C503.759 302.871 507.1 302.956 510.41 303.315C513.61 303.667 516.779 304.283 519.971 304.72C532.374 306.406 545.222 305.282 556.969 300.95C564.681 298.101 572.713 292.887 572.744 283.95C572.76 279.594 570.707 275.512 567.507 272.562C561.161 266.715 552.185 265.966 544.044 267.449C537.292 268.675 530.883 271.313 524.35 273.42C517.817 275.528 510.933 277.151 504.118 276.254C500.903 275.832 496.57 274.31 493.565 273.1" stroke="#1E222D" stroke-width="2.5" stroke-miterlimit="10" stroke-linecap="round"/>
<path id="Vector_58" d="M538.018 257.958C539.805 255.671 542.131 253.025 543.505 250.472C544.09 249.38 544.644 248.224 544.644 246.991" stroke="#1E222D" stroke-width="2.5" stroke-miterlimit="10" stroke-linecap="round"/>
<path id="Vector_59" d="M563.565 242.651C566.75 242.089 570.661 243.174 572.963 245.445C575.266 247.717 576.429 251.05 576.164 254.273C575.89 257.544 574.243 260.573 572.089 263.047C569.935 265.521 566.61 267.941 563.987 269.908" stroke="#1E222D" stroke-width="2.5" stroke-miterlimit="10" stroke-linecap="round"/>
<path id="Vector_60" d="M498.928 202.648C503.564 201.001 512.127 197.277 516.896 196.052C519.8 195.31 522.75 194.639 525.747 194.624C528.917 194.6 532.093 195.326 534.942 196.715C537.573 197.996 540.047 202.429 540.734 205.27" stroke="#1E222D" stroke-width="2.5" stroke-miterlimit="10" stroke-linecap="round"/>
<path id="Vector_61" d="M515.296 212.272C517.614 210.539 523.921 203.085 526.239 201.36" stroke="#1E222D" stroke-width="2.5" stroke-miterlimit="10" stroke-linecap="round"/>
<path id="Vector_62" d="M517.442 212.038C524.21 209.954 532.351 208.526 537.916 206.246C539.149 205.747 540.398 205.201 541.725 205.146C544.176 205.06 546.331 206.645 548.259 208.151C551.334 210.555 555.205 214.622 557.18 217.994" stroke="#1E222D" stroke-width="2.5" stroke-miterlimit="10" stroke-linecap="round"/>
<path id="Vector_63" d="M469.548 208.455C475.995 206.543 484.37 201.446 491.099 201.5C492.996 201.516 494.861 201.906 496.719 202.289C500.356 203.046 506.694 203.03 507.147 205.996" stroke="#1E222D" stroke-width="2.5" stroke-miterlimit="10" stroke-linecap="round"/>
<path id="Vector_64" d="M491.216 205.349C494.346 205.06 497.507 205.114 500.629 205.513C502.003 205.684 503.369 205.926 504.751 205.942C506.499 205.965 509.613 205.856 509.09 208.541" stroke="#1E222D" stroke-width="2.5" stroke-miterlimit="10" stroke-linecap="round"/>
<path id="Vector_65" d="M492.699 209.54C497.141 209.462 501.574 209.158 505.984 208.627C507.194 208.479 508.459 208.322 509.622 208.705C510.785 209.087 512.915 210.953 511.183 212.772" stroke="#1E222D" stroke-width="2.5" stroke-miterlimit="10" stroke-linecap="round"/>
<path id="Vector_66" d="M460.595 208.112C459.557 204.077 464.154 200.509 467.448 199.612C467.448 199.612 480.249 199.253 485.307 199.245C487.211 199.245 490.263 199.097 490.474 201.477" stroke="#1E222D" stroke-width="2.5" stroke-miterlimit="10" stroke-linecap="round"/>
<path id="Vector_67" d="M428.99 132.219C430.926 142.545 433.065 152.857 436.226 162.871C437.264 166.173 438.419 169.443 439.145 172.823C439.66 175.211 439.957 177.639 440.378 180.043C441.081 183.993 442.127 187.88 443.181 191.751C444.703 197.379 446.225 202.999 447.747 208.627" stroke="#1E222D" stroke-width="2.5" stroke-miterlimit="10" stroke-linecap="round"/>
<path id="Vector_68" d="M444.594 196.919C446.459 197.965 449.449 198.41 451.564 198.652C455.74 199.136 463.241 199.573 467.44 199.604" stroke="#1E222D" stroke-width="2.5" stroke-miterlimit="10" stroke-linecap="round"/>
<path id="Vector_69" d="M416.135 95.5801C419.991 99.8731 424.682 104.97 427.913 109.755C430.013 112.854 431.996 116.116 432.909 119.746C433.572 122.384 433.642 125.132 433.705 127.856C433.908 136.863 433.884 146.285 433.994 155.292" stroke="#1E222D" stroke-width="2.5" stroke-miterlimit="10" stroke-linecap="round"/>
<path id="Vector_70" d="M419.233 299.374C433.744 297.469 455.115 293.02 467.495 285.214" stroke="#1E222D" stroke-width="2.5" stroke-miterlimit="10" stroke-linecap="round"/>
<path id="Vector_71" d="M426.048 257.88C461.797 246.226 498.67 238.046 535.996 233.496C541.132 232.871 546.417 232.317 551.428 233.628C556.439 234.932 562.184 238.46 563.417 243.487" stroke="#1E222D" stroke-width="2.5" stroke-miterlimit="10" stroke-linecap="round"/>
<path id="Vector_72" d="M279.117 112.136C279.578 113.494 281.701 114.477 283.082 114.876C286.931 115.984 291.114 115.5 294.837 114.025C298.561 112.55 301.847 110.153 304.79 107.437C307.685 104.767 311.494 100.763 312.455 96.9463" stroke="#1E222D" stroke-width="2.5" stroke-miterlimit="10" stroke-linecap="round"/>
<path id="Vector_73" d="M249.769 194.952C252.891 197.379 260.571 206.075 261.126 208.393" stroke="#1E222D" stroke-width="2.5" stroke-miterlimit="10" stroke-linecap="round"/>
<path id="Vector_74" d="M68.9066 262.04C62.5685 264.999 56.2382 267.965 49.9002 270.923C40.1355 275.489 29.9727 280.141 19.2011 280.141C16.1179 280.141 12.9567 279.767 10.0218 280.696C4.04279 282.592 0.858142 289.539 1.28744 295.791C1.43575 297.961 2.06019 300.311 3.83985 301.568C5.26045 302.559 7.09474 302.645 8.82757 302.692C34.0081 303.41 59.2121 304.128 84.3849 303.105C87.7491 302.965 91.5425 302.59 93.65 299.967C96.0854 296.931 95.0472 292.498 93.892 288.782C93.33 286.971 92.768 285.168 92.206 283.357C91.9328 282.467 91.6206 281.531 90.9181 280.914C90.0673 280.18 88.8653 280.095 87.7491 279.946C78.2029 278.705 69.3749 271.532 69.2032 261.9L68.9144 262.04H68.9066Z" stroke="#1E222D" stroke-width="2.5" stroke-miterlimit="10" stroke-linecap="round"/>
<path id="Vector_75" d="M69.3438 263.508C71.6698 262.266 77.8518 258.98 80.1856 257.739" stroke="#1E222D" stroke-width="2.5" stroke-miterlimit="10" stroke-linecap="round"/>
<path id="Vector_76" d="M90.5508 280.633C91.3469 279.47 94.2194 275.942 95.0155 274.779" stroke="#1E222D" stroke-width="2.5" stroke-miterlimit="10" stroke-linecap="round"/>
<path id="Vector_77" d="M100.089 278.385C101.198 280.641 102.181 283.037 102.712 285.496C103.243 287.954 103.157 290.639 101.931 292.833C100.706 295.026 97.5915 296.689 95.1016 296.337" stroke="#1E222D" stroke-width="2.5" stroke-miterlimit="10" stroke-linecap="round"/>
<path id="Vector_78" d="M106.553 262.344C112.625 259.191 118.698 256.037 124.771 252.892C144.011 242.909 163.244 232.917 182.485 222.934C186.614 220.788 190.883 218.602 195.528 218.227C199.868 217.876 204.161 219.149 208.282 220.554C236.468 230.162 263.287 243.424 289.678 257.216C299.762 262.485 312.603 262.695 320.166 253.274" stroke="#1E222D" stroke-width="2.5" stroke-miterlimit="10" stroke-linecap="round"/>
<path id="Vector_79" d="M221.379 156.619C215.822 146.893 208.399 139.08 201.319 128.402C200.445 127.083 199.118 125.686 199.696 124.218C199.946 123.578 200.476 123.11 200.991 122.657C201.803 121.955 202.615 121.252 203.419 120.55C203.677 120.331 203.95 120.097 204.278 120.042C204.941 119.933 205.48 120.55 205.87 121.104C213.777 132.25 223.729 146.722 231.628 157.868" stroke="#1E222D" stroke-width="2.5" stroke-miterlimit="10" stroke-linecap="round"/>
<path id="Vector_80" d="M543.31 205.294C547.657 188.317 552.598 169.795 556.938 152.818C557.235 151.663 557.609 150.406 558.616 149.774C559.389 149.29 560.365 149.297 561.27 149.321C566.258 149.446 571.245 149.578 576.241 149.703C570.996 172.675 564.704 195.959 557.703 218.454" stroke="#1E222D" stroke-width="2.5" stroke-miterlimit="10" stroke-linecap="round"/>
<path id="Vector_81" d="M425.875 54.9287C424.533 58.129 419.007 58.5037 413.964 55.639C413.644 55.4595 413.738 54.8975 414.105 54.9287C421.325 55.5922 426.406 53.6564 425.875 54.9287Z" fill="white" stroke="white" stroke-width="2.5" stroke-miterlimit="10" stroke-linecap="round"/>
<path id="Vector_82" d="M294.704 71.3672C290.028 70.3134 285.173 70.048 280.412 70.5866C281.692 73.1078 284.58 74.7079 287.398 74.4738" stroke="#1E222D" stroke-width="2.5" stroke-miterlimit="10" stroke-linecap="round"/>
<path id="Vector_83" d="M289.319 54.0625C288.96 56.1153 288.562 58.2463 287.321 59.9166C286.735 60.6972 285.947 61.4387 285.877 62.4066C285.806 63.3745 287.133 64.3345 287.734 63.5618" stroke="#1E222D" stroke-width="2.5" stroke-miterlimit="10" stroke-linecap="round"/>
<path id="Vector_84" d="M401.655 34.9539C402.163 32.9713 403.599 31.2541 405.449 30.4033C406.518 29.9116 408.181 29.974 408.43 31.1292C408.602 31.9254 407.697 32.7294 406.932 32.464C406.167 32.1986 405.941 31.0121 406.565 30.4892" stroke="#1E222D" stroke-width="2.5" stroke-miterlimit="10" stroke-linecap="round"/>
<path id="Vector_85" d="M424.736 28.351C424.276 28.0934 423.62 28.2963 423.386 28.7725C422.871 29.6389 424.385 30.6302 425.127 29.9511C425.868 29.272 425.47 27.8904 424.573 27.4377C423.675 26.985 422.559 27.266 421.708 27.8124C420.888 28.3432 420.217 29.1159 419.811 30.0057C419.811 30.0057 422.434 35.1027 423.925 37.7566C424.331 38.4747 424.744 39.2397 424.752 40.067C424.76 41.3628 423.722 42.4867 422.52 42.9785C421.318 43.4702 419.983 43.4702 418.687 43.4624C417.844 43.4624 416.97 43.4468 416.197 43.1112C415.424 42.7756 414.761 42.0184 414.816 41.1754" stroke="#1E222D" stroke-width="2.5" stroke-miterlimit="10" stroke-linecap="round"/>
<path id="Vector_86" d="M397.019 28.7724C399.68 24.9633 404.559 22.8324 409.164 23.4647" stroke="#1E222D" stroke-width="2.5" stroke-miterlimit="10" stroke-linecap="round"/>
<path id="Vector_87" d="M421.13 22.3333C422.777 21.9899 424.494 21.9665 426.157 22.2553" stroke="#1E222D" stroke-width="2.5" stroke-miterlimit="10" stroke-linecap="round"/>
<path id="Vector_88" d="M297.811 47.365L301.409 47.2713C302.455 47.2479 303.509 47.2167 304.547 47.3728C306.248 47.6304 307.872 48.3875 309.152 49.5349" stroke="#1E222D" stroke-width="2.5" stroke-miterlimit="10" stroke-linecap="round"/>
<path id="Vector_89" d="M275.604 48.0367C277.064 46.6942 279.25 46.6005 281.232 46.6161C282.536 46.6318 283.847 46.6552 285.151 46.6942" stroke="#1E222D" stroke-width="2.5" stroke-miterlimit="10" stroke-linecap="round"/>
<path id="Vector_90" d="M275.206 54.2494C276.346 52.8678 277.907 51.736 279.686 51.5097C281.466 51.2833 283.441 52.1185 284.182 53.7499" stroke="#1E222D" stroke-width="2.5" stroke-miterlimit="10" stroke-linecap="round"/>
<path id="Vector_91" d="M297.452 55.1314C299.162 53.3595 302.042 52.8522 304.259 53.9215C305.273 54.4133 306.226 55.4436 305.952 56.5364" stroke="#1E222D" stroke-width="2.5" stroke-miterlimit="10" stroke-linecap="round"/>
<path id="Vector_92" d="M279.234 53.2271C278.844 53.633 278.781 54.476 279.328 54.6243C279.718 54.7336 280.108 54.3511 280.163 53.9453C280.218 53.5394 280.038 53.1491 279.866 52.7822" stroke="#1E222D" stroke-width="2.5" stroke-miterlimit="10" stroke-linecap="round"/>
<path id="Vector_93" d="M301.441 54.3198C301.207 54.7335 300.957 55.2018 301.058 55.6702C301.16 56.1385 301.8 56.482 302.128 56.1307C302.495 55.7482 302.104 54.9989 302.487 54.6242" stroke="#1E222D" stroke-width="2.5" stroke-miterlimit="10" stroke-linecap="round"/>
</g>
<path id="Vector_94" d="M408.142 30.5366H406.323V32.2694H408.142V30.5366Z" fill="#1E222D"/>
</g>
</g>
</svg>
