<svg width="636" height="714" viewBox="0 0 636 714" fill="none" xmlns="http://www.w3.org/2000/svg">
<g id="img-magnifying-glass-guy" clip-path="url(#clip0_1992_146)">
<g id="Group 1171278020">
<g id="img-squiggle1">
<path id="Vector 337" d="M-50 396C-10.3333 406.573 72 445.759 84 517.92C99 608.12 68 644.795 40 640.831C12 636.866 21 544.682 121 535.762C221 526.841 226 638.848 197 704.268" stroke="#8694FF" stroke-width="3" stroke-linecap="round"/>
</g>
<g id="img-magnifying-glass-guy_2" clip-path="url(#clip1_1992_146)">
<g id="Layer 4">
<g id="Group">
<g id="Group_2">
<path id="Vector" d="M631.28 541.901C633.119 547.752 635.097 554.007 631.766 559.844C631.4 560.483 630.955 561.064 630.442 561.581L630.421 561.562C626.576 543.196 620.877 529.573 618.14 511.978C617.635 508.684 616.673 494.745 617.303 491.368C619.159 491.805 620.816 492.804 622.137 494.847C623.315 496.673 623.855 498.841 623.813 501.012C623.545 514.98 627.119 528.623 631.28 541.901Z" fill="white"/>
<path id="Vector_2" d="M594.532 519.902C594.642 519.627 594.789 519.365 594.973 519.124C595.646 518.206 596.684 517.646 597.579 516.94C601.196 514.115 602.29 508.533 600.012 504.546C599.026 502.81 597.499 501.39 596.732 499.544C596.491 498.975 596.362 498.336 596.358 497.699C596.333 496.273 596.909 494.877 598.204 494.393L602.996 492.592C604.442 492.043 605.959 491.709 607.498 491.614C610.835 491.414 614.314 490.659 617.302 491.368C616.672 494.744 617.634 508.683 618.14 511.978C620.876 529.573 626.575 543.196 630.42 561.562L630.441 561.581C628.736 563.342 626.311 564.309 623.829 563.964C618.704 563.249 616.823 557.809 615.117 553.283C611.653 544.112 606.052 535.753 598.887 529.058C597.458 527.723 595.931 526.413 594.989 524.691C594.191 523.233 593.895 521.391 594.532 519.902Z" fill="#C5CBFF"/>
<path id="Vector_3" d="M600.013 504.547C602.29 508.534 601.197 514.116 597.579 516.941C596.685 517.647 595.647 518.206 594.973 519.124C594.79 519.365 594.642 519.627 594.532 519.902C592.747 519.797 589.204 519.568 587.372 519.409L587.325 519.402C587.776 511.772 587.427 502.243 587.149 496.804L587.314 496.804C589.941 497.178 593.732 497.325 596.359 497.699C596.362 498.336 596.491 498.975 596.733 499.544C597.499 501.391 599.026 502.811 600.013 504.547Z" fill="white"/>
<path id="Vector_4" d="M488.81 484.801C520.55 491.303 554.754 488.338 586.895 492.46C586.895 492.46 587.017 494.144 587.149 496.804C587.427 502.243 587.775 511.772 587.325 519.402C587.189 521.796 586.977 523.998 586.653 525.83L582.334 526.135C565.783 526.622 549.238 527.119 532.694 527.608C518.81 528.02 504.91 528.429 491.052 527.556C487.329 527.316 483.55 526.974 480.057 525.675C474.502 523.618 470.105 519.337 465.915 515.149C453.49 502.721 441.305 490.045 429.372 477.145L411.268 526.001C411.268 526.001 419.734 554.802 422.195 576.815C424.649 598.818 424.561 636.187 424.561 636.187L424.53 636.182C423.188 636.062 421.862 636.046 420.553 636.127C413.112 636.552 406.428 639.939 402.155 642.679C400.112 643.999 398.619 645.162 397.854 645.784C397.649 645.951 397.374 645.951 397.181 645.821C397.072 645.759 396.992 645.653 396.948 645.521C394.79 639.044 384.014 592.582 381.121 584.42C378.026 575.687 374.986 559.118 372.542 550.179C369.386 538.671 367.242 534.522 368.267 522.635C368.928 515.018 370.844 507.581 372.747 500.18C376.921 484.01 381.145 467.265 385.344 450.697C387.569 441.975 389.78 433.291 391.976 424.769L391.984 424.77C392.36 425.115 392.805 425.406 393.24 425.664C399.406 429.388 406.527 431.157 413.53 432.869C423.069 435.203 430.801 436.933 440.526 438.294L440.591 438.28C441.1 440.223 441.633 442.162 442.248 444.081C444.794 452.036 448.639 459.579 453.593 466.297C454.259 467.194 454.956 468.095 455.903 468.678C459.038 470.618 463.008 468.346 465.95 466.124C470.037 463.036 474.124 459.892 478.3 456.895L478.366 456.983C480.38 462.984 482.331 468.709 484.345 474.71C484.776 475.989 485.212 477.285 486.017 478.367C486.929 479.581 488.297 480.515 488.792 481.953C489.113 482.895 489.004 483.83 488.712 484.771L488.81 484.801Z" fill="white"/>
<path id="Vector_5" d="M423.988 303.603L423.918 303.49C427.338 297.91 431.424 293.501 436.66 289.57C438.253 288.374 441.097 286.343 441.318 284.354L441.487 284.378C445.367 289.089 448.977 294.311 452.85 299.021C454.68 301.238 456.535 303.499 457.71 306.119C458.837 308.637 459.277 311.396 459.198 314.159L459.252 314.167C460.98 331.995 465.905 354.036 472.141 370.841L472.038 370.96C475.242 373.797 478.553 376.595 481.152 379.921C488.919 389.846 489.334 401.278 489.765 413.868L489.463 414.226C491.53 415.99 493.535 417.809 495.446 419.731C500.726 425.042 505.453 431.752 505.314 439.238C505.301 439.936 505.236 440.665 504.898 441.277C504.337 442.29 503.153 442.766 502.078 443.194C493.533 446.567 485.78 451.507 478.3 456.895C474.124 459.892 470.037 463.035 465.95 466.124C463.009 468.346 459.038 470.618 455.903 468.678C454.957 468.095 454.26 467.194 453.593 466.297C448.64 459.579 444.794 452.036 442.249 444.081C441.634 442.162 441.1 440.223 440.591 438.28C439.587 434.458 438.69 430.605 437.506 426.829C433.964 415.501 427.991 405.124 422.799 394.45C417.598 383.782 413.016 370.813 412.748 358.954L412.735 358.881C411.273 359.208 410.117 359.436 409.362 359.604C400.901 361.511 392.424 363.416 383.826 364.565C383.562 364.598 383.297 364.639 383.033 364.672C378.648 365.219 374.003 365.437 369.784 364.49C367.202 363.911 364.785 362.89 362.669 361.245C357.977 357.598 355.846 351.651 353.934 346.034C350.04 334.578 346.145 323.129 342.252 311.673C340.767 307.311 339.641 302.412 338.657 297.674C338.425 296.548 338.199 295.431 337.978 294.331C338.81 294.779 339.767 294.963 340.714 294.823C342.519 294.569 345.178 294.162 346.605 293.854C348.894 293.347 351.137 292.055 352.197 289.966L352.284 290.018C357.128 297.176 361.587 304.17 366.438 311.33C368.976 315.087 371.522 318.845 373.869 322.731C374.333 323.497 374.788 324.277 375.244 325.05C376.742 327.613 378.221 330.197 379.841 332.676L379.875 332.657C381.915 331.352 383.969 330.01 386.041 328.655C393.686 323.652 401.521 318.362 409.248 313.222C413.719 310.251 418.151 307.338 422.493 304.553C422.987 304.23 423.488 303.917 423.988 303.603Z" fill="#5AECDE"/>
<path id="Vector_6" d="M437.379 661.466C437.226 669.163 430.354 674.7 425.013 680.25C415.66 689.961 409.141 703.062 397.044 709.026C394.329 710.369 390.981 711.252 388.378 709.718C387.863 709.416 387.407 709.029 387.029 708.59L387.101 708.53C392.212 706.585 396.624 701.657 400.478 697.773C413.546 684.606 428.33 673.185 435.635 654.733L435.752 654.679C436.794 656.801 437.423 659.06 437.379 661.466Z" fill="white"/>
<path id="Vector_7" d="M435.753 654.679L435.635 654.733C428.33 673.185 413.546 684.606 400.478 697.773C396.624 701.657 392.212 706.585 387.101 708.53L387.03 708.59C385.558 706.895 385.055 704.356 385.395 702.078C385.82 699.206 387.32 696.622 388.683 694.057C393.184 685.581 396.487 676.517 399.768 667.498C401.565 662.551 403.312 657.023 403.555 651.673L403.624 651.683C407.278 650.419 412.922 654.061 416.206 652.029C419.119 650.227 418.889 645.164 421.086 643.041C421.513 642.63 422.02 642.333 422.662 642.181C424.767 641.694 426.696 643.384 428.196 644.934C431.026 647.86 433.978 651.078 435.753 654.679Z" fill="#C5CBFF"/>
<path id="Vector_8" d="M421.024 642.977L421.086 643.04C418.889 645.164 419.119 650.227 416.206 652.029C412.922 654.06 407.278 650.419 403.626 651.675L403.556 651.665C403.596 650.61 403.591 649.548 403.497 648.497C403.346 646.519 402.938 644.582 402.195 642.739L402.156 642.678C406.429 639.939 413.113 636.552 420.554 636.127L420.552 636.142C420.661 637.58 420.779 639.46 420.893 641.142C420.941 641.794 420.978 642.42 421.024 642.977Z" fill="white"/>
<path id="Vector_9" d="M434.246 237.438C433.784 236.979 433.387 236.459 433.102 235.868C432.676 234.99 432.533 234.011 432.396 233.04C432.359 232.752 432.314 232.455 432.279 232.151L432.183 232.161C426.855 230.664 427.601 223.499 427.823 221.33C428.193 217.744 428.562 214.157 428.932 210.563L428.995 209.959L428.864 209.94C425.466 208.301 422.653 207.798 420.669 207.712L420.676 207.666C420.124 206.298 420.242 204.586 420.81 203.024C421.33 201.526 422.264 200.158 423.404 199.33C425.734 197.65 428.777 197.25 431.653 197.479C435.382 197.782 439.074 199.235 442.006 201.547L443.304 201.709C446.325 201.133 450.901 202.398 453.307 204.32C455.714 206.235 458.101 208.571 459.829 211.12C460.963 212.815 462.097 214.564 462.95 216.414C464.588 219.973 464.526 224.106 465.594 227.866C466.179 229.937 466.92 231.969 467.82 233.928C469.169 236.871 469.238 237.321 471.627 240.082C473.644 242.421 467.953 241.382 467.953 241.382L465.385 245.175C464.748 246.113 464.168 247.092 463.663 248.105C461.953 251.5 459.128 254.281 456.047 256.546C452.614 259.067 449.135 261.645 445.229 263.352C441.196 265.12 441.215 268.793 440.91 268.679C439.886 268.305 439.06 267.81 438.388 267.235C434.569 263.972 435.857 258.127 436.149 257.021L436.166 256.677C436.853 256.712 437.547 256.638 438.145 256.307C439.069 255.778 439.555 254.739 439.978 253.754C440.641 252.245 441.309 250.643 441.11 249.003C440.903 247.37 439.465 245.766 437.834 246.013C436.886 246.161 436.133 246.864 435.315 247.368C434.489 247.871 433.334 248.139 432.635 247.474C431.79 246.677 432.278 245.293 432.729 244.225C433.692 241.934 434.192 239.914 434.246 237.438Z" fill="#1E222D"/>
<path id="Vector_10" d="M385.817 378.664C383.901 374.398 382.626 369.501 382.579 365.14L382.574 365.068C382.838 365.035 383.103 364.994 383.367 364.961C391.964 363.812 400.441 361.907 408.903 360C409.658 359.832 410.814 359.604 412.275 359.277L412.289 359.35C412.557 371.209 417.139 384.178 422.339 394.846C427.531 405.52 433.504 415.897 437.047 427.225C438.23 431.001 439.128 434.854 440.132 438.676L440.067 438.69C430.342 437.329 422.61 435.599 413.071 433.265C406.068 431.553 398.947 429.784 392.781 426.06C392.346 425.802 391.901 425.51 391.526 425.158C391.179 424.842 390.892 424.479 390.719 424.037C390.456 423.347 390.526 422.579 390.593 421.834C391.843 407.873 390.484 391.92 385.817 378.664Z" fill="#C5CBFF"/>
<path id="Vector_11" d="M441.317 284.354C441.097 286.343 438.253 288.375 436.66 289.57C431.423 293.501 427.337 297.91 423.917 303.491L423.988 303.603C423.487 303.917 422.986 304.23 422.492 304.553C418.15 307.338 413.719 310.252 409.248 313.222L409.184 313.119C409.01 308.378 408.957 302.57 410.489 297.829C410.836 296.723 411.283 295.678 411.828 294.718C414.006 290.91 417.632 288.188 421.164 285.571C424.354 283.204 430.02 278.58 433.218 276.213L436.498 273.765C437.088 273.322 437.466 272.653 437.547 271.918C437.557 271.848 437.559 271.778 437.569 271.709L437.677 271.724C440.224 274.036 441.022 279.306 441.143 280.667C441.238 281.765 441.442 283.256 441.317 284.354Z" fill="#5AECDE"/>
<path id="Vector_12" d="M411.543 225.315L411.332 225.308C410.55 225.669 409.983 226.169 409.781 226.927C409.723 227.17 409.835 227.43 410.054 227.547L410.508 227.785C410.757 227.914 411.069 227.818 411.2 227.561C411.594 226.839 411.968 225.753 411.543 225.315ZM401.735 265.756C398.116 264.407 394.669 261.731 391.255 259.932C389.953 259.252 388.596 258.453 387.96 257.129C387.23 255.578 387.213 253.54 388.155 252.118C390.172 249.049 388.067 245.118 391.224 243.815L391.323 243.727C390.669 243.021 390.333 242.344 390.466 241.962C391.905 237.931 393.01 239.165 394.085 235.648L394.148 235.594C393.923 235.349 393.72 235.116 393.516 234.898C392.614 233.945 391.76 233.21 392.255 231.001C392.926 228 402.764 227.578 404.916 225.047C405.351 224.535 405.855 224.088 406.275 223.566C406.962 222.713 407.393 219.466 409.061 216.033C410.542 212.974 413.003 209.772 417.487 207.974C417.487 207.974 418.645 207.628 420.669 207.712C422.653 207.798 425.466 208.301 428.862 209.948L428.993 209.966C428.974 210.16 428.953 210.362 428.932 210.563C428.562 214.157 428.192 217.744 427.823 221.33C427.6 223.499 426.855 230.663 432.183 232.161L432.279 232.151C432.314 232.455 432.358 232.752 432.396 233.04C432.532 234.011 432.676 234.99 433.101 235.868C433.386 236.459 433.784 236.979 434.245 237.438C434.191 239.914 433.691 241.933 432.728 244.225C432.277 245.293 431.789 246.677 432.635 247.473C433.334 248.139 434.488 247.871 435.314 247.368C436.133 246.863 436.885 246.161 437.834 246.013C439.465 245.766 440.902 247.37 441.11 249.003C441.309 250.642 440.64 252.245 439.977 253.754C439.554 254.739 439.068 255.778 438.144 256.307C437.547 256.638 436.852 256.712 436.166 256.677L436.148 257.021C435.857 258.127 434.569 263.972 438.387 267.235C437.942 268.869 437.734 270.168 437.569 271.709C437.559 271.778 437.557 271.848 437.547 271.918C437.466 272.653 437.088 273.322 436.498 273.765L433.218 276.213C430.02 278.58 424.355 283.204 421.164 285.571C417.632 288.188 414.006 290.91 411.829 294.719C411.283 295.678 410.836 296.723 410.49 297.829L410.324 297.774C408.001 298.473 405.509 298.581 403.134 298.094C402.714 298.01 402.275 297.893 401.972 297.59C401.669 297.288 401.559 296.848 401.461 296.433C400.597 292.789 400.113 288.955 399.974 285.076C399.803 280.98 400.009 276.828 400.522 272.783C400.821 270.412 401.216 268.079 401.711 265.815L401.735 265.756Z" fill="#E7E9FB"/>
<path id="Vector_13" d="M409.184 313.119L409.248 313.222C401.52 318.363 393.685 323.652 386.04 328.655L385.962 328.541C386.814 322.508 388.327 314.424 390.242 308.645C390.476 307.939 390.726 307.236 390.982 306.542C391.809 304.325 392.738 302.162 393.667 299.999C395.444 295.851 398.039 289.225 399.815 285.085L399.974 285.076C400.113 288.955 400.596 292.789 401.461 296.433C401.559 296.848 401.669 297.288 401.972 297.59C402.275 297.893 402.714 298.01 403.134 298.094C405.509 298.582 408 298.473 410.324 297.774L410.489 297.829C408.957 302.57 409.01 308.378 409.184 313.119Z" fill="#C5CBFF"/>
<path id="Vector_14" d="M391.985 424.763L391.978 424.762C389.78 433.291 387.569 441.975 385.344 450.697L385.313 450.693C381.55 448.915 374.132 446.86 370.542 444.753C369.932 444.399 369.318 444.021 368.895 443.458C368.472 442.895 368.281 442.136 368.14 441.417C367.152 436.269 367.765 430.973 367.906 425.734C368.088 418.883 367.452 412.033 367.54 405.184C367.696 391.892 370.407 377.824 369.767 364.551L369.776 364.49C374.003 365.438 378.648 365.219 383.033 364.672L383.038 364.744C383.085 369.105 384.36 374.003 386.276 378.268C390.943 391.524 392.302 407.477 391.052 421.439C390.985 422.184 390.915 422.952 391.178 423.642C391.351 424.083 391.638 424.446 391.985 424.763Z" fill="#5AECDE"/>
<path id="Vector_15" d="M420.668 207.664L420.661 207.711C418.645 207.628 417.487 207.974 417.487 207.974C413.003 209.772 410.542 212.974 409.062 216.025C408.147 212.633 408.31 208.121 410.359 205.269C412.415 202.418 417.437 201.317 420.556 202.933L420.81 203.024C420.241 204.585 420.123 206.298 420.668 207.664Z" fill="#1E222D"/>
<path id="Vector_16" d="M399.973 285.076L399.815 285.085C398.038 289.225 395.444 295.851 393.666 299.999C392.737 302.162 391.808 304.325 390.982 306.542L390.936 306.535C391.147 302.455 389.168 295.932 388.748 291.871C388.336 287.812 388.6 283.425 390.988 280.118C392.601 277.903 394.986 276.113 397.715 274.387C398.579 273.842 399.472 273.309 400.391 272.764L400.522 272.783C400.009 276.828 399.802 280.98 399.973 285.076Z" fill="#5AECDE"/>
<path id="Vector_17" d="M377.282 303.458C367.739 295.025 357.547 281.045 348.404 272.173L348.332 272.187C348.103 271.093 347.9 270.089 347.738 269.241C347.331 267.132 346.91 265.005 345.983 263.073C344.412 259.807 340.649 257.424 337.151 256.486L337.118 256.497C331.781 241.605 323.91 220.488 317.833 203.777L317.866 203.766C319.118 202.813 320.885 201.94 322.71 201.328C324.319 200.787 325.97 200.456 327.353 200.457C329.005 201.108 330.361 202.347 331.182 203.926C336.492 214.153 342.234 224.167 348.384 233.909C350.846 237.812 353.383 241.687 356.464 245.113C359.897 248.934 363.936 252.142 367.961 255.333C376.776 262.311 387.388 269.811 397.683 274.343L397.716 274.387C394.987 276.113 392.602 277.903 390.989 280.118C388.601 283.424 388.337 287.812 388.749 291.871C389.169 295.932 391.148 302.454 390.938 306.527L390.984 306.534C390.727 307.236 390.477 307.939 390.243 308.645C388.327 314.424 386.814 322.508 385.963 328.541L386.041 328.655C383.969 330.01 381.915 331.352 379.875 332.657L379.84 332.676C378.221 330.197 376.742 327.613 375.244 325.05L375.338 325C376.08 319.014 376.643 310.755 377.282 303.458Z" fill="#5AECDE"/>
<path id="Vector_18" d="M341.119 267.976C340.094 264.907 338.719 260.985 337.118 256.497L337.151 256.486C340.649 257.424 344.412 259.808 345.983 263.073C346.91 265.005 347.33 267.132 347.737 269.241C347.899 270.09 348.102 271.093 348.332 272.187C349.776 279.152 352.207 289.952 352.207 289.952C352.207 289.952 352.204 289.957 352.197 289.966C351.137 292.055 348.894 293.347 346.605 293.854C345.178 294.162 342.518 294.569 340.714 294.823C339.766 294.963 338.81 294.78 337.979 294.323C337.774 294.216 337.581 294.086 337.397 293.942C332.736 290.299 328.702 287.885 323.903 285.653C323.71 285.571 323.519 285.481 323.327 285.391C321.889 284.73 320.406 284.047 319.328 282.895C318.243 281.742 317.854 279.51 318.485 278.059L318.546 278.013C317.495 276.676 316.903 274.816 317.137 273.285L317.213 273.194C317.072 273.079 316.94 272.958 316.825 272.824C316.137 272.026 315.979 270.872 316.166 269.838C316.354 268.795 316.93 268.17 317.409 267.232L317.446 267.143C316.781 266.899 316.153 266.558 315.807 265.959C315.314 265.11 315.611 263.966 316.293 263.261C316.68 262.861 317.168 262.584 317.69 262.391C318.088 262.244 318.51 262.154 318.927 262.096C321.693 261.712 324.436 262.708 327.085 263.588C331.49 265.056 336.522 267.086 341.078 267.986L341.119 267.976Z" fill="#E7E9FB"/>
<path id="Vector_19" d="M338.657 297.674L338.642 297.671C337.656 297.806 336.755 297.898 335.939 297.939C330.178 298.219 325.115 289.779 323.88 285.705L323.903 285.653C328.702 287.885 332.736 290.299 337.397 293.942C337.581 294.086 337.774 294.215 337.979 294.323C338.199 295.431 338.425 296.548 338.657 297.674Z" fill="#C161EA"/>
<path id="Vector_20" d="M341.119 267.976L341.078 267.986C336.522 267.086 331.49 265.056 327.085 263.588C324.436 262.707 321.693 261.712 318.927 262.096C318.51 262.154 318.088 262.244 317.69 262.391C310.222 238.73 301.132 210.17 297.823 198.75L297.781 198.657C298.245 198.433 298.668 198.116 299.001 197.707C300.211 196.221 299.717 193.565 297.915 192.915L297.761 192.783C298.061 192.441 298.299 192.042 298.455 191.609C298.863 190.457 297.948 188.715 297.232 187.725L297.153 187.674C297.454 187.214 297.645 186.699 297.669 186.144C297.714 184.948 295.88 183.146 294.685 183.039L294.621 182.991C295.395 182.024 295.671 180.586 294.824 179.687L294.816 179.686C294.751 179.645 294.695 179.598 294.63 179.557L294.67 179.5C327.334 165.989 334.612 132.222 334.612 132.222C334.612 132.222 346.134 92.9918 325.82 54.1161C305.505 15.2482 264.383 9.67384 264.383 9.67384C256.696 8.46103 248.854 8.22438 241.107 8.97588C241.107 8.97588 238.205 9.42716 233.747 10.82C239.616 8.84995 248.929 5.43693 269.127 5.83024C269.127 5.83024 303.361 5.8568 325.43 32.4068C347.5 58.9568 351.672 95.8793 351.672 95.8793C351.672 95.8793 354.3 148.561 308.234 177.636L308.232 177.651C307.563 177.658 306.908 177.73 306.273 177.938C305.191 178.311 304.212 179.224 304.119 180.374C304.028 181.509 304.851 182.569 305.862 183.091C306.88 183.613 308.053 183.709 309.2 183.77L310.909 184.187C312.512 188.989 314.979 195.896 317.841 203.778C323.918 220.489 331.788 241.606 337.126 256.498C338.727 260.986 340.102 264.907 341.126 267.977L341.119 267.976Z" fill="#C161EA"/>
<path id="Vector_21" d="M283.175 176.936C285.172 176.819 286.344 176.703 286.353 176.697C294.109 175.16 298.14 173.4 303.173 168.969L309.972 162.95C343.217 128.205 337.032 85.7615 321.321 58.7181C306.198 32.678 278.4 11.309 251.598 12.7969C250.576 12.8556 249.549 12.9452 248.533 13.0678C220.8 16.4587 209.777 32.3767 209.777 32.3767C197.1 47.0531 189.628 65.7955 187.819 86.1622C186.916 96.2591 189.048 114.287 195.067 128.482C197.15 133.393 200.459 142.109 212.931 154.755C221.914 163.863 232.516 168.95 244.588 173.2C257.837 177.854 275.921 177.372 283.167 176.934L283.175 176.936ZM325.82 54.1164C346.134 92.992 334.612 132.222 334.612 132.222C334.612 132.222 327.334 165.989 294.67 179.5L294.63 179.558C293.833 179.027 292.893 178.729 291.945 178.821C291.291 178.885 290.652 179.069 290.067 179.371C289.337 179.747 288.668 180.359 288.53 181.164C288.458 181.563 288.536 181.951 288.704 182.313C220.827 192.908 197.334 144.462 191.509 128.958C185.685 113.454 178.138 85.4828 190.495 50.2151C199.449 24.657 222.009 14.4851 233.747 10.8202C238.205 9.42738 241.107 8.9761 241.107 8.9761C248.854 8.2246 256.696 8.46125 264.383 9.67406C264.383 9.67406 305.505 15.2484 325.82 54.1164Z" fill="#C161EA"/>
<path id="Vector_22" d="M322.682 201.238L322.709 201.328C320.885 201.94 319.118 202.813 317.866 203.766L317.833 203.777C314.97 195.895 312.504 188.988 310.901 184.186L309.191 183.769C308.045 183.708 306.872 183.612 305.853 183.09C304.843 182.568 304.02 181.508 304.11 180.373C304.203 179.223 305.182 178.31 306.265 177.937C306.9 177.729 307.555 177.657 308.224 177.65C308.712 177.641 309.195 177.671 309.679 177.7C311.519 177.805 313.381 177.921 315.154 178.441C316.926 178.968 318.617 179.948 319.657 181.479C320.834 183.203 321.032 185.401 321.04 187.493C321.059 190.121 323.129 198.653 322.682 201.238Z" fill="#E7E9FB"/>
<path id="Vector_23" d="M297.916 192.916C299.717 193.565 300.211 196.221 299.002 197.708C298.668 198.116 298.246 198.433 297.782 198.658C296.55 199.245 294.986 199.195 293.748 198.555C293.346 198.348 292.952 198.08 292.692 197.697C292.029 196.722 292.686 194.702 293.699 194.099L293.711 194.014C293.711 194.014 293.764 194.03 293.787 194.033C294.468 194.162 295.183 194.169 295.852 193.997C296.595 193.796 297.262 193.365 297.762 192.784L297.916 192.916Z" fill="#E7E9FB"/>
<path id="Vector_24" d="M297.231 187.725C297.947 188.715 298.862 190.457 298.454 191.609C298.298 192.043 298.061 192.441 297.761 192.783C297.261 193.365 296.595 193.796 295.851 193.997C295.182 194.169 294.468 194.161 293.786 194.033C293.763 194.03 293.74 194.026 293.718 194.015C292.8 193.837 291.88 193.4 291.363 192.619C290.833 191.812 291.191 190.071 291.938 189.462L291.955 189.339C292.024 189.357 292.101 189.368 292.17 189.378C293.356 189.547 294.615 189.482 295.681 188.95C296.266 188.656 296.785 188.211 297.152 187.674L297.231 187.725Z" fill="#E7E9FB"/>
<path id="Vector_25" d="M297.669 186.145C297.645 186.699 297.454 187.214 297.153 187.674C296.785 188.212 296.266 188.656 295.682 188.95C294.616 189.482 293.357 189.547 292.171 189.378C292.101 189.368 292.024 189.357 291.956 189.339C290.462 189.071 288.852 188.064 289.009 186.577C289.105 185.624 290.183 184.677 290.937 184.077C291.998 184.354 293.173 184.215 294.044 183.561C294.256 183.403 294.448 183.21 294.621 182.991L294.685 183.039C295.88 183.147 297.714 184.948 297.669 186.145Z" fill="#E7E9FB"/>
<path id="Vector_26" d="M294.824 179.687C295.671 180.586 295.395 182.024 294.621 182.991C294.448 183.21 294.256 183.403 294.045 183.561C293.173 184.215 291.998 184.354 290.938 184.07C290.582 183.98 290.248 183.838 289.937 183.652C289.416 183.334 288.949 182.859 288.705 182.313C288.536 181.951 288.458 181.563 288.53 181.165C288.669 180.359 289.337 179.747 290.067 179.371C290.652 179.07 291.291 178.886 291.945 178.821C292.894 178.729 293.834 179.028 294.631 179.558C294.695 179.598 294.752 179.646 294.817 179.686L294.824 179.687Z" fill="#E7E9FB"/>
<path id="Vector_27" d="M283.167 176.934C275.921 177.372 257.838 177.854 244.589 173.2C232.516 168.949 221.915 163.863 212.931 154.755C200.459 142.109 197.15 133.392 195.067 128.482C189.048 114.286 186.916 96.2588 187.819 86.1619C189.628 65.7953 197.1 47.0528 209.777 32.3765C209.777 32.3765 220.8 16.4585 248.533 13.0675C249.549 12.945 250.576 12.8554 251.598 12.7967L251.594 12.8275C234.425 16.9293 219.552 28.259 210.913 43.6599C210.913 43.6599 185.226 89.636 217.769 138.286C217.769 138.286 236.006 168.063 283.167 176.934Z" fill="#1E222D"/>
</g>
<g id="Group_3">
<path id="Vector_28" d="M412.724 220.618C414.307 221.362 415.907 222.109 417.305 223.165C418.704 224.213 419.904 225.61 420.428 227.28" stroke="#1E222D" stroke-width="2.5" stroke-miterlimit="10" stroke-linecap="round"/>
<path id="Vector_29" d="M409.062 216.025C410.542 212.974 413.003 209.772 417.487 207.974C417.487 207.974 418.645 207.628 420.669 207.712C422.653 207.798 425.466 208.301 428.862 209.948" stroke="#1E222D" stroke-width="2.5" stroke-miterlimit="10" stroke-linecap="round"/>
<path id="Vector_30" d="M399.948 236.42C399.15 238.987 397.408 237.976 396.349 237.464C395.548 237.074 394.808 236.309 394.147 235.594C393.923 235.35 393.72 235.116 393.516 234.899C392.614 233.945 391.76 233.21 392.255 231.001C392.926 228 402.764 227.578 404.916 225.047C405.351 224.535 405.855 224.088 406.275 223.567C406.962 222.713 407.393 219.466 409.061 216.033" stroke="#1E222D" stroke-width="2.5" stroke-miterlimit="10" stroke-linecap="round"/>
<path id="Vector_31" d="M394.085 235.648C393.01 239.165 391.904 237.931 390.466 241.962C390.333 242.344 390.669 243.021 391.322 243.727C392.63 245.139 395.214 246.702 397.823 246.374" stroke="#1E222D" stroke-width="2.5" stroke-miterlimit="10" stroke-linecap="round"/>
<path id="Vector_32" d="M391.224 243.815C388.067 245.118 390.172 249.049 388.155 252.118C387.213 253.54 387.23 255.578 387.96 257.128C388.596 258.453 389.953 259.251 391.255 259.932C394.669 261.731 398.116 264.407 401.735 265.756C403.556 266.439 405.416 266.791 407.34 266.522C418.358 264.987 420.479 261.524 421.862 260.032" stroke="#1E222D" stroke-width="2.5" stroke-miterlimit="10" stroke-linecap="round"/>
<path id="Vector_33" d="M401.711 265.815C401.216 268.079 400.821 270.412 400.523 272.783C400.009 276.828 399.803 280.98 399.974 285.076C400.113 288.955 400.597 292.789 401.461 296.433C401.559 296.848 401.669 297.288 401.972 297.59C402.275 297.893 402.714 298.01 403.134 298.094C405.509 298.581 408.001 298.473 410.325 297.774" stroke="#1E222D" stroke-width="2.5" stroke-miterlimit="10" stroke-linecap="round"/>
<path id="Vector_34" d="M400.391 272.764C399.472 273.309 398.579 273.842 397.715 274.387C394.986 276.113 392.601 277.903 390.988 280.118C388.6 283.424 388.336 287.812 388.748 291.871C389.168 295.932 391.147 302.454 390.937 306.527" stroke="#1E222D" stroke-width="2.5" stroke-miterlimit="10" stroke-linecap="round"/>
<path id="Vector_35" d="M322.682 201.238C323.129 198.653 321.059 190.121 321.04 187.493C321.032 185.401 320.834 183.203 319.657 181.479C318.617 179.948 316.926 178.968 315.154 178.441C313.381 177.921 311.519 177.805 309.679 177.7C309.195 177.671 308.712 177.641 308.224 177.65C307.555 177.657 306.9 177.729 306.265 177.937C305.182 178.31 304.203 179.223 304.11 180.373C304.02 181.508 304.843 182.568 305.853 183.09C306.872 183.612 308.045 183.708 309.191 183.769L310.901 184.186C312.504 188.988 314.97 195.895 317.833 203.777C323.91 220.488 331.78 241.605 337.118 256.497C338.718 260.985 340.093 264.906 341.118 267.976C341.117 267.984 341.125 267.985 341.124 267.993" stroke="#1E222D" stroke-width="2.5" stroke-miterlimit="10" stroke-linecap="round"/>
<path id="Vector_36" d="M294.631 179.557C294.695 179.598 294.752 179.645 294.817 179.686L294.824 179.687C295.671 180.586 295.395 182.024 294.621 182.991C294.448 183.21 294.256 183.402 294.045 183.561C293.173 184.215 291.998 184.354 290.938 184.07C290.582 183.98 290.248 183.838 289.937 183.652C289.416 183.334 288.949 182.859 288.705 182.313C288.536 181.951 288.458 181.563 288.53 181.164C288.669 180.359 289.337 179.747 290.067 179.371C290.652 179.069 291.291 178.885 291.945 178.821C292.894 178.728 293.834 179.027 294.631 179.557Z" stroke="#1E222D" stroke-width="2.5" stroke-miterlimit="10" stroke-linecap="round"/>
<path id="Vector_37" d="M290.936 184.078C290.183 184.678 289.105 185.624 289.008 186.577C288.852 188.064 290.461 189.072 291.955 189.339C292.024 189.357 292.101 189.368 292.17 189.378C293.356 189.547 294.615 189.483 295.681 188.951C296.266 188.657 296.785 188.212 297.152 187.675C297.453 187.214 297.645 186.699 297.669 186.145C297.713 184.949 295.879 183.147 294.684 183.039" stroke="#1E222D" stroke-width="2.5" stroke-miterlimit="10" stroke-linecap="round"/>
<path id="Vector_38" d="M291.938 189.463C291.191 190.071 290.833 191.812 291.363 192.619C291.881 193.4 292.801 193.838 293.719 194.015C293.741 194.026 293.764 194.03 293.787 194.033C294.468 194.161 295.182 194.169 295.851 193.997C296.595 193.796 297.262 193.365 297.761 192.783C298.061 192.441 298.299 192.043 298.455 191.609C298.863 190.457 297.948 188.715 297.232 187.725" stroke="#1E222D" stroke-width="2.5" stroke-miterlimit="10" stroke-linecap="round"/>
<path id="Vector_39" d="M293.699 194.099C292.686 194.701 292.029 196.722 292.691 197.697C292.951 198.08 293.345 198.348 293.748 198.555C294.985 199.195 296.55 199.245 297.781 198.658C298.246 198.433 298.668 198.116 299.001 197.707C300.211 196.221 299.717 193.565 297.915 192.915" stroke="#1E222D" stroke-width="2.5" stroke-miterlimit="10" stroke-linecap="round"/>
<path id="Vector_40" d="M341.078 267.986C336.522 267.086 331.49 265.056 327.085 263.588C324.436 262.708 321.693 261.712 318.927 262.096C318.51 262.154 318.088 262.244 317.69 262.391C317.167 262.584 316.68 262.861 316.293 263.261C315.611 263.966 315.314 265.11 315.806 265.959C316.153 266.558 316.781 266.899 317.445 267.143C317.639 267.218 317.827 267.276 318.016 267.334C320.242 268.037 322.516 268.628 324.806 269.103" stroke="#1E222D" stroke-width="2.5" stroke-miterlimit="10" stroke-linecap="round"/>
<path id="Vector_41" d="M317.409 267.232C316.93 268.17 316.353 268.795 316.165 269.838C315.979 270.872 316.137 272.026 316.825 272.824C316.939 272.958 317.071 273.079 317.212 273.194C317.755 273.632 318.457 273.89 319.132 274.119C320.855 274.711 322.624 275.206 324.408 275.594" stroke="#1E222D" stroke-width="2.5" stroke-miterlimit="10" stroke-linecap="round"/>
<path id="Vector_42" d="M317.136 273.285C316.902 274.816 317.494 276.676 318.545 278.013C319.369 279.073 320.482 279.813 321.699 279.822" stroke="#1E222D" stroke-width="2.5" stroke-miterlimit="10" stroke-linecap="round"/>
<path id="Vector_43" d="M318.484 278.059C317.853 279.51 318.243 281.742 319.328 282.895C320.406 284.047 321.889 284.73 323.327 285.39C323.519 285.481 323.71 285.571 323.903 285.653C328.702 287.885 332.736 290.299 337.397 293.942C337.58 294.086 337.774 294.215 337.979 294.323C338.81 294.78 339.766 294.963 340.714 294.823C342.518 294.569 345.178 294.162 346.605 293.854C348.894 293.347 351.137 292.055 352.197 289.966C352.197 289.966 352.2 289.961 352.207 289.952C352.207 289.952 349.776 279.152 348.331 272.187C348.102 271.093 347.899 270.09 347.737 269.241C347.33 267.132 346.91 265.005 345.983 263.073C344.412 259.807 340.649 257.424 337.151 256.486" stroke="#1E222D" stroke-width="2.5" stroke-miterlimit="10" stroke-linecap="round"/>
<path id="Vector_44" d="M348.404 272.174C357.547 281.045 367.739 295.025 377.282 303.458C377.281 303.466 377.281 303.466 377.281 303.466" stroke="#1E222D" stroke-width="2.5" stroke-miterlimit="10" stroke-linecap="round"/>
<path id="Vector_45" d="M378.11 295.269C377.812 297.694 377.538 300.5 377.282 303.458C376.643 310.756 376.08 319.015 375.337 325" stroke="#1E222D" stroke-width="2.5" stroke-miterlimit="10" stroke-linecap="round"/>
<path id="Vector_46" d="M337.978 294.331C338.198 295.431 338.424 296.548 338.657 297.674C339.64 302.412 340.766 307.312 342.251 311.673C346.145 323.129 350.04 334.578 353.933 346.034C355.845 351.651 357.977 357.598 362.668 361.245C364.784 362.89 367.201 363.911 369.783 364.491C374.002 365.437 378.647 365.219 383.032 364.672C383.296 364.639 383.562 364.598 383.826 364.565C392.423 363.416 400.9 361.511 409.362 359.604C410.116 359.436 411.273 359.208 412.734 358.881C418.73 357.566 429.936 354.604 440.412 347.104" stroke="#1E222D" stroke-width="2.5" stroke-miterlimit="10" stroke-linecap="round"/>
<path id="Vector_47" d="M352.284 290.018C357.128 297.176 361.587 304.17 366.438 311.33C368.976 315.087 371.522 318.845 373.869 322.732C374.333 323.497 374.788 324.277 375.244 325.05C376.742 327.613 378.221 330.197 379.84 332.676C379.866 332.719 379.891 332.762 379.917 332.797C381.364 335 382.933 337.117 384.732 339.055" stroke="#1E222D" stroke-width="2.5" stroke-miterlimit="10" stroke-linecap="round"/>
<path id="Vector_48" d="M379.934 332.729C379.934 332.729 379.928 332.775 379.925 332.798C379.451 334.798 378.929 336.972 378.732 339.018" stroke="#1E222D" stroke-width="2.5" stroke-miterlimit="10" stroke-linecap="round"/>
<path id="Vector_49" d="M379.874 332.658C381.915 331.353 383.969 330.01 386.04 328.655C393.685 323.652 401.52 318.363 409.248 313.223C413.719 310.252 418.15 307.338 422.492 304.553C422.986 304.231 423.487 303.917 423.987 303.603C426.883 301.76 429.836 300.011 433.059 298.851C436.835 297.502 441.06 297.028 444.851 298.338" stroke="#1E222D" stroke-width="2.5" stroke-miterlimit="10" stroke-linecap="round"/>
<path id="Vector_50" d="M441.486 284.379C445.366 289.089 448.977 294.311 452.849 299.021C454.679 301.239 456.534 303.499 457.709 306.119C458.836 308.637 459.276 311.396 459.197 314.159C459.132 316.327 458.742 318.512 458.101 320.582C456.652 325.296 454.004 329.54 451.138 333.549" stroke="#1E222D" stroke-width="2.5" stroke-miterlimit="10" stroke-linecap="round"/>
<path id="Vector_51" d="M399.816 285.085C398.039 289.226 395.445 295.851 393.667 300C392.738 302.162 391.809 304.325 390.983 306.542C390.726 307.236 390.477 307.939 390.243 308.645C388.327 314.424 386.814 322.509 385.963 328.542" stroke="#1E222D" stroke-width="2.5" stroke-miterlimit="10" stroke-linecap="round"/>
<path id="Vector_52" d="M409.184 313.119C409.01 308.379 408.957 302.571 410.489 297.829C410.835 296.723 411.283 295.679 411.828 294.719C414.006 290.91 417.631 288.189 421.164 285.571C424.354 283.204 430.02 278.58 433.218 276.214L436.498 273.765C437.088 273.322 437.466 272.653 437.547 271.918C437.557 271.849 437.559 271.778 437.569 271.709C437.734 270.168 437.942 268.87 438.387 267.235" stroke="#1E222D" stroke-width="2.5" stroke-miterlimit="10" stroke-linecap="round"/>
<path id="Vector_53" d="M437.677 271.724C440.224 274.036 441.022 279.306 441.142 280.667C441.237 281.765 441.442 283.256 441.317 284.354C441.096 286.343 438.252 288.374 436.66 289.57C431.423 293.501 427.337 297.91 423.917 303.49" stroke="#1E222D" stroke-width="2.5" stroke-miterlimit="10" stroke-linecap="round"/>
<path id="Vector_54" d="M383.038 364.744C383.085 369.105 384.36 374.002 386.276 378.268C386.87 379.61 387.543 380.901 388.256 382.079C391.226 386.998 395.04 391.345 398.844 395.644" stroke="#1E222D" stroke-width="2.5" stroke-miterlimit="10" stroke-linecap="round"/>
<path id="Vector_55" d="M386.142 377.888C386.187 378.012 386.232 378.136 386.276 378.268C390.943 391.525 392.302 407.477 391.052 421.439C390.985 422.184 390.915 422.952 391.179 423.642C391.351 424.083 391.638 424.446 391.986 424.763C392.36 425.115 392.806 425.406 393.24 425.665C399.407 429.388 406.527 431.157 413.53 432.87C423.07 435.203 430.801 436.933 440.526 438.295" stroke="#1E222D" stroke-width="2.5" stroke-miterlimit="10" stroke-linecap="round"/>
<path id="Vector_56" d="M369.767 364.552C370.407 377.824 367.696 391.892 367.54 405.184C367.452 412.033 368.088 418.883 367.906 425.735C367.765 430.973 367.152 436.269 368.14 441.417C368.281 442.137 368.459 442.877 368.895 443.458C369.331 444.039 369.932 444.399 370.541 444.754C374.132 446.861 381.55 448.915 385.313 450.693" stroke="#1E222D" stroke-width="2.5" stroke-miterlimit="10" stroke-linecap="round"/>
<path id="Vector_57" d="M412.747 358.954C413.015 370.813 417.597 383.782 422.798 394.45C427.99 405.125 433.963 415.501 437.505 426.829C438.689 430.605 439.586 434.459 440.59 438.28C441.099 440.223 441.633 442.162 442.248 444.081C444.793 452.036 448.639 459.579 453.593 466.297C454.259 467.194 454.956 468.095 455.902 468.678C459.037 470.618 463.008 468.346 465.949 466.124C470.036 463.035 474.123 459.892 478.299 456.895C485.779 451.507 493.533 446.568 502.077 443.194C503.152 442.766 504.336 442.29 504.897 441.277C505.236 440.665 505.3 439.936 505.313 439.238C505.452 431.752 500.725 425.042 495.445 419.731C493.534 417.809 491.529 415.99 489.462 414.226C486.538 411.743 483.503 409.377 480.468 407.011C474.256 402.173 468.045 397.334 461.834 392.488" stroke="#1E222D" stroke-width="2.5" stroke-miterlimit="10" stroke-linecap="round"/>
<path id="Vector_58" d="M459.252 314.159C460.979 331.996 465.904 354.037 472.141 370.841" stroke="#1E222D" stroke-width="2.5" stroke-miterlimit="10" stroke-linecap="round"/>
<path id="Vector_59" d="M461.717 358.164C463.734 363.371 467.794 367.203 472.038 370.96C475.241 373.797 478.552 376.596 481.152 379.921C488.919 389.846 489.334 401.278 489.765 413.868" stroke="#1E222D" stroke-width="2.5" stroke-miterlimit="10" stroke-linecap="round"/>
<path id="Vector_60" d="M391.976 424.769C389.78 433.291 387.569 441.975 385.344 450.697C381.145 467.265 376.921 484.01 372.747 500.18C370.844 507.581 368.928 515.018 368.267 522.635C367.242 534.522 369.386 538.671 372.542 550.179C374.986 559.118 378.026 575.687 381.121 584.42C384.014 592.582 394.79 639.044 396.948 645.521C396.992 645.653 397.072 645.759 397.181 645.821C397.374 645.951 397.649 645.951 397.854 645.784C398.619 645.162 400.112 643.999 402.155 642.679C406.428 639.939 413.112 636.552 420.553 636.127C421.862 636.046 423.188 636.062 424.53 636.182L424.561 636.187C424.561 636.187 424.649 598.818 422.195 576.815C419.734 554.802 411.268 526.001 411.268 526.001L429.372 477.145L429.376 477.121" stroke="#1E222D" stroke-width="2.5" stroke-miterlimit="10" stroke-linecap="round"/>
<path id="Vector_61" d="M478.365 456.983C480.379 462.984 482.331 468.709 484.345 474.71C484.775 475.989 485.212 477.285 486.017 478.367C486.928 479.581 488.297 480.515 488.791 481.953C489.113 482.895 489.003 483.83 488.712 484.771C488.141 486.686 486.826 488.629 486.915 490.654" stroke="#1E222D" stroke-width="2.5" stroke-miterlimit="10" stroke-linecap="round"/>
<path id="Vector_62" d="M488.811 484.801C490.374 487.287 492.176 490.641 493.74 493.127" stroke="#1E222D" stroke-width="2.5" stroke-miterlimit="10" stroke-linecap="round"/>
<path id="Vector_63" d="M488.81 484.801C520.55 491.303 554.753 488.338 586.894 492.46C586.894 492.46 587.016 494.144 587.148 496.804C587.427 502.243 587.775 511.772 587.325 519.402C587.188 521.796 586.977 523.998 586.653 525.83L582.334 526.135C565.782 526.622 549.237 527.119 532.694 527.608C518.809 528.02 504.91 528.429 491.052 527.556C487.329 527.316 483.55 526.974 480.056 525.675C474.502 523.619 470.105 519.337 465.915 515.149C453.49 502.721 441.305 490.045 429.372 477.145C425.845 473.325 422.344 469.486 418.86 465.634" stroke="#1E222D" stroke-width="2.5" stroke-miterlimit="10" stroke-linecap="round"/>
<path id="Vector_64" d="M397.171 645.781C397.171 645.781 397.168 645.804 397.181 645.821C397.548 646.943 401.375 648.329 403.425 648.503" stroke="#1E222D" stroke-width="2.5" stroke-miterlimit="10" stroke-linecap="round"/>
<path id="Vector_65" d="M424.549 636.271C424.533 636.324 424.525 636.378 424.509 636.439C424.285 637.35 423.705 639.327 421.018 641.137" stroke="#1E222D" stroke-width="2.5" stroke-miterlimit="10" stroke-linecap="round"/>
<path id="Vector_66" d="M402.194 642.739C402.938 644.582 403.346 646.519 403.496 648.497C403.59 649.548 403.596 650.61 403.555 651.673C403.312 657.023 401.565 662.551 399.768 667.498C396.487 676.517 393.184 685.581 388.683 694.057C387.32 696.622 385.82 699.206 385.395 702.078C385.055 704.356 385.558 706.895 387.03 708.59C387.407 709.029 387.863 709.416 388.378 709.718C390.981 711.252 394.33 710.369 397.044 709.026C409.141 703.063 415.66 689.961 425.013 680.25C430.354 674.7 437.227 669.163 437.38 661.466C437.424 659.06 436.795 656.801 435.753 654.679C433.978 651.078 431.026 647.86 428.196 644.934C426.696 643.384 424.767 641.694 422.662 642.181C422.02 642.333 421.513 642.63 421.086 643.041C418.889 645.164 419.119 650.227 416.206 652.029C412.922 654.061 407.278 650.419 403.625 651.675" stroke="#1E222D" stroke-width="2.5" stroke-miterlimit="10" stroke-linecap="round"/>
<path id="Vector_67" d="M587.313 496.804C589.94 497.178 593.731 497.325 596.358 497.699" stroke="#1E222D" stroke-width="2.5" stroke-miterlimit="10" stroke-linecap="round"/>
<path id="Vector_68" d="M587.372 519.409C589.204 519.568 592.748 519.797 594.533 519.902L594.571 519.908" stroke="#1E222D" stroke-width="2.5" stroke-miterlimit="10" stroke-linecap="round"/>
<path id="Vector_69" d="M596.358 497.699C596.333 496.273 596.909 494.877 598.204 494.394L602.996 492.592C604.442 492.044 605.959 491.71 607.498 491.614C610.835 491.414 614.314 490.66 617.302 491.368C619.158 491.805 620.816 492.804 622.136 494.847C623.314 496.673 623.854 498.841 623.812 501.012C623.544 514.98 627.118 528.623 631.279 541.901C633.118 547.752 635.096 554.007 631.765 559.844C631.399 560.483 630.955 561.065 630.441 561.581C628.736 563.342 626.311 564.309 623.829 563.964C618.704 563.25 616.823 557.81 615.117 553.283C611.653 544.112 606.052 535.754 598.887 529.058C597.458 527.723 595.931 526.413 594.989 524.691C594.191 523.233 593.895 521.391 594.532 519.902C594.642 519.627 594.789 519.365 594.973 519.124C595.646 518.206 596.684 517.646 597.579 516.941C601.196 514.115 602.29 508.534 600.012 504.547C599.026 502.81 597.499 501.39 596.732 499.544C596.491 498.975 596.362 498.336 596.358 497.699Z" stroke="#1E222D" stroke-width="2.5" stroke-miterlimit="10" stroke-linecap="round"/>
<path id="Vector_70" d="M283.167 176.934C275.921 177.372 257.838 177.854 244.589 173.2C232.516 168.95 221.915 163.863 212.931 154.755C200.459 142.109 197.15 133.393 195.067 128.482C189.048 114.287 186.916 96.2591 187.82 86.1621C189.628 65.7955 197.1 47.053 209.778 32.3767C209.778 32.3767 220.801 16.4587 248.534 13.0678C249.549 12.9452 250.576 12.8556 251.598 12.7969C278.4 11.309 306.198 32.678 321.321 58.7181C337.033 85.7615 343.217 128.205 309.973 162.95L303.173 168.969C298.141 173.4 294.109 175.16 286.353 176.696C286.344 176.703 285.172 176.819 283.175 176.935" stroke="#1E222D" stroke-width="2.5" stroke-miterlimit="10" stroke-linecap="round"/>
<path id="Vector_71" d="M251.601 12.8287C234.425 16.9295 219.551 28.2592 210.913 43.6601C210.913 43.6601 185.226 89.6361 217.768 138.286C217.768 138.286 236.006 168.063 283.167 176.934L283.174 176.935C283.236 176.944 283.289 176.96 283.351 176.968" stroke="#1E222D" stroke-width="2.5" stroke-miterlimit="10" stroke-linecap="round"/>
<path id="Vector_72" d="M288.696 182.32C220.819 192.907 197.326 144.461 191.501 128.957C185.677 113.453 178.131 85.4816 190.487 50.2139C199.448 24.6569 222.009 14.485 233.747 10.8201C238.205 9.42726 241.107 8.97598 241.107 8.97598C248.854 8.22448 256.695 8.46113 264.383 9.67394C264.383 9.67394 305.505 15.2483 325.82 54.1163C346.134 92.9919 334.612 132.222 334.612 132.222C334.612 132.222 327.334 165.989 294.67 179.5" stroke="#1E222D" stroke-width="2.5" stroke-miterlimit="10" stroke-linecap="round"/>
<path id="Vector_73" d="M233.74 10.8113C239.608 8.84897 248.921 5.43596 269.119 5.82926C269.119 5.82926 303.353 5.85583 325.422 32.4058C347.492 58.9559 351.664 95.8783 351.664 95.8783C351.664 95.8783 354.292 148.56 308.226 177.635" stroke="#1E222D" stroke-width="2.5" stroke-miterlimit="10" stroke-linecap="round"/>
<path id="Vector_74" d="M323.88 285.705C325.115 289.78 330.177 298.219 335.939 297.939C336.755 297.898 337.656 297.806 338.641 297.679" stroke="#1E222D" stroke-width="2.5" stroke-miterlimit="10" stroke-linecap="round"/>
<path id="Vector_75" d="M297.823 198.75C301.133 210.17 310.222 238.73 317.691 262.391C317.698 262.392 317.695 262.416 317.702 262.424" stroke="#1E222D" stroke-width="2.5" stroke-miterlimit="10" stroke-linecap="round"/>
<path id="Vector_76" d="M317.866 203.766C319.118 202.813 320.885 201.941 322.709 201.328C324.319 200.787 325.969 200.456 327.353 200.457C329.005 201.109 330.361 202.347 331.181 203.926C336.492 214.154 342.234 224.167 348.384 233.909C350.846 237.813 353.383 241.687 356.463 245.113C359.896 248.934 363.935 252.143 367.961 255.333C376.776 262.311 387.387 269.811 397.683 274.343" stroke="#1E222D" stroke-width="2.5" stroke-miterlimit="10" stroke-linecap="round"/>
<path id="Vector_77" d="M420.551 636.142C420.66 637.581 420.778 639.46 420.892 641.143C420.94 641.794 420.977 642.42 421.023 642.977" stroke="#1E222D" stroke-width="2.5" stroke-miterlimit="10" stroke-linecap="round"/>
<path id="Vector_78" d="M411.543 225.315C413.367 226.141 415.21 229.036 415.182 231.217" stroke="#1E222D" stroke-width="2.5" stroke-miterlimit="10" stroke-linecap="round"/>
<path id="Vector_79" d="M411.543 225.315C411.968 225.753 411.593 226.839 411.2 227.561C411.069 227.817 410.756 227.914 410.508 227.785L410.054 227.547C409.835 227.43 409.723 227.17 409.781 226.927C409.983 226.169 410.55 225.669 411.332 225.308C411.332 225.308 411.522 225.296 411.543 225.315Z" stroke="#1E222D" stroke-width="2.5" stroke-miterlimit="10" stroke-linecap="round"/>
<path id="Vector_80" d="M387.101 708.53C392.212 706.586 396.624 701.657 400.478 697.773C413.546 684.606 428.33 673.185 435.635 654.734" stroke="#1E222D" stroke-width="2.5" stroke-miterlimit="10" stroke-linecap="round"/>
<path id="Vector_81" d="M617.31 491.314L617.302 491.368C616.672 494.745 617.634 508.683 618.14 511.978C620.876 529.573 626.575 543.196 630.42 561.562" stroke="#1E222D" stroke-width="2.5" stroke-miterlimit="10" stroke-linecap="round"/>
<path id="Vector_82" d="M420.667 207.664C420.123 206.298 420.241 204.586 420.81 203.024C421.33 201.526 422.263 200.158 423.403 199.33C425.733 197.649 428.777 197.25 431.652 197.479C435.382 197.782 439.073 199.235 442.006 201.547C444.642 203.62 446.668 206.393 447.532 209.652" stroke="#1E222D" stroke-width="2.5" stroke-miterlimit="10" stroke-linecap="round"/>
<path id="Vector_83" d="M434.245 237.438C434.191 239.914 433.691 241.934 432.728 244.225C432.277 245.293 431.789 246.677 432.635 247.474C433.334 248.139 434.488 247.871 435.314 247.368C436.133 246.864 436.885 246.161 437.833 246.013C439.464 245.766 440.902 247.37 441.11 249.003C441.308 250.643 440.64 252.245 439.977 253.754C439.554 254.739 439.068 255.778 438.144 256.307C437.546 256.638 436.852 256.712 436.165 256.677C435.954 256.671 435.736 256.655 435.528 256.626C434.733 256.521 433.02 255.86 432.54 255.202" stroke="#1E222D" stroke-width="2.5" stroke-miterlimit="10" stroke-linecap="round"/>
<path id="Vector_84" d="M409.061 216.033C408.147 212.633 408.31 208.121 410.359 205.269C412.415 202.418 417.437 201.317 420.556 202.933" stroke="#1E222D" stroke-width="2.5" stroke-miterlimit="10" stroke-linecap="round"/>
<path id="Vector_85" d="M432.183 232.161C426.855 230.663 427.601 223.499 427.823 221.33C428.192 217.744 428.562 214.157 428.932 210.563L428.995 209.959C429.076 209.059 429.095 208.15 428.847 207.297C428.542 206.239 427.715 205.257 426.619 205.117" stroke="#1E222D" stroke-width="2.5" stroke-miterlimit="10" stroke-linecap="round"/>
<path id="Vector_86" d="M432.654 227.583C432.082 229.561 432.135 230.952 432.279 232.151C432.314 232.455 432.358 232.752 432.396 233.04C432.532 234.011 432.676 234.99 433.101 235.868C433.386 236.459 433.784 236.979 434.245 237.438C434.966 238.169 435.84 238.765 436.693 239.343C438.344 240.442 440.145 241.595 442.126 241.484" stroke="#1E222D" stroke-width="2.5" stroke-miterlimit="10" stroke-linecap="round"/>
<path id="Vector_87" d="M443.304 201.709C446.325 201.133 450.9 202.398 453.307 204.32C455.714 206.235 458.101 208.571 459.828 211.12C460.963 212.815 462.097 214.564 462.949 216.414C464.588 219.973 464.526 224.106 465.594 227.866C466.179 229.938 466.919 231.969 467.819 233.928C469.169 236.871 469.238 237.321 471.627 240.082C473.644 242.421 467.952 241.382 467.952 241.382L465.384 245.175C464.748 246.113 464.168 247.092 463.662 248.105C461.952 251.5 459.128 254.281 456.046 256.546C452.614 259.067 449.134 261.645 445.228 263.352C441.196 265.12 441.215 268.793 440.909 268.679C439.886 268.305 439.06 267.81 438.388 267.235C434.569 263.972 435.857 258.127 436.148 257.021L436.198 256.839" stroke="#1E222D" stroke-width="2.5" stroke-miterlimit="10" stroke-linecap="round"/>
</g>
</g>
</g>
</g>
</g>
</g>
<defs>
<clipPath id="clip0_1992_146">
<rect width="636" height="714" fill="white"/>
</clipPath>
<clipPath id="clip1_1992_146">
<rect width="458" height="714" fill="white" transform="translate(178)"/>
</clipPath>
</defs>
</svg>
