<svg width="280" height="63" viewBox="0 0 280 63" fill="none" xmlns="http://www.w3.org/2000/svg">
<g clip-path="url(#clip0_2066_1749)">
<path fill-rule="evenodd" clip-rule="evenodd" d="M0.676707 55.6609C1.35561 54.6864 2.47096 54.0529 3.97425 53.8093C46.3573 46.8417 89.3224 46.793 131.705 53.6144C132.869 53.8093 133.597 54.1504 133.985 54.5402C134.324 54.8813 134.47 55.3198 134.373 55.9532C134.276 56.4892 134.033 56.8302 133.645 57.0251C133.16 57.2688 132.384 57.3662 131.221 57.22C89.2254 52.104 46.9393 53.7606 5.52603 62.1899C5.13809 62.2387 4.75014 62.2874 4.41069 62.2874H4.07123C3.05288 62.2387 2.32548 61.8976 1.88904 61.6052C0.919173 60.9718 0.288761 59.9486 0.0462948 58.7792C-0.0991849 57.6098 0.094788 56.4892 0.676707 55.6609Z" fill="url(#paint0_linear_2066_1749)"/>
<path fill-rule="evenodd" clip-rule="evenodd" d="M161.725 12.1318C164.343 12.1318 166.671 12.7656 168.708 14.1299C170.745 15.4942 172.296 17.346 173.46 19.7334C174.624 22.1695 175.206 24.9952 175.206 28.1621C175.206 31.3292 174.624 34.1066 173.46 36.4941C172.296 38.8816 170.745 40.7332 168.708 42C166.671 43.3156 164.343 43.9492 161.725 43.9492C159.252 43.9492 157.069 43.3647 155.227 42.1953C153.917 41.367 152.947 40.295 152.22 38.9795V57.0068H143.152V21.6816C143.152 20.22 143.103 18.7585 143.055 17.2969C143.006 15.8351 142.861 14.3729 142.667 12.9111H151.202L151.784 18.125C152.463 16.4198 153.578 15.0065 155.227 13.9346C157.069 12.7165 159.252 12.1319 161.725 12.1318ZM159.154 19.0508C156.875 19.0509 155.129 19.8306 153.917 21.3896C152.705 22.9487 152.123 25.1901 152.123 28.0645C152.123 30.939 152.705 33.181 153.917 34.6914C155.129 36.2018 156.875 36.9813 159.154 36.9814C161.385 36.9814 163.083 36.2506 164.295 34.7402C165.507 33.2298 166.089 31.0367 166.138 28.1133C166.138 25.2874 165.507 23.0463 164.295 21.4385C163.083 19.8793 161.336 19.0508 159.154 19.0508Z" fill="#1E222D"/>
<path fill-rule="evenodd" clip-rule="evenodd" d="M228.161 12.1318C230.634 12.1319 232.816 12.7655 234.707 13.9834C236.065 14.8604 237.132 15.9325 237.859 17.248V12.9111H246.879V42.0488C246.879 46.97 245.473 50.6734 242.709 53.207C239.945 55.7407 235.822 57.0068 230.439 57.0068C225.639 57.0068 221.42 56.0817 217.832 54.1816L219.189 47.4082C221.032 48.3339 222.826 49.0166 224.669 49.4551C226.512 49.8936 228.354 50.1367 230.148 50.1367C232.767 50.1367 234.707 49.5521 235.968 48.334C237.277 47.1159 237.908 45.2642 237.908 42.7793V37.4199C237.472 38.0533 236.986 38.6868 236.404 39.2715C235.386 40.2947 234.174 41.0746 232.768 41.708C231.313 42.3414 229.81 42.6337 228.161 42.6338C225.494 42.6338 223.166 42.0002 221.129 40.7334C219.092 39.4666 217.492 37.7119 216.328 35.4219C215.164 33.1319 214.583 30.4522 214.583 27.3828C214.583 24.3132 215.164 21.6816 216.328 19.3916C217.492 17.1504 219.092 15.3478 221.129 14.0811C223.166 12.7655 225.543 12.1318 228.161 12.1318ZM230.828 19.0996C228.597 19.0996 226.803 19.8303 225.542 21.292C224.233 22.7537 223.603 24.7516 223.603 27.334C223.603 29.9164 224.233 31.9631 225.542 33.4248C226.851 34.9352 228.597 35.666 230.779 35.666C232.961 35.666 234.707 34.9351 235.968 33.4736C237.229 32.0119 237.86 29.9652 237.908 27.3828C237.908 24.8492 237.326 22.8025 236.065 21.3408C234.805 19.8304 233.059 19.0997 230.828 19.0996Z" fill="#1E222D"/>
<path d="M17.8936 0C19.9302 0 21.9187 0.195128 23.8584 0.584961C25.798 1.02353 27.5925 1.55912 29.2412 2.29004C30.8414 2.97228 32.248 3.89852 33.3633 4.92188L30.3564 11.6963C28.4167 10.2343 26.4289 9.11283 24.3438 8.38184C22.2586 7.65087 20.1733 7.30959 17.9912 7.30957C15.5667 7.30957 13.6266 7.79694 12.1719 8.77148C10.7172 9.74606 9.98939 11.0621 9.98926 12.7676C9.98926 13.6935 10.2325 14.4739 10.8145 15.1074C11.3964 15.7408 12.3179 16.3253 13.627 16.8125C14.9363 17.3485 16.7307 17.836 19.0098 18.3721C21.6767 18.9568 24.0047 19.5904 25.9443 20.3701C27.9323 21.1498 29.5322 22.0274 30.793 23.002C32.0537 23.9766 32.9754 25.1461 33.5088 26.4131C34.1392 27.7288 34.4306 29.1909 34.4307 30.8965C34.4307 33.5768 33.751 35.9159 32.3447 37.8652C30.9384 39.8146 28.9018 41.3253 26.2832 42.3975C23.6162 43.4695 20.4643 44.0058 16.7305 44.0059C14.5968 44.0059 12.4625 43.8108 10.4258 43.4209C8.3892 43.031 6.44942 42.4468 4.65527 41.7158C2.86104 40.9848 1.30931 40.0585 0 39.0352L3.05469 32.2607C5.18839 33.7227 7.37121 34.8442 9.65039 35.5752C11.9295 36.3061 14.3056 36.6475 16.8271 36.6475C19.5428 36.6475 21.6282 36.2082 23.083 35.3311C24.5375 34.4539 25.2645 33.2359 25.2646 31.6768C25.2646 30.7508 24.9257 29.9704 24.3438 29.3369C23.7618 28.6547 22.7917 28.1191 21.4824 27.6318C20.1731 27.1445 18.3785 26.6573 16.1963 26.1699C13.4326 25.5852 11.0567 24.9515 9.11719 24.1719C7.17746 23.4409 5.57659 22.5634 4.36426 21.54C3.15197 20.5654 2.27918 19.3957 1.69727 18.0312C1.16384 16.6667 0.873047 15.1069 0.873047 13.3525C0.873102 10.8185 1.60059 8.57698 3.00684 6.53027C4.46163 4.53226 6.45007 2.92348 8.97168 1.75391C11.5416 0.58453 14.4995 5.15001e-05 17.8936 0Z" fill="#1E222D"/>
<path fill-rule="evenodd" clip-rule="evenodd" d="M72.2549 12.1318C74.7279 12.1318 76.8618 12.7166 78.7529 13.9346C80.1107 14.8116 81.1291 15.8838 81.8564 17.1992H81.9053V12.9111H90.8281V43.5107H81.9053V38.9795C81.1779 40.295 80.1595 41.4159 78.8018 42.2441C76.9106 43.4135 74.7283 43.998 72.3037 43.998C69.6367 43.998 67.3091 43.3155 65.2725 42.0488C63.2357 40.7333 61.6349 38.9305 60.5195 36.543C59.4042 34.1555 58.8223 31.378 58.8223 28.2109C58.8223 24.9954 59.3559 22.2183 60.5195 19.7822C61.6834 17.346 63.2357 15.4942 65.2725 14.1299C67.3091 12.8145 69.6364 12.1319 72.2549 12.1318ZM74.874 19.1484C72.6918 19.1484 70.9454 19.9282 69.6846 21.5361C68.4239 23.144 67.794 25.3365 67.7939 28.2109C67.7939 31.037 68.4244 33.2298 69.6367 34.7402C70.849 36.2506 72.5949 36.9814 74.874 36.9814C77.1045 36.9814 78.8014 36.2017 80.0137 34.6914C81.226 33.1809 81.8564 30.9881 81.8564 28.1621C81.8564 25.2388 81.226 23.0464 80.0137 21.4873C78.8014 19.9282 77.0561 19.1485 74.874 19.1484Z" fill="#1E222D"/>
<path fill-rule="evenodd" clip-rule="evenodd" d="M191.646 12.1318C194.119 12.1319 196.252 12.7165 198.144 13.9346C199.501 14.8116 200.52 15.8837 201.247 17.1992V12.9111H210.218V43.5107H201.296V38.9795C200.569 40.295 199.55 41.4158 198.192 42.2441C196.301 43.4135 194.118 43.998 191.693 43.998C189.026 43.998 186.699 43.3156 184.662 42.0488C182.625 40.7333 181.025 38.9304 179.91 36.543C178.795 34.1555 178.213 31.378 178.213 28.2109C178.213 24.9953 178.746 22.2183 179.91 19.7822C181.074 17.3461 182.625 15.4942 184.662 14.1299C186.699 12.8143 189.027 12.1318 191.646 12.1318ZM194.312 19.1484C192.13 19.1484 190.385 19.9282 189.124 21.5361C187.863 23.144 187.232 25.385 187.232 28.2109C187.232 31.037 187.863 33.2298 189.075 34.7402C190.288 36.2506 192.033 36.9814 194.312 36.9814C196.543 36.9814 198.241 36.2019 199.453 34.6914C200.665 33.181 201.247 30.988 201.296 28.1621C201.296 25.239 200.665 23.0464 199.453 21.4873C198.241 19.9281 196.495 19.1484 194.312 19.1484Z" fill="#1E222D"/>
<path d="M47.7168 12.8633H55.4756V19.6846H47.7168V31.6221C47.7168 32.7914 47.9591 33.7662 48.3955 34.4971C48.8319 35.2279 49.4142 35.7643 50.1416 36.0566C50.869 36.349 51.6454 36.4951 52.4697 36.4951C52.9545 36.4951 53.4397 36.4462 53.876 36.3975C54.3608 36.3 54.8939 36.2019 55.4756 36.1045V43.0723C54.6513 43.4133 53.7784 43.6574 52.9541 43.7549C52.0813 43.901 51.2081 43.9492 50.2383 43.9492C46.5045 43.9491 43.6434 42.8772 41.6553 40.7334C39.6672 38.5896 38.6973 35.5689 38.6973 31.7686V5.75L47.7168 2.79297V12.8633Z" fill="#1E222D"/>
<path d="M130.737 12.8633H138.496V19.6846H130.737V31.6221C130.737 32.7914 130.98 33.7662 131.416 34.4971C131.852 35.2279 132.435 35.7633 133.162 36.0557C133.89 36.348 134.666 36.4951 135.49 36.4951C135.975 36.4951 136.46 36.4462 136.896 36.3975C137.381 36.3 137.914 36.2019 138.496 36.1045V43.0723C137.672 43.4133 136.799 43.6574 135.975 43.7549C135.102 43.901 134.229 43.9492 133.259 43.9492C129.525 43.9491 126.664 42.8772 124.676 40.7334C122.688 38.5896 121.718 35.5689 121.718 31.7686V5.75L130.737 2.79297V12.8633Z" fill="#1E222D"/>
<path fill-rule="evenodd" clip-rule="evenodd" d="M266.131 11.9863C268.943 11.9863 271.417 12.6199 273.502 13.8867C275.587 15.1535 277.187 16.9074 278.303 19.2461C279.418 21.5849 280 24.3134 280 27.4805L279.903 30.501H260.069C260.36 32.3038 260.943 33.717 261.815 34.7402C263.173 36.2506 265.21 37.0303 267.974 37.0303C269.574 37.0303 271.174 36.7868 272.726 36.251C274.277 35.715 275.733 34.9842 277.042 34.0098L279.418 40.1484C277.963 41.3178 276.169 42.1958 274.035 42.8779C271.95 43.5113 269.816 43.8516 267.634 43.8516C264.24 43.8515 261.33 43.1699 258.857 41.9033C256.384 40.5878 254.493 38.7847 253.184 36.3975C251.874 34.0587 251.195 31.2323 251.195 27.9678C251.195 24.8007 251.874 22.0232 253.135 19.6357C254.396 17.1996 256.141 15.3477 258.372 13.9834C260.603 12.6679 263.173 11.9863 266.131 11.9863ZM266.373 18.418C264.288 18.4181 262.688 19.1489 261.524 20.6592C260.846 21.6337 260.36 22.803 260.069 24.3135H272.192C271.998 22.6569 271.562 21.3417 270.786 20.3672C269.768 19.0516 268.313 18.418 266.373 18.418Z" fill="#1E222D"/>
<path d="M115.656 12.1807C116.287 12.1807 116.821 12.2297 117.306 12.3271V20.4639C116.336 20.1715 115.365 20.0254 114.396 20.0254C112.795 20.0254 111.438 20.3666 110.371 20.9512C109.304 21.5846 108.479 22.4126 107.897 23.5332C107.316 24.6539 107.024 25.97 107.024 27.4805V43.4619H97.9561V21.6328C97.956 20.1712 97.9079 18.7096 97.8594 17.248C97.8109 15.7865 97.6656 14.3249 97.4717 12.8633H106.007L106.637 18.1738C107.267 16.5661 108.189 15.2508 109.449 14.2764C111.243 12.8634 113.329 12.1807 115.656 12.1807Z" fill="#1E222D"/>
<path d="M47.7168 2.79297V2.77734H47.7656L47.7168 2.79297Z" fill="#1E222D"/>
<path d="M130.737 2.79297V2.77734H130.786L130.737 2.79297Z" fill="#1E222D"/>
</g>
<defs>
<linearGradient id="paint0_linear_2066_1749" x1="13.8086" y1="49.1745" x2="134.178" y2="62.2781" gradientUnits="userSpaceOnUse">
<stop stop-color="#6677FB"/>
<stop offset="1" stop-color="#29DDCC"/>
</linearGradient>
<clipPath id="clip0_2066_1749">
<rect width="280" height="62.7083" fill="white"/>
</clipPath>
</defs>
</svg>
