<svg width="104" height="104" viewBox="0 0 104 104" fill="none" xmlns="http://www.w3.org/2000/svg">
<rect width="104" height="104" rx="52" fill="white"/>
<rect x="27" y="43" width="50" height="35" rx="8" fill="#FCBB61" stroke="#1E222D" stroke-width="2.5"/>
<path d="M54.5238 66.4382V60.9412C55.2326 60.5185 55.8217 59.9112 56.2322 59.1798C56.6428 58.4484 56.8603 57.6186 56.8632 56.7732C56.8663 56.034 56.705 55.3038 56.392 54.639C56.0789 53.9742 55.6224 53.3925 55.0574 52.9385C54.4925 52.4846 53.8342 52.1706 53.1333 52.0206C52.4324 51.8707 51.7076 51.8888 51.0146 52.0736C50.1927 52.2822 49.4411 52.717 48.8396 53.3319C48.2381 53.9467 47.8093 54.7185 47.5989 55.5651C47.3479 56.5863 47.427 57.6642 47.8239 58.6348C48.2209 59.6053 48.9141 60.4152 49.798 60.9412V66.4382C49.798 67.079 50.0445 67.6936 50.4832 68.1467C50.922 68.5999 51.517 68.8544 52.1375 68.8544C52.4486 68.8609 52.7579 68.8031 53.0472 68.6846C53.3364 68.566 53.5999 68.3891 53.8221 68.164C54.0443 67.939 54.2208 67.6705 54.3413 67.3741C54.4618 67.0778 54.5238 66.7596 54.5238 66.4382Z" fill="#1E222D"/>
<path d="M38.3643 41.4562V34.6376C38.3643 27.1059 44.4699 21.0002 52.0016 21.0002C59.5333 21.0002 65.6389 27.1059 65.6389 34.6376V41.4562" stroke="#1E222D" stroke-width="2.5" stroke-linecap="round"/>
</svg>
