<svg xmlns="http://www.w3.org/2000/svg" style="display:none">

  <!--
    Startpage icon sprite
    Usage: <svg aria-hidden="true"><use href="path/to/icons.svg#icon-name"/></svg>
    All icons use currentColor — size is controlled by the referencing component.
  -->

  <!-- icn-filter | Figma node 2566:1213 -->
  <symbol id="icon-filter" viewBox="0 0 13.5 14" fill="none">
    <path d="M12.75 2L6.75 2"        stroke="currentColor" stroke-width="1.5" stroke-linecap="round"/>
    <path d="M4.25 2H0.75"           stroke="currentColor" stroke-width="1.5" stroke-linecap="round"/>
    <path d="M6.75 0.75L6.75 3.25"   stroke="currentColor" stroke-width="1.5" stroke-linecap="round"/>
    <path d="M12.75 7L5.25 7"        stroke="currentColor" stroke-width="1.5" stroke-linecap="round"/>
    <path d="M2.75 7H0.75"           stroke="currentColor" stroke-width="1.5" stroke-linecap="round"/>
    <path d="M2.75 5.75L2.75 8.25"   stroke="currentColor" stroke-width="1.5" stroke-linecap="round"/>
    <path d="M8.25 12H0.75"          stroke="currentColor" stroke-width="1.5" stroke-linecap="round"/>
    <path d="M10.75 12L12.75 12"     stroke="currentColor" stroke-width="1.5" stroke-linecap="round"/>
    <path d="M10.75 13.25L10.75 10.75" stroke="currentColor" stroke-width="1.5" stroke-linecap="round"/>
  </symbol>

  <!-- icn-hamburger | Figma node 151:588 -->
  <symbol id="icon-hamburger" viewBox="0 0 20 20" fill="none">
    <path d="M1 2H19"  stroke="currentColor" stroke-width="2" stroke-linecap="round"/>
    <path d="M1 10H19" stroke="currentColor" stroke-width="2" stroke-linecap="round"/>
    <path d="M1 18H19" stroke="currentColor" stroke-width="2" stroke-linecap="round"/>
  </symbol>

  <!-- icn-settings | Figma node 1524:1158 -->
  <symbol id="icon-settings" viewBox="0 0 16 16" fill="none">
    <path d="M13.0167 10.0833C12.9279 10.2844 12.9015 10.5075 12.9407 10.7237C12.9799 10.94 13.083 11.1395 13.2367 11.2967L13.2767 11.3367C13.4006 11.4605 13.499 11.6075 13.5661 11.7694C13.6332 11.9313 13.6677 12.1048 13.6677 12.28C13.6677 12.4552 13.6332 12.6287 13.5661 12.7906C13.499 12.9525 13.4006 13.0995 13.2767 13.2233C13.1528 13.3473 13.0058 13.4456 12.8439 13.5127C12.6821 13.5798 12.5086 13.6144 12.3333 13.6144C12.1581 13.6144 11.9846 13.5798 11.8227 13.5127C11.6609 13.4456 11.5138 13.3473 11.39 13.2233L11.35 13.1833C11.1929 13.0296 10.9933 12.9265 10.7771 12.8873C10.5608 12.8481 10.3377 12.8746 10.1367 12.9633C9.93949 13.0478 9.77132 13.1882 9.65287 13.367C9.53442 13.5459 9.47086 13.7555 9.47 13.97V14.0833C9.47 14.437 9.32952 14.7761 9.07948 15.0261C8.82943 15.2762 8.49029 15.4167 8.13667 15.4167C7.78305 15.4167 7.44391 15.2762 7.19386 15.0261C6.94381 14.7761 6.80333 14.437 6.80333 14.0833V14.0233C6.79817 13.8027 6.72675 13.5887 6.59834 13.4091C6.46994 13.2296 6.29049 13.0929 6.08333 13.0167C5.88226 12.9279 5.65921 12.9015 5.44294 12.9407C5.22668 12.9799 5.02712 13.083 4.87 13.2367L4.83 13.2767C4.70617 13.4006 4.55912 13.499 4.39725 13.5661C4.23539 13.6332 4.06189 13.6677 3.88667 13.6677C3.71145 13.6677 3.53794 13.6332 3.37608 13.5661C3.21422 13.499 3.06716 13.4006 2.94333 13.2767C2.81936 13.1528 2.72102 13.0058 2.65392 12.8439C2.58682 12.6821 2.55228 12.5086 2.55228 12.3333C2.55228 12.1581 2.58682 11.9846 2.65392 11.8227C2.72102 11.6609 2.81936 11.5138 2.94333 11.39L2.98333 11.35C3.13702 11.1929 3.24012 10.9933 3.27934 10.7771C3.31855 10.5608 3.29208 10.3377 3.20333 10.1367C3.11882 9.93949 2.9785 9.77132 2.79964 9.65287C2.62078 9.53442 2.41119 9.47086 2.19667 9.47H2.08333C1.72971 9.47 1.39057 9.32952 1.14052 9.07947C0.890476 8.82943 0.75 8.49029 0.75 8.13667C0.75 7.78304 0.890476 7.44391 1.14052 7.19386C1.39057 6.94381 1.72971 6.80333 2.08333 6.80333H2.14333C2.364 6.79817 2.578 6.72675 2.75753 6.59834C2.93706 6.46993 3.07381 6.29049 3.15 6.08333C3.23874 5.88226 3.26522 5.6592 3.226 5.44294C3.18679 5.22668 3.08369 5.02712 2.93 4.87L2.89 4.83C2.76603 4.70617 2.66769 4.55912 2.60059 4.39725C2.53349 4.23539 2.49895 4.06189 2.49895 3.88667C2.49895 3.71145 2.53349 3.53794 2.60059 3.37608C2.66769 3.21422 2.76603 3.06716 2.89 2.94333C3.01383 2.81936 3.16088 2.72102 3.32275 2.65392C3.48461 2.58682 3.65811 2.55228 3.83333 2.55228C4.00855 2.55228 4.18206 2.58682 4.34392 2.65392C4.50578 2.72102 4.65284 2.81936 4.77667 2.94333L4.81667 2.98333C4.97379 3.13702 5.17334 3.24012 5.38961 3.27934C5.60587 3.31855 5.82892 3.29208 6.03 3.20333H6.08333C6.28051 3.11882 6.44868 2.9785 6.56713 2.79964C6.68558 2.62078 6.74915 2.41119 6.75 2.19667V2.08333C6.75 1.72971 6.89048 1.39057 7.14053 1.14052C7.39057 0.890476 7.72971 0.75 8.08333 0.75C8.43696 0.75 8.77609 0.890476 9.02614 1.14052C9.27619 1.39057 9.41667 1.72971 9.41667 2.08333V2.14333C9.41752 2.35786 9.48109 2.56745 9.59954 2.74631C9.71799 2.92517 9.88615 3.06549 10.0833 3.15C10.2844 3.23874 10.5075 3.26522 10.7237 3.226C10.94 3.18679 11.1395 3.08369 11.2967 2.93L11.3367 2.89C11.4605 2.76603 11.6076 2.66769 11.7694 2.60059C11.9313 2.53349 12.1048 2.49895 12.28 2.49895C12.4552 2.49895 12.6287 2.53349 12.7906 2.60059C12.9525 2.66769 13.0995 2.76603 13.2233 2.89C13.3473 3.01383 13.4456 3.16088 13.5127 3.32275C13.5798 3.48461 13.6144 3.65811 13.6144 3.83333C13.6144 4.00855 13.5798 4.18206 13.5127 4.34392C13.4456 4.50578 13.3473 4.65284 13.2233 4.77667L13.1833 4.81667C13.0296 4.97379 12.9265 5.17334 12.8873 5.38961C12.8481 5.60587 12.8746 5.82892 12.9633 6.03V6.08333C13.0478 6.28051 13.1882 6.44868 13.367 6.56713C13.5459 6.68558 13.7555 6.74914 13.97 6.75H14.0833C14.437 6.75 14.7761 6.89048 15.0261 7.14052C15.2762 7.39057 15.4167 7.72971 15.4167 8.08333C15.4167 8.43695 15.2762 8.77609 15.0261 9.02614C14.7761 9.27619 14.437 9.41667 14.0833 9.41667H14.0233C13.8088 9.41752 13.5992 9.48109 13.4204 9.59954C13.2415 9.71799 13.1012 9.88615 13.0167 10.0833Z" stroke="currentColor" stroke-width="1.5" stroke-linecap="round" stroke-linejoin="round"/>
    <g transform="translate(5.856 5.856) scale(0.810)">
      <path d="M2.75 4.75C3.85457 4.75 4.75 3.85457 4.75 2.75C4.75 1.64543 3.85457 0.75 2.75 0.75C1.64543 0.75 0.75 1.64543 0.75 2.75C0.75 3.85457 1.64543 4.75 2.75 4.75Z" stroke="currentColor" stroke-width="1.852" stroke-linecap="round" stroke-linejoin="round"/>
    </g>
  </symbol>

  <!-- icn-download | Figma node 2566:1973 -->
  <symbol id="icon-download" viewBox="0 0 16 16" fill="none">
    <path d="M4.5 3H2.5C2.22386 3 2 3.22386 2 3.5V13.5C2 13.7761 2.22386 14 2.5 14H13.5C13.7761 14 14 13.7761 14 13.5V3.5C14 3.22386 13.7761 3 13.5 3H11.5" stroke="currentColor" stroke-width="1.5" stroke-linecap="round"/>
    <path d="M5 8L8 11L11 8" stroke="currentColor" stroke-width="1.5" stroke-linecap="round"/>
    <path d="M8 2L8 11" stroke="currentColor" stroke-width="1.5" stroke-linecap="round"/>
  </symbol>

  <!-- icn-info | Figma node 2565:1026 -->
  <symbol id="icon-info" viewBox="0 0 15 15" fill="none">
    <circle cx="7.5" cy="7.5" r="6.75" stroke="var(--color-icon-tertiary)" stroke-width="1.5"/>
    <path d="M7.5 7.19995V10.7" stroke="var(--color-icon-tertiary)" stroke-width="1.5" stroke-linecap="round"/>
    <circle cx="7.49998" cy="4.59995" r="0.9" fill="var(--color-icon-tertiary)"/>
  </symbol>

  <!-- icn-av | Figma node 45:624 -->
  <symbol id="icon-av" viewBox="0 0 16 8" fill="none">
    <path d="M8.01674 0C-3.04828 0 -0.922528 8 4.05523 8C5.05273 8 5.99198 7.56896 6.59073 6.83625L7.23399 6.04896C7.62549 5.57 8.40824 5.57 8.79974 6.04896L9.44299 6.83625C10.0415 7.56896 10.9807 8 11.9782 8C16.7248 8 19.244 0 8.01674 0ZM4.59998 5.09083C3.57348 5.09083 2.90598 4.55625 2.59798 4.23562C2.46723 4.09958 2.46723 3.90042 2.59798 3.76417C2.90598 3.44333 3.57323 2.90896 4.59998 2.90896C5.62673 2.90896 6.29398 3.44354 6.60198 3.76417C6.73273 3.90021 6.73273 4.09937 6.60198 4.23562C6.29398 4.55646 5.62648 5.09083 4.59998 5.09083ZM11.4 5.09083C10.3735 5.09083 9.70599 4.55625 9.39799 4.23562C9.26724 4.09958 9.26724 3.90042 9.39799 3.76417C9.70599 3.44333 10.3732 2.90896 11.4 2.90896C12.4267 2.90896 13.094 3.44354 13.402 3.76417C13.5327 3.90021 13.5327 4.09937 13.402 4.23562C13.094 4.55646 12.4265 5.09083 11.4 5.09083Z" fill="var(--color-icon-secondary)"/>
  </symbol>

  <!-- icn-image | Figma node 2566:1971 -->
  <symbol id="icon-image" viewBox="0 0 16 16" fill="none">
    <!-- Inner graphics clipped to frame boundary via nested SVG viewport -->
    <svg x="2" y="2" width="12" height="12" overflow="hidden">
      <circle cx="7" cy="3.5" r="1.5" stroke="currentColor" stroke-width="1.5"/>
      <path d="M-0.5 8C-0.1518 7.6518 1.232 6.268 2.13427 5.36573C2.33431 5.16569 2.6601 5.17154 2.85313 5.37835L9.5 12.5" stroke="currentColor" stroke-width="1.5" stroke-linecap="round"/>
      <path d="M7.5 9.5C7.73909 9.2723 9.0402 8.0157 9.7786 7.30751C9.9618 7.13173 10.2472 7.12267 10.4423 7.28523L12.5 9" stroke="currentColor" stroke-width="1.5" stroke-linecap="round"/>
    </svg>
    <!-- Border drawn on top -->
    <rect x="2" y="2" width="12" height="12" rx="2" stroke="currentColor" stroke-width="1.5"/>
  </symbol>

</svg>
